<svg xmlns="http://www.w3.org/2000/svg" width="705" height="477" viewBox="0 0 186.531 126.206">
  <g transform="translate(-139.902 87.834)">
    <rect width="186.531" height="126.206" x="139.902" y="-87.834" ry="10.958" fill="#ececec"/>
    <path d="M193.314-75.002c12.31 0 22.293 9.981 22.293 22.293 0 12.314-9.982 22.298-22.293 22.298-12.316 0-22.296-9.984-22.296-22.298 0-12.312 9.98-22.293 22.296-22.293" fill="#d0d2d2" fill-rule="evenodd"/>
    <path d="M232.577-32.638l-.042-.043a.75.75 0 1 0-.747 1.3c.357.208.837.098 1.042-.259a.736.736 0 0 0-.253-1.018zm-2.902-1.673l-.038-.043a.754.754 0 0 0-1.024.276.75.75 0 0 0 .273 1.024c.358.209.839.094 1.043-.263a.728.728 0 0 0-.253-1.014zm-2.899-1.67l-.042-.042a.742.742 0 0 0-1.021.272.74.74 0 0 0 .273 1.02c.357.213.838.098 1.043-.258a.726.726 0 0 0-.254-1.01zm-2.901-1.674l-.038-.042a.749.749 0 1 0-.75 1.297c.357.204.838.094 1.046-.263.205-.36.1-.807-.256-1.01zm-2.899-1.677h-.021a.75.75 0 1 0-.751 1.3c.361.203.83.088 1.04-.268a.74.74 0 0 0-.266-1.017zm-.646-3.387l-4.59 1.23 1.229 4.587 3.36-5.817" fill="#012c4f" fill-rule="evenodd"/>
    <path d="M193.314-19.052c12.31 0 22.293 9.98 22.293 22.293 0 12.314-9.982 22.299-22.293 22.299-12.316 0-22.296-9.985-22.296-22.299 0-12.312 9.98-22.293 22.296-22.293" fill="#d0d2d2" fill-rule="evenodd"/>
    <path d="M232.577-16.9l-.042.043a.75.75 0 0 1-.747-1.3c.357-.208.837-.094 1.042.263a.728.728 0 0 1-.253 1.01zm-2.902 1.673l-.038.042a.752.752 0 0 1-.751-1.302c.358-.203.839-.093 1.043.263.211.361.107.806-.253 1.011zm-2.899 1.674l-.042.042a.746.746 0 0 1-1.021-.271.747.747 0 0 1 .273-1.027c.357-.204.838-.098 1.043.263.208.36.104.805-.254 1.009zm-2.901 1.677l-.038.042a.749.749 0 1 1-.75-1.297c.357-.204.838-.098 1.046.263.205.356.1.807-.256 1.01zm-2.899 1.676h-.021a.753.753 0 0 1-1.024-.272.755.755 0 0 1 .273-1.029.772.772 0 0 1 1.04.267.745.745 0 0 1-.266 1.022zm-.646 3.384l-4.59-1.228 1.229-4.588 3.36 5.816" fill="#012c4f" fill-rule="evenodd"/>
    <path d="M262.851-57.402c17.937 0 32.466 14.528 32.466 32.455S280.787 7.52 262.851 7.52c-17.918 0-32.449-14.541-32.449-32.468 0-17.927 14.531-32.455 32.45-32.455" fill="#012c4f" fill-rule="evenodd"/>
    <g fill="#fafafa" fill-rule="evenodd">
      <path d="M262.866-51.262c-14.51 0-26.323 11.818-26.323 26.325 0 14.515 11.813 26.318 26.323 26.318 14.515 0 26.31-11.803 26.31-26.318 0-14.507-11.795-26.325-26.31-26.325zm0 48.742c-12.36 0-22.431-10.055-22.431-22.417 0-12.362 10.071-22.409 22.431-22.409 12.347 0 22.418 10.047 22.418 22.409 0 12.362-10.071 22.417-22.418 22.417"/>
      <path d="M262.866-40.903c.71 0 1.278-.591 1.278-1.309v-2.563c0-.717-.568-1.308-1.278-1.308-.724 0-1.291.59-1.291 1.308v2.563c0 .718.567 1.31 1.291 1.31M262.866-9.26c-.724 0-1.291.59-1.291 1.287v2.593a1.28 1.28 0 0 0 1.291 1.287c.71 0 1.278-.57 1.278-1.287v-2.593a1.29 1.29 0 0 0-1.278-1.287M245.738-26.366h-2.572c-.726 0-1.309.549-1.309 1.287 0 .718.583 1.267 1.31 1.267h2.57c.729 0 1.31-.549 1.31-1.267 0-.738-.583-1.287-1.31-1.287M282.553-26.366h-2.587c-.694 0-1.277.549-1.277 1.287 0 .718.583 1.267 1.277 1.267h2.587c.726 0 1.294-.549 1.294-1.267 0-.738-.568-1.287-1.294-1.287M264.144-27.81v-8.26c0-.718-.568-1.288-1.278-1.288a1.28 1.28 0 0 0-1.291 1.287v8.282c-1.423.718-2.055 2.368-1.406 3.857l-10.88 8.47a1.28 1.28 0 0 0-.239 1.815 1.318 1.318 0 0 0 1.81.232l11.36-8.839c3.409.781 5.105-4.03 1.923-5.548"/>
    </g>
    <path d="M205.515-59.874v-1.546c0-2.08-6.288-3.206-12.213-3.206-5.903 0-12.192 1.127-12.192 3.206v1.546c0 .45.289.854.809 1.219-.51.356-.809.747-.809 1.204v1.554c0 .439.297.854.817 1.219-.519.356-.817.747-.817 1.205v1.546c0 .462.297.854.817 1.208-.519.368-.817.76-.817 1.219v1.545c0 .45.289.854.809 1.219-.51.356-.809.76-.809 1.217v1.536c0 2.078 6.289 3.196 12.192 3.196 5.925 0 12.213-1.115 12.213-3.196v-1.536c0-.45-.301-.866-.828-1.217.527-.356.828-.772.828-1.22V-49.5c0-.451-.301-.855-.828-1.22.527-.355.828-.747.828-1.207v-1.546c0-.45-.301-.854-.828-1.205.527-.368.828-.772.828-1.22v-1.553c0-.45-.301-.854-.828-1.204.527-.368.828-.772.828-1.22zm-12.213-4.292c6.925 0 11.749 1.448 11.749 2.746 0 1.286-4.824 2.735-11.749 2.735-6.92 0-11.727-1.45-11.727-2.735 0-1.298 4.807-2.746 11.727-2.746zm11.749 18.647c0 1.279-4.824 2.736-11.749 2.736-6.92 0-11.727-1.457-11.727-2.736 0-.32.272-.64.804-.96 2.127 1.138 6.623 1.728 10.923 1.728 4.317 0 8.805-.593 10.94-1.729.519.32.808.641.808.961zm0-3.981c0 1.293-4.824 2.747-11.749 2.747-6.92 0-11.727-1.454-11.727-2.747 0-.32.272-.641.804-.95 2.127 1.128 6.623 1.72 10.923 1.72 4.317 0 8.805-.594 10.94-1.72.519.309.808.63.808.95zm0-3.973c0 1.286-4.824 2.737-11.749 2.737-6.92 0-11.727-1.451-11.727-2.737 0-.32.272-.64.804-.95 2.127 1.117 6.623 1.722 10.923 1.722 4.317 0 8.805-.605 10.94-1.721.519.308.808.629.808.95zm0-3.978c0 1.3-4.824 2.743-11.749 2.743-6.92 0-11.727-1.443-11.727-2.743 0-.308.272-.629.804-.95 2.127 1.128 6.623 1.723 10.923 1.723 4.317 0 8.805-.594 10.94-1.722.519.308.808.629.808.95M205.515-3.924v-1.545c0-2.08-6.288-3.207-12.213-3.207-5.903 0-12.192 1.128-12.192 3.207v1.545c0 .451.289.855.809 1.22-.51.355-.809.747-.809 1.204V.053c0 .44.297.855.817 1.22-.519.355-.817.747-.817 1.205v1.545c0 .463.297.855.817 1.208-.519.368-.817.76-.817 1.22v1.544c0 .451.289.855.809 1.22-.51.355-.809.759-.809 1.217v1.536c0 2.078 6.289 3.196 12.192 3.196 5.925 0 12.213-1.116 12.213-3.196v-1.536c0-.451-.301-.866-.828-1.218.527-.356.828-.771.828-1.219V6.45c0-.45-.301-.854-.828-1.219.527-.356.828-.747.828-1.208V2.478c0-.451-.301-.855-.828-1.206.527-.368.828-.771.828-1.219V-1.5c0-.451-.301-.855-.828-1.205.527-.368.828-.771.828-1.219zm-12.213-4.291c6.925 0 11.749 1.448 11.749 2.746 0 1.285-4.824 2.734-11.749 2.734-6.92 0-11.727-1.449-11.727-2.734 0-1.298 4.807-2.746 11.727-2.746zm11.749 18.647c0 1.278-4.824 2.736-11.749 2.736-6.92 0-11.727-1.458-11.727-2.736 0-.32.272-.64.804-.961 2.127 1.139 6.623 1.729 10.923 1.729 4.317 0 8.805-.594 10.94-1.73.519.321.808.642.808.962zm0-3.982c0 1.294-4.824 2.748-11.749 2.748-6.92 0-11.727-1.454-11.727-2.748 0-.32.272-.64.804-.95 2.127 1.128 6.623 1.72 10.923 1.72 4.317 0 8.805-.593 10.94-1.72.519.31.808.63.808.95zm0-3.972c0 1.285-4.824 2.737-11.749 2.737-6.92 0-11.727-1.452-11.727-2.737 0-.32.272-.64.804-.95 2.127 1.116 6.623 1.721 10.923 1.721 4.317 0 8.805-.605 10.94-1.72.519.308.808.629.808.949zm0-3.978c0 1.3-4.824 2.742-11.749 2.742-6.92 0-11.727-1.443-11.727-2.742 0-.309.272-.63.804-.95 2.127 1.128 6.623 1.722 10.923 1.722 4.317 0 8.805-.593 10.94-1.722.519.309.808.63.808.95" fill-rule="evenodd" fill="#012c4f"/>
  </g>
</svg>
