<svg xmlns="http://www.w3.org/2000/svg" width="705" height="477" viewBox="0 0 186.531 126.206">
  <rect width="186.531" height="126.206" ry="10.958" fill="#ececec"/>
  <g transform="matrix(.45413 0 0 .45413 -336.427 -209.296)">
    <path d="M997.288 497.85l73.52 20.97c3.94 1.123 7.397 3.298 7.397 7.397v74.325c0 4.098-3.529 8.749-7.398 7.397l-90.052-31.454c3.568-22.807 4.504-27.517 8.33-50.268 3.793-1.552 4.262-29.491 8.203-28.367z" fill="#424347"/>
    <path d="M995.7 499.437l73.52 20.97c3.94 1.124 7.397 3.299 7.397 7.397v74.325c0 4.098-3.528 8.749-7.397 7.398l-90.053-31.454c3.569-22.808 4.504-27.517 8.33-50.269 3.793-1.551 4.263-29.49 8.204-28.367z" fill="#1a1a1a"/>
    <ellipse ry="48.189" rx="36.092" cy="564.438" cx="1038.742" fill="#424347"/>
    <path d="M1059.761 564.64l16.951-7.864-.22 18.146-16.731 8.267z" fill="#333"/>
    <path d="M1057.19 532.504l14.114-7.46c.829.742 1.764.865 1.815 3.63l-14.316 7.258zm.026 76.316l14.114-7.46c.828.742 1.763.866 1.815 3.63l-14.316 7.258z" fill="#666"/>
  </g>
  <path d="M112.524 18.352L42.469 51.518l1.812 45.436 37.378 13.531 63.363-36.81V30.275z" fill="#dee0df"/>
  <path d="M80.539 72.35l64.486-33.667v1.36l-64.55 33.99zm.129 2.403l64.358-33.668v1.36L80.603 76.437zm0 21.147l64.358-33.667v1.36l-64.423 33.99zm0 2.403l64.358-33.668v1.36L80.603 99.987z" fill="#b3b3b3"/>
  <path d="M42.47 51.518l70.053-33.166 32.499 11.922L80.377 63.42z" fill="#d0d2d2"/>
  <path d="M42.47 51.518L80.376 63.42l1.282 47.064L44.28 96.953z" fill="#b6b7b9"/>
  <path d="M44.528 53.54l31.533 10.748c1.51.515 2.826 1.285 2.88 2.88l1.295 38.007c.055 1.595-.648 3.993-2.135 3.414l-31.63-12.316c-1.488-.58-2.244-.9-2.363-2.492l-2.85-38.138c-.118-1.59 1.76-2.618 3.27-2.103z" fill="#333"/>
  <path d="M43.085 54.5L74.62 65.25c1.51.515 2.826 1.286 2.88 2.88l1.295 38.007c.055 1.595-.079 2.89-1.585 2.363l-32.18-11.266c-1.507-.527-2.293-.898-2.363-2.492l-1.684-38.395c-.07-1.595.593-2.36 2.104-1.845z" fill="#1a1a1a"/>
  <path d="M70.259 108.291l6.41-3.388c.375.337.8.393.823 1.648l-6.5 3.296z" fill="#666"/>
  <path d="M53.021 59.27a25.316 26.74 0 0 0-15.733 5.793v33.833h29.267v9.68a25.316 26.74 0 0 0 11.783-22.564 25.316 26.74 0 0 0-25.316-26.74z" fill="#424347"/>
  <path d="M69.297 70.563l6.41-3.388c.376.337.8.393.824 1.648L70.03 72.12z" fill="#666"/>
  <path d="M70.503 86.983l7.834-3.755.195 9.517-7.77 4.015z" fill="#333"/>
  <path d="M37.462 59.078l6.41-3.388c.376.337.8.393.824 1.648l-6.5 3.297z" fill="#666"/>
  <path d="M35.636 58.106L67.17 68.853c1.51.515 3.495 1.414 3.527 3.01l.777 38.395c.033 1.595-1.008 3.597-2.492 3.01l-31.403-12.43c-1.484-.587-2.293-.897-2.363-2.491L33.533 59.95c-.07-1.594.593-2.36 2.103-1.844z" fill="#333"/>
  <path d="M34.675 58.827l31.533 10.748c1.51.515 2.843 1.285 2.88 2.88l.907 38.266c.038 1.595-.887 2.842-2.362 2.233l-30.11-12.432c-1.474-.61-2.02-.122-2.103-1.714L33.478 60.8c-.08-1.594-.313-2.49 1.197-1.974z" fill="#1a1a1a"/>
  <g fill="none" stroke="#b3b3b3" stroke-width=".601">
    <path d="M37.935 68.206c6.378-4.21 13.47-5.402 23.957 8.029 8.876 14.496 7.378 23.303 1.165 29.523-8.86 5.754-16.403-.178-23.568-9.452-6.69-10.826-8.274-20.443-1.553-28.1z"/>
    <path d="M39.69 70.71c5.513-3.638 11.643-4.67 20.708 6.94 7.673 12.532 6.378 20.145 1.007 25.522-7.66 4.974-14.179-.154-20.372-8.17-5.784-9.36-7.152-17.673-1.343-24.29z"/>
    <path d="M41.377 73.12c4.681-3.09 9.887-3.965 17.585 5.894 6.516 10.64 5.415 17.105.855 21.671-6.504 4.224-12.04-.13-17.3-6.938-4.912-7.947-6.073-15.007-1.14-20.627z"/>
    <path d="M42.808 75.164c3.976-2.625 8.397-3.368 14.935 5.005 5.534 9.038 4.6 14.528.727 18.407-5.525 3.586-10.227-.111-14.693-5.893-4.172-6.75-5.159-12.746-.97-17.52z"/>
    <path d="M44.43 77.48c3.177-2.096 6.71-2.69 11.932 3.999 4.42 7.22 3.674 11.607.58 14.706-4.413 2.865-8.17-.09-11.738-4.71-3.333-5.391-4.12-10.181-.774-13.994z"/>
    <path d="M46.052 79.797c2.377-1.57 5.02-2.013 8.93 2.992 3.307 5.403 2.75 8.685.433 11.004-3.303 2.144-6.114-.067-8.784-3.523-2.494-4.035-3.084-7.62-.579-10.473z"/>
    <path d="M47.626 82.045c1.601-1.057 3.382-1.356 6.014 2.016 2.228 3.638 1.852 5.85.293 7.41-2.225 1.445-4.118-.044-5.916-2.372-1.68-2.718-2.077-5.132-.39-7.054z"/>
    <path d="M49.058 84.089c.895-.59 1.89-.758 3.363 1.127 1.247 2.036 1.036 3.272.164 4.146-1.244.808-2.303-.025-3.31-1.327-.939-1.52-1.16-2.87-.217-3.946z"/>
  </g>
  <path d="M35.144 63.055L48.327 83.94c1.123 2.054 2.558 2.347 4.37.518l12.594-10.683h-.032M65.855 110.562L52.672 89.678c-1.123-2.054-2.558-2.347-4.37-.518l-11.597 9.837" fill="none" stroke="#b3b3b3" stroke-width=".601"/>
  <g transform="rotate(-27.126 -602.038 592.663) scale(.45413)">
    <ellipse ry="3.73" rx="3.176" cy="957.423" cx="506.058" fill="#b3b3b3"/>
    <ellipse cx="505.429" cy="957.101" rx="2.108" ry="2.476" fill="#999"/>
  </g>
  <g transform="rotate(-27.126 -602.038 592.663) scale(.45413)">
    <ellipse cx="468.892" cy="1031.135" rx="3.176" ry="3.73" fill="#b3b3b3"/>
    <ellipse ry="2.476" rx="2.108" cy="1030.813" cx="468.264" fill="#999"/>
  </g>
  <g transform="rotate(-27.126 -602.038 592.663) scale(.45413)">
    <ellipse ry="2.843" rx="2.421" cy="978.803" cx="422.877" fill="#b3b3b3"/>
    <ellipse cx="422.399" cy="978.558" rx="1.607" ry="1.887" fill="#999"/>
  </g>
  <g transform="rotate(-27.126 -602.038 592.663) scale(.45413)">
    <ellipse cx="455.552" cy="904.573" rx="2.421" ry="2.843" fill="#b3b3b3"/>
    <ellipse ry="1.887" rx="1.607" cy="904.328" cx="455.073" fill="#999"/>
  </g>
  <path d="M44.281 43.473l33.668 10.62-.13 8.158-33.336-10.824z" fill="#b6b7b9" stroke="#b3b3b3" stroke-width=".12"/>
  <path d="M77.949 54.092l24.41-12.173-.26 7.446-24.28 12.885z" fill="#d0d2d2" stroke="#b3b3b3" stroke-width=".12"/>
  <path d="M76.715 35.983c7.903-17.901 6.788-24.553 29.395-13.336C86.512 6.078 73.875 10.536 76.715 35.984z" fill="#ffcc80"/>
  <path d="M101.407 20.708l15.75-7.875.09 8.332-15.657 8.15z" fill="#012c4f"/>
  <path d="M80.32 35.983c8.29-16.09 17.924-21.316 40.53-10.1-19.596-16.567-44.535-8.614-40.53 10.1z" fill="#ffcc80"/>
  <path d="M112.22 25.033l15.75-7.874.09 8.332-15.656 8.15z" fill="#012c4f"/>
  <path d="M82.352 39.2c12.306-14.537 27.247-22.483 49.853-11.267-19.598-16.568-49.457-4.6-49.854 11.266z" fill="#ffcc80"/>
  <path d="M123.035 29.359l15.75-7.875.09 8.333-15.657 8.149z" fill="#012c4f"/>
  <path d="M44.281 43.473l25.704-11.46 32.373 9.906-24.41 12.173z" fill="#dee0df" stroke="#b3b3b3" stroke-width=".12"/>
  <path d="M91.784 62.233h56.75v32.41h-56.75z" fill="#012c4f"/>
  <path d="M94.895 65.418h3.633v4.065h-3.633z" fill="#ffcc80"/>
  <path d="M94.895 65.603h3.633v.242h-3.633zm0 .322h3.633v.24h-3.633zm0 2.728h3.633v.24h-3.633zm0 .32h3.633v.242h-3.633z" fill="#372b20"/>
  <path d="M98.89 65.418h3.632v4.065H98.89z" fill="#ffcc80"/>
  <path d="M98.89 65.603h3.632v.242H98.89zm0 .322h3.632v.24H98.89zm0 2.728h3.632v.24H98.89zm0 .32h3.632v.242H98.89z" fill="#372b20"/>
  <path d="M102.885 65.418h3.632v4.065h-3.633z" fill="#ffcc80"/>
  <path d="M102.885 65.603h3.632v.242h-3.633zm0 .322h3.632v.24h-3.633zm0 2.728h3.632v.24h-3.633zm0 .32h3.632v.242h-3.633z" fill="#372b20"/>
  <path d="M106.879 65.418h3.632v4.065h-3.632z" fill="#ffcc80"/>
  <path d="M106.879 65.603h3.632v.242h-3.632zm0 .322h3.632v.24h-3.632zm0 2.728h3.632v.24h-3.632zm0 .32h3.632v.242h-3.632z" fill="#372b20"/>
  <path d="M110.873 65.418h3.633v4.065h-3.633z" fill="#ffcc80"/>
  <path d="M110.873 65.603h3.633v.242h-3.633zm0 .322h3.633v.24h-3.633zm0 2.728h3.633v.24h-3.633zm0 .32h3.633v.242h-3.633z" fill="#372b20"/>
  <path d="M114.868 65.418h3.632v4.065h-3.632z" fill="#ffcc80"/>
  <path d="M114.868 65.603h3.632v.242h-3.632zm0 .322h3.632v.24h-3.632zm0 2.728h3.632v.24h-3.632zm0 .32h3.632v.242h-3.632z" fill="#372b20"/>
  <path d="M118.862 65.418h3.633v4.065h-3.633z" fill="#ffcc80"/>
  <path d="M118.862 65.603h3.633v.242h-3.633zm0 .322h3.633v.24h-3.633zm0 2.728h3.633v.24h-3.633zm0 .32h3.633v.242h-3.633z" fill="#372b20"/>
  <path d="M122.857 65.418h3.632v4.065h-3.632z" fill="#ffcc80"/>
  <path d="M122.857 65.603h3.632v.242h-3.632zm0 .322h3.632v.24h-3.632zm0 2.728h3.632v.24h-3.632zm0 .32h3.632v.242h-3.632z" fill="#372b20"/>
  <path d="M126.85 65.418h3.634v4.065h-3.633z" fill="#ffcc80"/>
  <path d="M126.85 65.603h3.634v.242h-3.633zm0 .322h3.634v.24h-3.633zm0 2.728h3.634v.24h-3.633zm0 .32h3.634v.242h-3.633z" fill="#372b20"/>
  <path d="M130.845 65.418h3.633v4.065h-3.632z" fill="#ffcc80"/>
  <path d="M130.845 65.603h3.633v.242h-3.632zm0 .322h3.633v.24h-3.632zm0 2.728h3.633v.24h-3.632zm0 .32h3.633v.242h-3.632z" fill="#372b20"/>
  <path d="M102.885 69.847h3.632v4.065h-3.633z" fill="#ffcc80"/>
  <path d="M102.885 70.033h3.632v.24h-3.633zm0 .32h3.632v.242h-3.633zm0 2.73h3.632v.24h-3.633zm0 .32h3.632v.242h-3.633z" fill="#372b20"/>
  <path d="M106.879 69.847h3.632v4.065h-3.632z" fill="#ffcc80"/>
  <path d="M106.879 70.033h3.632v.24h-3.632zm0 .32h3.632v.242h-3.632zm0 2.73h3.632v.24h-3.632zm0 .32h3.632v.242h-3.632z" fill="#372b20"/>
  <path d="M110.873 69.847h3.633v4.065h-3.633z" fill="#ffcc80"/>
  <path d="M110.873 70.033h3.633v.24h-3.633zm0 .32h3.633v.242h-3.633zm0 2.73h3.633v.24h-3.633zm0 .32h3.633v.242h-3.633z" fill="#372b20"/>
  <path d="M114.868 69.847h3.632v4.065h-3.632z" fill="#ffcc80"/>
  <path d="M114.868 70.033h3.632v.24h-3.632zm0 .32h3.632v.242h-3.632zm0 2.73h3.632v.24h-3.632zm0 .32h3.632v.242h-3.632z" fill="#372b20"/>
  <path d="M118.862 69.847h3.633v4.065h-3.633z" fill="#ffcc80"/>
  <path d="M118.862 70.033h3.633v.24h-3.633zm0 .32h3.633v.242h-3.633zm0 2.73h3.633v.24h-3.633zm0 .32h3.633v.242h-3.633z" fill="#372b20"/>
  <path d="M122.857 69.847h3.632v4.065h-3.632z" fill="#ffcc80"/>
  <path d="M122.857 70.033h3.632v.24h-3.632zm0 .32h3.632v.242h-3.632zm0 2.73h3.632v.24h-3.632zm0 .32h3.632v.242h-3.632z" fill="#372b20"/>
  <path d="M126.85 69.847h3.634v4.065h-3.633z" fill="#ffcc80"/>
  <path d="M126.85 70.033h3.634v.24h-3.633zm0 .32h3.634v.242h-3.633zm0 2.73h3.634v.24h-3.633zm0 .32h3.634v.242h-3.633z" fill="#372b20"/>
  <path d="M130.845 69.847h3.633v4.065h-3.632z" fill="#ffcc80"/>
  <path d="M130.845 70.033h3.633v.24h-3.632zm0 .32h3.633v.242h-3.632zm0 2.73h3.633v.24h-3.632zm0 .32h3.633v.242h-3.632z" fill="#372b20"/>
  <path d="M110.873 74.277h3.633v4.065h-3.633z" fill="#ffcc80"/>
  <path d="M110.873 74.463h3.633v.24h-3.633zm0 .32h3.633v.242h-3.633zm0 2.73h3.633v.24h-3.633zm0 .32h3.633v.24h-3.633z" fill="#372b20"/>
  <path d="M114.868 74.277h3.632v4.065h-3.632z" fill="#ffcc80"/>
  <path d="M114.868 74.463h3.632v.24h-3.632zm0 .32h3.632v.242h-3.632zm0 2.73h3.632v.24h-3.632zm0 .32h3.632v.24h-3.632z" fill="#372b20"/>
  <path d="M118.862 74.277h3.633v4.065h-3.633z" fill="#ffcc80"/>
  <path d="M118.862 74.463h3.633v.24h-3.633zm0 .32h3.633v.242h-3.633zm0 2.73h3.633v.24h-3.633zm0 .32h3.633v.24h-3.633z" fill="#372b20"/>
  <path d="M122.857 74.277h3.632v4.065h-3.632z" fill="#ffcc80"/>
  <path d="M122.857 74.463h3.632v.24h-3.632zm0 .32h3.632v.242h-3.632zm0 2.73h3.632v.24h-3.632zm0 .32h3.632v.24h-3.632z" fill="#372b20"/>
  <path d="M126.85 74.277h3.634v4.065h-3.633z" fill="#ffcc80"/>
  <path d="M126.85 74.463h3.634v.24h-3.633zm0 .32h3.634v.242h-3.633zm0 2.73h3.634v.24h-3.633zm0 .32h3.634v.24h-3.633z" fill="#372b20"/>
  <path d="M130.845 74.277h3.633v4.065h-3.632z" fill="#ffcc80"/>
  <path d="M130.845 74.463h3.633v.24h-3.632zm0 .32h3.633v.242h-3.632zm0 2.73h3.633v.24h-3.632zm0 .32h3.633v.24h-3.632z" fill="#372b20"/>
  <path d="M110.873 78.707h3.633v4.064h-3.633z" fill="#ffcc80"/>
  <path d="M110.873 78.893h3.633v.24h-3.633zm0 .32h3.633v.24h-3.633zm0 2.729h3.633v.24h-3.633zm0 .32h3.633v.24h-3.633z" fill="#372b20"/>
  <path d="M114.868 78.707h3.632v4.064h-3.632z" fill="#ffcc80"/>
  <path d="M114.868 78.893h3.632v.24h-3.632zm0 .32h3.632v.24h-3.632zm0 2.729h3.632v.24h-3.632zm0 .32h3.632v.24h-3.632z" fill="#372b20"/>
  <path d="M118.862 78.707h3.633v4.064h-3.633z" fill="#ffcc80"/>
  <path d="M118.862 78.893h3.633v.24h-3.633zm0 .32h3.633v.24h-3.633zm0 2.729h3.633v.24h-3.633zm0 .32h3.633v.24h-3.633z" fill="#372b20"/>
  <path d="M122.857 78.707h3.632v4.064h-3.632z" fill="#ffcc80"/>
  <path d="M122.857 78.893h3.632v.24h-3.632zm0 .32h3.632v.24h-3.632zm0 2.729h3.632v.24h-3.632zm0 .32h3.632v.24h-3.632z" fill="#372b20"/>
  <path d="M126.85 78.707h3.634v4.064h-3.633z" fill="#ffcc80"/>
  <path d="M126.85 78.893h3.634v.24h-3.633zm0 .32h3.634v.24h-3.633zm0 2.729h3.634v.24h-3.633zm0 .32h3.634v.24h-3.633z" fill="#372b20"/>
  <path d="M130.845 78.707h3.633v4.064h-3.632z" fill="#ffcc80"/>
  <path d="M130.845 78.893h3.633v.24h-3.632zm0 .32h3.633v.24h-3.632zm0 2.729h3.633v.24h-3.632zm0 .32h3.633v.24h-3.632z" fill="#372b20"/>
  <path d="M102.885 83.136h3.632V87.2h-3.633z" fill="#ffcc80"/>
  <path d="M102.885 83.323h3.632v.24h-3.633zm0 .32h3.632v.24h-3.633zm0 2.728h3.632v.24h-3.633zm0 .322h3.632v.24h-3.633z" fill="#372b20"/>
  <path d="M106.879 83.136h3.632V87.2h-3.632z" fill="#ffcc80"/>
  <path d="M106.879 83.323h3.632v.24h-3.632zm0 .32h3.632v.24h-3.632zm0 2.728h3.632v.24h-3.632zm0 .322h3.632v.24h-3.632z" fill="#372b20"/>
  <path d="M110.873 83.136h3.633V87.2h-3.633z" fill="#ffcc80"/>
  <path d="M110.873 83.323h3.633v.24h-3.633zm0 .32h3.633v.24h-3.633zm0 2.728h3.633v.24h-3.633zm0 .322h3.633v.24h-3.633z" fill="#372b20"/>
  <g>
    <path d="M114.868 83.136h3.632V87.2h-3.632z" fill="#ffcc80"/>
    <path d="M114.868 83.323h3.632v.24h-3.632zm0 .32h3.632v.24h-3.632zm0 2.728h3.632v.24h-3.632zm0 .322h3.632v.24h-3.632z" fill="#372b20"/>
  </g>
  <g>
    <path d="M118.862 83.136h3.633V87.2h-3.633z" fill="#ffcc80"/>
    <path d="M118.862 83.323h3.633v.24h-3.633zm0 .32h3.633v.24h-3.633zm0 2.728h3.633v.24h-3.633zm0 .322h3.633v.24h-3.633z" fill="#372b20"/>
  </g>
  <g>
    <path d="M122.857 83.136h3.632V87.2h-3.632z" fill="#ffcc80"/>
    <path d="M122.857 83.323h3.632v.24h-3.632zm0 .32h3.632v.24h-3.632zm0 2.728h3.632v.24h-3.632zm0 .322h3.632v.24h-3.632z" fill="#372b20"/>
  </g>
  <g>
    <path d="M126.85 83.136h3.634V87.2h-3.633z" fill="#ffcc80"/>
    <path d="M126.85 83.323h3.634v.24h-3.633zm0 .32h3.634v.24h-3.633zm0 2.728h3.634v.24h-3.633zm0 .322h3.634v.24h-3.633z" fill="#372b20"/>
  </g>
  <g>
    <path d="M130.845 83.136h3.633V87.2h-3.632z" fill="#ffcc80"/>
    <path d="M130.845 83.323h3.633v.24h-3.632zm0 .32h3.633v.24h-3.632zm0 2.728h3.633v.24h-3.632zm0 .322h3.633v.24h-3.632z" fill="#372b20"/>
  </g>
  <g>
    <path d="M94.895 87.566h3.633v4.065h-3.633z" fill="#ffcc80"/>
    <path d="M94.895 87.752h3.633v.24h-3.633zm0 .32h3.633v.24h-3.633zm0 2.729h3.633v.24h-3.633zm0 .322h3.633v.24h-3.633z" fill="#372b20"/>
  </g>
  <g>
    <path d="M98.89 87.566h3.632v4.065H98.89z" fill="#ffcc80"/>
    <path d="M98.89 87.752h3.632v.24H98.89zm0 .32h3.632v.24H98.89zm0 2.729h3.632v.24H98.89zm0 .322h3.632v.24H98.89z" fill="#372b20"/>
  </g>
  <g>
    <path d="M102.885 87.566h3.632v4.065h-3.633z" fill="#ffcc80"/>
    <path d="M102.885 87.752h3.632v.24h-3.633zm0 .32h3.632v.24h-3.633zm0 2.729h3.632v.24h-3.633zm0 .322h3.632v.24h-3.633z" fill="#372b20"/>
  </g>
  <g>
    <path d="M106.879 87.566h3.632v4.065h-3.632z" fill="#ffcc80"/>
    <path d="M106.879 87.752h3.632v.24h-3.632zm0 .32h3.632v.24h-3.632zm0 2.729h3.632v.24h-3.632zm0 .322h3.632v.24h-3.632z" fill="#372b20"/>
  </g>
  <g>
    <path d="M110.873 87.566h3.633v4.065h-3.633z" fill="#ffcc80"/>
    <path d="M110.873 87.752h3.633v.24h-3.633zm0 .32h3.633v.24h-3.633zm0 2.729h3.633v.24h-3.633zm0 .322h3.633v.24h-3.633z" fill="#372b20"/>
  </g>
  <g>
    <path d="M114.868 87.566h3.632v4.065h-3.632z" fill="#ffcc80"/>
    <path d="M114.868 87.752h3.632v.24h-3.632zm0 .32h3.632v.24h-3.632zm0 2.729h3.632v.24h-3.632zm0 .322h3.632v.24h-3.632z" fill="#372b20"/>
  </g>
  <g>
    <path d="M118.862 87.566h3.633v4.065h-3.633z" fill="#ffcc80"/>
    <path d="M118.862 87.752h3.633v.24h-3.633zm0 .32h3.633v.24h-3.633zm0 2.729h3.633v.24h-3.633zm0 .322h3.633v.24h-3.633z" fill="#372b20"/>
  </g>
  <g>
    <path d="M122.857 87.566h3.632v4.065h-3.632z" fill="#ffcc80"/>
    <path d="M122.857 87.752h3.632v.24h-3.632zm0 .32h3.632v.24h-3.632zm0 2.729h3.632v.24h-3.632zm0 .322h3.632v.24h-3.632z" fill="#372b20"/>
  </g>
  <g>
    <path d="M126.85 87.566h3.634v4.065h-3.633z" fill="#ffcc80"/>
    <path d="M126.85 87.752h3.634v.24h-3.633zm0 .32h3.634v.24h-3.633zm0 2.729h3.634v.24h-3.633zm0 .322h3.634v.24h-3.633z" fill="#372b20"/>
  </g>
  <g>
    <path d="M130.845 87.566h3.633v4.065h-3.632z" fill="#ffcc80"/>
    <path d="M130.845 87.752h3.633v.24h-3.632zm0 .32h3.633v.24h-3.632zm0 2.729h3.633v.24h-3.632zm0 .322h3.633v.24h-3.632z" fill="#372b20"/>
  </g>
  <path d="M95.09 71.085h3.242v1.59h-3.24zm3.995 0h3.242v1.59h-3.242zM95.09 84.373h3.24v1.59h-3.24zm3.994 0h3.242v1.59h-3.242z" fill="#fce68d"/>
  <g fill="#fce68d">
    <path d="M95.09 75.514h3.242v1.59h-3.24zm3.995 0h3.242v1.59h-3.242zm3.995 0h3.24v1.59h-3.24zm3.995 0h3.24v1.59h-3.24z"/>
  </g>
  <g fill="#fce68d">
    <path d="M95.09 79.944h3.242v1.59h-3.24zm3.995 0h3.242v1.59h-3.242zm3.995 0h3.24v1.59h-3.24zm3.995 0h3.24v1.59h-3.24z"/>
  </g>
  <path d="M138.018 69.829h5.707v15.393h-5.707z" fill="#fadd60"/>
  <g transform="matrix(.3033 0 0 .3033 -324.632 -131.07)" fill="#4fc3f7">
    <circle cx="1524.249" cy="651.7" r="4.42"/>
    <circle r="4.42" cy="651.7" cx="1534.832"/>
    <circle cx="1545.416" cy="651.7" r="4.42"/>
  </g>
</svg>
