<svg xmlns="http://www.w3.org/2000/svg" width="372.452" height="380" viewBox="0 0 98.545 100.542">
  <g transform="matrix(.71625 0 0 .71625 -423.68 -99.651)">
    <path d="M671.375 277.705H638.63l3.94-19.246h24.865z" fill="#b3b3b3"/>
    <path d="M718.48 249.734v-65.63a2.87 2.87 0 0 0-2.869-2.87h-121.22a2.87 2.87 0 0 0-2.869 2.87v65.63z" fill="#141417"/>
    <path d="M591.523 248.297v13.272a2.87 2.87 0 0 0 2.868 2.868h121.22a2.87 2.87 0 0 0 2.87-2.868v-13.272z" fill="#ccc"/>
    <path d="M595.592 185.596h118.82v59.236h-118.82z" fill="#e8eaf6"/>
    <path d="M656.793 256.367a1.793 1.793 0 1 1-3.585 0 1.793 1.793 0 0 1 3.585 0" fill="#141417"/>
    <path d="M674.307 276.152h-38.613v3.347h38.613z" fill="#ccc"/>
    <path d="M677.217 212.731c-.07-.628-.803-1.1-1.437-1.1-2.049 0-3.867-1.203-4.63-3.064a4.98 4.98 0 0 1 1.251-5.528c.48-.44.54-1.175.136-1.686a22.122 22.122 0 0 0-3.542-3.577 1.244 1.244 0 0 0-1.699.137c-1.332 1.476-3.726 2.025-5.576 1.253a4.966 4.966 0 0 1-3.02-4.854 1.24 1.24 0 0 0-1.097-1.306 22.32 22.32 0 0 0-5.03-.013 1.244 1.244 0 0 0-1.106 1.28c.073 2.072-1.156 3.989-3.061 4.77-1.828.746-4.205.202-5.535-1.26a1.247 1.247 0 0 0-1.687-.143 22.206 22.206 0 0 0-3.617 3.576 1.244 1.244 0 0 0 .134 1.7 4.954 4.954 0 0 1 1.25 5.577c-.772 1.838-2.68 3.022-4.865 3.022-.708-.023-1.213.453-1.29 1.098a22.396 22.396 0 0 0-.01 5.084c.07.631.825 1.1 1.465 1.1 1.947-.05 3.816 1.155 4.6 3.063.782 1.905.28 4.126-1.25 5.528a1.243 1.243 0 0 0-.136 1.685 22.203 22.203 0 0 0 3.537 3.578 1.243 1.243 0 0 0 1.702-.135c1.337-1.48 3.73-2.027 5.573-1.254a4.958 4.958 0 0 1 3.025 4.853 1.242 1.242 0 0 0 1.097 1.306 22.222 22.222 0 0 0 5.03.013 1.244 1.244 0 0 0 1.106-1.28c-.075-2.072 1.156-3.988 3.06-4.768 1.839-.751 4.206-.201 5.536 1.26a1.25 1.25 0 0 0 1.687.141 22.257 22.257 0 0 0 3.617-3.576 1.241 1.241 0 0 0-.134-1.699 4.954 4.954 0 0 1-1.252-5.577c.76-1.813 2.597-3.03 4.573-3.03l.277.007c.64.052 1.23-.442 1.308-1.096.197-1.681.2-3.391.01-5.085zm-22.18 9.987c-4.112 0-7.457-3.345-7.457-7.457s3.345-7.457 7.457-7.457 7.457 3.345 7.457 7.457-3.345 7.457-7.457 7.457z" clip-rule="evenodd" fill-rule="evenodd" fill="#012c4f"/>
    <path d="M724.731 273.558h-32.164v-43.63h32.164z" fill="#e8eaf6"/>
    <path d="M724.928 273.558H692.55v-43.57h32.38zm4.178-46.07a2.126 2.126 0 0 0-2.126-2.125h-36.333a2.126 2.126 0 0 0-2.126 2.126v48.419c0 1.175.951 2.126 2.126 2.126h36.333a2.126 2.126 0 0 0 2.126-2.126z" fill="#141417"/>
    <path d="M718.48 250.644c-.031-.278-.356-.487-.636-.487a2.198 2.198 0 0 1-2.049-1.355 2.204 2.204 0 0 1 .554-2.447.55.55 0 0 0 .06-.746 9.79 9.79 0 0 0-1.567-1.583.55.55 0 0 0-.752.061c-.59.653-1.65.896-2.468.554a2.198 2.198 0 0 1-1.336-2.147.549.549 0 0 0-.486-.578 9.877 9.877 0 0 0-2.225-.006.55.55 0 0 0-.49.566 2.201 2.201 0 0 1-1.355 2.11c-.808.331-1.86.09-2.449-.557a.552.552 0 0 0-.746-.063 9.826 9.826 0 0 0-1.6 1.583.55.55 0 0 0 .058.752c.689.623.911 1.615.553 2.468-.341.813-1.185 1.337-2.152 1.337a.538.538 0 0 0-.572.486 9.91 9.91 0 0 0-.004 2.25c.031.28.365.486.649.486.861-.022 1.688.512 2.035 1.356a2.2 2.2 0 0 1-.553 2.446.55.55 0 0 0-.06.746c.46.585.987 1.118 1.565 1.583a.55.55 0 0 0 .753-.06c.592-.654 1.651-.897 2.466-.554a2.194 2.194 0 0 1 1.339 2.147.55.55 0 0 0 .485.578 9.833 9.833 0 0 0 2.226.006.55.55 0 0 0 .49-.567 2.199 2.199 0 0 1 1.353-2.11c.815-.332 1.862-.089 2.45.558a.553.553 0 0 0 .747.062 9.85 9.85 0 0 0 1.6-1.582.55.55 0 0 0-.058-.752 2.192 2.192 0 0 1-.555-2.468 2.215 2.215 0 0 1 2.024-1.34l.122.002a.55.55 0 0 0 .58-.485c.087-.744.088-1.5.004-2.25zm-9.815 4.42c-1.82 0-3.3-1.48-3.3-3.3 0-1.82 1.48-3.3 3.3-3.3 1.82 0 3.3 1.48 3.3 3.3 0 1.82-1.48 3.3-3.3 3.3z" clip-rule="evenodd" fill-rule="evenodd" fill="#012c4f"/>
    <path d="M622.976 272.761H608.17v-26.366h14.806zm-5.68-28.382a.393.393 0 0 1-.392.393h-2.662a.393.393 0 0 1-.393-.393v-.025c0-.217.176-.393.393-.393h2.662c.217 0 .393.176.393.393zm6.897-.773a2.484 2.484 0 0 0-2.485-2.484h-12.473a2.485 2.485 0 0 0-2.485 2.484v31.944a2.485 2.485 0 0 0 2.485 2.484h12.473a2.484 2.484 0 0 0 2.485-2.484z" fill="#141417"/>
    <path d="M622.976 272.761h-14.802v-26.366h14.802z" fill="#e8eaf6"/>
    <path d="M620.812 258.993c-.017-.148-.19-.26-.34-.26a1.17 1.17 0 0 1-1.09-.722 1.174 1.174 0 0 1 .294-1.303.293.293 0 0 0 .032-.397 5.214 5.214 0 0 0-.834-.843.293.293 0 0 0-.4.032 1.215 1.215 0 0 1-1.315.296 1.17 1.17 0 0 1-.712-1.145.292.292 0 0 0-.259-.307 5.261 5.261 0 0 0-1.185-.004.293.293 0 0 0-.26.302c.016.489-.273.94-.722 1.124-.431.176-.991.048-1.305-.297a.294.294 0 0 0-.398-.033 5.234 5.234 0 0 0-.852.843.293.293 0 0 0 .031.4c.367.332.486.86.295 1.315-.182.433-.632.712-1.147.712a.286.286 0 0 0-.304.259c-.046.396-.047.8-.002 1.198.016.15.194.26.345.26.46-.012.9.272 1.085.722.184.449.065.972-.295 1.303a.293.293 0 0 0-.032.397c.245.312.526.595.833.843.121.098.297.084.402-.032.315-.348.879-.477 1.313-.295.455.19.741.65.713 1.144-.009.155.105.29.259.308a5.238 5.238 0 0 0 1.185.003.293.293 0 0 0 .261-.302c-.017-.488.273-.94.721-1.124a1.216 1.216 0 0 1 1.305.297.294.294 0 0 0 .398.033c.315-.247.602-.53.852-.843a.293.293 0 0 0-.031-.4 1.168 1.168 0 0 1-.295-1.315 1.18 1.18 0 0 1 1.078-.714l.065.002a.293.293 0 0 0 .308-.259c.047-.396.047-.799.003-1.198zm-5.228 2.354a1.76 1.76 0 0 1-1.758-1.758c0-.969.788-1.757 1.758-1.757.969 0 1.757.788 1.757 1.757a1.76 1.76 0 0 1-1.757 1.758z" clip-rule="evenodd" fill-rule="evenodd" fill="#012c4f"/>
    <g fill="#012c4f">
      <path d="M708.863 165.676l-4.14 4.04 8.18.1z" fill-rule="evenodd"/>
      <g transform="matrix(.92277 0 0 .92277 29.918 533.223)">
        <circle r="1.035" cy="-390.81" cx="735.714"/>
        <circle cx="735.714" cy="-386.577" r="1.035"/>
        <circle r="1.035" cy="-382.343" cx="735.714"/>
        <circle cx="735.714" cy="-378.11" r="1.035"/>
        <circle r="1.035" cy="-373.877" cx="735.714"/>
        <circle cx="735.714" cy="-369.644" r="1.035"/>
        <circle r="1.035" cy="-365.41" cx="735.714"/>
        <circle cx="735.714" cy="-361.177" r="1.035"/>
        <circle r="1.035" cy="-356.944" cx="735.714"/>
        <circle cx="735.714" cy="-352.71" r="1.035"/>
        <circle r="1.035" cy="-348.477" cx="735.714"/>
        <circle cx="735.714" cy="-344.244" r="1.035"/>
        <circle r="1.035" cy="-340.01" cx="735.714"/>
        <circle cx="735.714" cy="-335.777" r="1.035"/>
        <circle r="1.035" cy="-331.544" cx="735.714"/>
        <circle cx="735.714" cy="-327.31" r="1.035"/>
        <circle r="1.035" cy="-323.077" cx="735.714"/>
        <circle cx="735.714" cy="-318.844" r="1.035"/>
      </g>
    </g>
    <g transform="matrix(.92277 0 0 .92277 38.79 533.223)" fill="#012c4f">
      <path d="M625-398.309l-4.487 4.378 8.866.11z" fill-rule="evenodd"/>
      <circle r="1.035" cy="-390.81" cx="624.946"/>
      <circle cx="624.946" cy="-386.577" r="1.035"/>
      <circle r="1.035" cy="-382.343" cx="624.946"/>
      <circle cx="624.946" cy="-378.11" r="1.035"/>
      <circle r="1.035" cy="-373.877" cx="624.946"/>
      <circle cx="624.946" cy="-369.644" r="1.035"/>
      <circle r="1.035" cy="-365.41" cx="624.946"/>
      <circle cx="624.946" cy="-361.177" r="1.035"/>
      <circle r="1.035" cy="-356.944" cx="624.946"/>
      <circle cx="624.946" cy="-352.71" r="1.035"/>
      <circle r="1.035" cy="-348.477" cx="624.946"/>
      <circle cx="624.946" cy="-344.244" r="1.035"/>
      <circle r="1.035" cy="-340.01" cx="624.946"/>
      <circle cx="624.946" cy="-335.777" r="1.035"/>
      <circle r="1.035" cy="-331.544" cx="624.946"/>
      <circle cx="624.946" cy="-327.31" r="1.035"/>
      <circle r="1.035" cy="-323.077" cx="624.946"/>
      <circle cx="624.946" cy="-318.844" r="1.035"/>
      <circle r="1.035" cy="-314.611" cx="624.946"/>
      <circle cx="624.946" cy="-310.377" r="1.035"/>
      <circle r="1.035" cy="-306.144" cx="624.946"/>
    </g>
    <g transform="matrix(.92277 0 0 .92277 58.788 533.223)" fill="#012c4f">
      <path d="M646.167-398.309l-4.487 4.378 8.866.11z" fill-rule="evenodd"/>
      <circle cx="646.113" cy="-390.81" r="1.035"/>
      <circle r="1.035" cy="-386.577" cx="646.113"/>
      <circle cx="646.113" cy="-382.343" r="1.035"/>
      <circle r="1.035" cy="-378.11" cx="646.113"/>
      <circle cx="646.113" cy="-373.877" r="1.035"/>
    </g>
    <rect ry="3.081" y="139.128" x="618.032" height="20.386" width="84.563" fill="#012c4f"/>
    <text style="line-height:1.25;-inkscape-font-specification:bosun" x="621.38" y="155.948" font-weight="400" font-size="18.773" font-family="bosun" letter-spacing="0" word-spacing="0" fill="#fff" stroke-width=".792">
      <tspan x="621.38" y="155.948" style="-inkscape-font-specification:bosun">webchain</tspan>
    </text>
  </g>
</svg>
