<svg xmlns="http://www.w3.org/2000/svg" width="705" height="477" viewBox="0 0 186.531 126.206">
  <rect ry="10.958" height="126.206" width="186.531" fill="#ececec"/>
  <path d="M101.184 112.088H77.731l2.822-13.785h17.81z" fill="#b3b3b3"/>
  <path d="M134.923 92.054V45.046a2.056 2.056 0 0 0-2.055-2.055H46.045a2.056 2.056 0 0 0-2.055 2.055v47.008z" fill="#141417"/>
  <path d="M43.99 91.025v9.506a2.056 2.056 0 0 0 2.055 2.054h86.823a2.056 2.056 0 0 0 2.056-2.054v-9.506z" fill="#ccc"/>
  <path d="M46.905 46.115h85.105v42.428H46.905z" fill="#e8eaf6"/>
  <path d="M90.74 96.805a1.284 1.284 0 1 1-2.568 0 1.284 1.284 0 0 1 2.568 0" fill="#141417"/>
  <path d="M103.284 110.976H75.628v2.397h27.656z" fill="#ccc"/>
  <path d="M105.369 65.55c-.05-.45-.575-.787-1.03-.787-1.467 0-2.77-.862-3.316-2.195a3.567 3.567 0 0 1 .896-3.96.89.89 0 0 0 .098-1.207 15.845 15.845 0 0 0-2.537-2.562.891.891 0 0 0-1.217.098c-.954 1.057-2.669 1.45-3.994.898a3.557 3.557 0 0 1-2.163-3.477.888.888 0 0 0-.786-.935 15.987 15.987 0 0 0-3.603-.01.891.891 0 0 0-.792.917 3.564 3.564 0 0 1-2.192 3.417c-1.31.534-3.012.144-3.965-.903a.893.893 0 0 0-1.208-.102 15.905 15.905 0 0 0-2.59 2.561.891.891 0 0 0 .095 1.218 3.548 3.548 0 0 1 .896 3.994c-.553 1.317-1.92 2.165-3.485 2.165a.87.87 0 0 0-.924.786 16.041 16.041 0 0 0-.007 3.641c.05.452.59.788 1.05.788 1.394-.035 2.732.828 3.294 2.194.56 1.365.2 2.955-.895 3.96a.89.89 0 0 0-.098 1.207 15.903 15.903 0 0 0 2.534 2.562.89.89 0 0 0 1.219-.096c.957-1.06 2.671-1.452 3.991-.899a3.551 3.551 0 0 1 2.167 3.476.89.89 0 0 0 .786.936 15.917 15.917 0 0 0 3.602.01.891.891 0 0 0 .793-.918 3.56 3.56 0 0 1 2.191-3.415c1.318-.538 3.013-.144 3.966.903a.895.895 0 0 0 1.208.1 15.942 15.942 0 0 0 2.59-2.56.889.889 0 0 0-.095-1.218 3.548 3.548 0 0 1-.897-3.994 3.584 3.584 0 0 1 3.275-2.17l.199.005c.458.037.88-.317.936-.785.142-1.204.144-2.43.007-3.642zm-15.887 7.154a5.347 5.347 0 0 1-5.34-5.341 5.347 5.347 0 0 1 5.34-5.341 5.347 5.347 0 0 1 5.341 5.34 5.347 5.347 0 0 1-5.34 5.342z" clip-rule="evenodd" fill="#012c4f" fill-rule="evenodd"/>
  <path d="M139.4 109.118h-23.037v-31.25h23.038z" fill="#e8eaf6"/>
  <path d="M139.542 109.118H116.35V77.91h23.192zm2.992-32.998a1.523 1.523 0 0 0-1.523-1.522h-26.023a1.523 1.523 0 0 0-1.523 1.523v34.68c0 .842.681 1.523 1.523 1.523h26.023a1.523 1.523 0 0 0 1.523-1.523z" fill="#141417"/>
  <path d="M134.923 92.706c-.022-.2-.255-.349-.455-.349a1.574 1.574 0 0 1-1.468-.97 1.579 1.579 0 0 1 .397-1.753.394.394 0 0 0 .043-.535 7.012 7.012 0 0 0-1.122-1.133.394.394 0 0 0-.539.043c-.423.468-1.182.642-1.768.397a1.574 1.574 0 0 1-.957-1.538.393.393 0 0 0-.348-.414 7.074 7.074 0 0 0-1.593-.004.394.394 0 0 0-.351.405 1.576 1.576 0 0 1-.97 1.512c-.58.237-1.333.064-1.755-.4a.395.395 0 0 0-.534-.044 7.038 7.038 0 0 0-1.146 1.133.394.394 0 0 0 .041.54 1.569 1.569 0 0 1 .396 1.767c-.244.582-.848.957-1.541.957a.385.385 0 0 0-.41.349 7.098 7.098 0 0 0-.003 1.611c.023.2.262.348.465.348a1.554 1.554 0 0 1 1.458.971 1.576 1.576 0 0 1-.396 1.752.394.394 0 0 0-.043.535c.33.419.707.8 1.12 1.134a.394.394 0 0 0 .54-.043c.424-.469 1.182-.643 1.766-.397a1.571 1.571 0 0 1 .96 1.538.394.394 0 0 0 .347.414 7.043 7.043 0 0 0 1.594.004.394.394 0 0 0 .351-.407 1.575 1.575 0 0 1 .97-1.51c.583-.239 1.333-.065 1.754.399a.396.396 0 0 0 .535.044 7.055 7.055 0 0 0 1.146-1.133.394.394 0 0 0-.042-.539 1.57 1.57 0 0 1-.397-1.767 1.586 1.586 0 0 1 1.45-.96l.087.001a.394.394 0 0 0 .415-.347 7.09 7.09 0 0 0 .003-1.612zm-7.03 3.166a2.366 2.366 0 0 1-2.363-2.364 2.366 2.366 0 0 1 2.363-2.364 2.366 2.366 0 0 1 2.364 2.364 2.366 2.366 0 0 1-2.364 2.364z" clip-rule="evenodd" fill="#012c4f" fill-rule="evenodd"/>
  <path d="M66.519 108.547H55.914V89.662h10.605zM62.45 88.218a.281.281 0 0 1-.28.282h-1.907a.281.281 0 0 1-.282-.282v-.017c0-.156.126-.282.282-.282h1.906c.156 0 .282.126.282.282zm4.94-.553a1.78 1.78 0 0 0-1.78-1.78h-8.933a1.78 1.78 0 0 0-1.78 1.78v22.88a1.78 1.78 0 0 0 1.78 1.779h8.933a1.78 1.78 0 0 0 1.78-1.78z" fill="#141417"/>
  <path d="M66.519 108.547H55.917V89.662h10.602z" fill="#e8eaf6"/>
  <path d="M64.969 98.686c-.013-.106-.136-.186-.244-.186a.838.838 0 0 1-.78-.518.84.84 0 0 1 .21-.933.21.21 0 0 0 .023-.284 3.735 3.735 0 0 0-.597-.604.21.21 0 0 0-.287.023.87.87 0 0 1-.942.212.838.838 0 0 1-.51-.82.21.21 0 0 0-.185-.22 3.768 3.768 0 0 0-.85-.003.21.21 0 0 0-.185.216.84.84 0 0 1-.517.805.872.872 0 0 1-.935-.212.21.21 0 0 0-.285-.024 3.749 3.749 0 0 0-.61.604.21.21 0 0 0 .022.286.836.836 0 0 1 .211.942c-.13.31-.453.51-.822.51a.205.205 0 0 0-.217.186 3.776 3.776 0 0 0-.002.858c.012.107.14.186.247.186a.827.827 0 0 1 .778.517.84.84 0 0 1-.212.933.21.21 0 0 0-.023.285c.176.223.377.426.597.603a.21.21 0 0 0 .288-.022.869.869 0 0 1 .94-.212c.326.136.531.466.511.82a.21.21 0 0 0 .186.22 3.752 3.752 0 0 0 .848.002.21.21 0 0 0 .187-.216.841.841 0 0 1 .517-.805.871.871 0 0 1 .934.213.21.21 0 0 0 .285.023c.226-.177.432-.38.61-.604a.21.21 0 0 0-.022-.286.837.837 0 0 1-.21-.942.845.845 0 0 1 .771-.511l.047.001a.21.21 0 0 0 .22-.185c.034-.284.034-.573.003-.859zm-3.745 1.686a1.26 1.26 0 0 1-1.26-1.26 1.26 1.26 0 0 1 2.518 0 1.26 1.26 0 0 1-1.258 1.26z" clip-rule="evenodd" fill="#012c4f" fill-rule="evenodd"/>
  <g fill="#012c4f">
    <path d="M128.035 31.847l-2.965 2.894 5.859.072z" fill-rule="evenodd"/>
    <g transform="matrix(.66093 0 0 .66093 -358.26 295.103)">
      <circle r="1.035" cy="-390.81" cx="735.714"/>
      <circle cx="735.714" cy="-386.577" r="1.035"/>
      <circle r="1.035" cy="-382.343" cx="735.714"/>
      <circle cx="735.714" cy="-378.11" r="1.035"/>
      <circle r="1.035" cy="-373.877" cx="735.714"/>
      <circle cx="735.714" cy="-369.644" r="1.035"/>
      <circle r="1.035" cy="-365.41" cx="735.714"/>
      <circle cx="735.714" cy="-361.177" r="1.035"/>
      <circle r="1.035" cy="-356.944" cx="735.714"/>
      <circle cx="735.714" cy="-352.71" r="1.035"/>
      <circle r="1.035" cy="-348.477" cx="735.714"/>
      <circle cx="735.714" cy="-344.244" r="1.035"/>
      <circle r="1.035" cy="-340.01" cx="735.714"/>
      <circle cx="735.714" cy="-335.777" r="1.035"/>
      <circle r="1.035" cy="-331.544" cx="735.714"/>
      <circle cx="735.714" cy="-327.31" r="1.035"/>
      <circle r="1.035" cy="-323.077" cx="735.714"/>
      <circle cx="735.714" cy="-318.844" r="1.035"/>
    </g>
  </g>
  <g transform="matrix(.66093 0 0 .66093 -351.905 295.103)" fill="#012c4f">
    <path d="M625-398.309l-4.487 4.378 8.866.11z" fill-rule="evenodd"/>
    <circle r="1.035" cy="-390.81" cx="624.946"/>
    <circle cx="624.946" cy="-386.577" r="1.035"/>
    <circle r="1.035" cy="-382.343" cx="624.946"/>
    <circle cx="624.946" cy="-378.11" r="1.035"/>
    <circle r="1.035" cy="-373.877" cx="624.946"/>
    <circle cx="624.946" cy="-369.644" r="1.035"/>
    <circle r="1.035" cy="-365.41" cx="624.946"/>
    <circle cx="624.946" cy="-361.177" r="1.035"/>
    <circle r="1.035" cy="-356.944" cx="624.946"/>
    <circle cx="624.946" cy="-352.71" r="1.035"/>
    <circle r="1.035" cy="-348.477" cx="624.946"/>
    <circle cx="624.946" cy="-344.244" r="1.035"/>
    <circle r="1.035" cy="-340.01" cx="624.946"/>
    <circle cx="624.946" cy="-335.777" r="1.035"/>
    <circle r="1.035" cy="-331.544" cx="624.946"/>
    <circle cx="624.946" cy="-327.31" r="1.035"/>
    <circle r="1.035" cy="-323.077" cx="624.946"/>
    <circle cx="624.946" cy="-318.844" r="1.035"/>
    <circle r="1.035" cy="-314.611" cx="624.946"/>
    <circle cx="624.946" cy="-310.377" r="1.035"/>
    <circle r="1.035" cy="-306.144" cx="624.946"/>
  </g>
  <g transform="matrix(.66093 0 0 .66093 -337.581 295.103)" fill="#012c4f">
    <path d="M646.167-398.309l-4.487 4.378 8.866.11z" fill-rule="evenodd"/>
    <circle cx="646.113" cy="-390.81" r="1.035"/>
    <circle r="1.035" cy="-386.577" cx="646.113"/>
    <circle cx="646.113" cy="-382.343" r="1.035"/>
    <circle r="1.035" cy="-378.11" cx="646.113"/>
    <circle cx="646.113" cy="-373.877" r="1.035"/>
  </g>
  <rect ry="2.207" y="12.832" x="62.977" height="14.601" width="60.568" fill="#012c4f"/>
  <g aria-label="webchain" style="line-height:1.25;-inkscape-font-specification:bosun" font-weight="400" font-size="13.446" font-family="bosun" letter-spacing="0" word-spacing="0" fill="#fff" stroke-width=".567">
    <path d="M69.073 24.88h-1.425l-1.883-6.495h1.197l1.452 5.446 1.506-3.415h1.452l1.506 3.415 1.466-5.446h1.197l-1.87 6.495-1.478-.014-1.533-3.496zM82.24 21.088c0-.888-.229-1.587-.66-2.07-.456-.539-1.156-.821-2.07-.821-.444 0-.86.08-1.21.229-.377.16-.7.376-.955.685-.47.579-.726 1.426-.726 2.461 0 .592.067 1.09.188 1.506.135.444.323.82.605 1.103.511.524 1.224.766 2.246.766.793 0 1.829-.242 2.367-.484l-.458-1.009c-.416.189-1.29.377-1.909.377-.713 0-1.156-.121-1.439-.417-.255-.269-.417-.686-.47-1.29h4.49v-1.036zm-2.73-1.775c.578 0 .982.135 1.237.43.256.296.377.74.377 1.345v.054h-3.375c.04-.578.201-1.009.457-1.318.296-.35.712-.511 1.304-.511zM89.21 20.402c0-.054-.026-.551-.241-1.035-.337-.753-.942-1.157-1.708-1.157-.659 0-1.358.242-2.098.727v-3.671h-1.116v9.614s1.748.107 2.42.107c.149 0 .283 0 .417-.013.686-.054 1.224-.242 1.627-.551.471-.377.7-.901.7-1.56zm-1.95-1.076c.216 0 .485.054.687.471.12.282.161.578.161.632v2.434c0 .215-.027.497-.282.686-.27.215-.955.484-2.663.201v-3.415c.767-.995 2.098-1.009 2.098-1.009zM93.453 24.987c-.659 0-1.492-.08-2.097-.833-.619-.753-.7-1.963-.713-2.528v-.08c.014-.566.094-1.776.713-2.529.605-.753 1.438-.833 2.097-.833.323 0 .807.053 1.291.268.511.23.901.592 1.143 1.09l-.995.497c-.323-.672-1.116-.753-1.439-.753-.645 0-.981.121-1.237.43-.282.337-.443 1.05-.457 1.87.014.82.175 1.532.457 1.868.256.31.592.417 1.237.417.323 0 1.116-.053 1.44-.726l.994.484c-.242.498-.632.86-1.143 1.103a3.204 3.204 0 0 1-1.29.255zM102.385 18.721c-.592-.537-1.372-.497-1.573-.497-.848 0-1.614.847-2.071 1.371v-4.33h-1.116v9.615h1.116v-3.133c.013-.283.107-.874.497-1.304.35-.377 1.009-1.117 1.627-1.117 0 0 .484-.026.767.23.161.147.255.389.255.739v4.585h1.103v-4.585c0-.834-.323-1.318-.605-1.574zM108.188 18.224c.013 0 0 0 0 0zm1.802 1.412c-.054-.565-.323-.955-.807-1.197a2.437 2.437 0 0 0-.995-.215c-1.48 0-2.81.766-3.08.928l.687.86c.228-.107 1.371-.659 2.205-.659.094 0 .175.014.255.027.296.054.457.175.552.39.094.215.107.511.094.941v.525l-.229-.054c-.605-.134-1.25-.242-1.842-.242-.161 0-.31 0-.457.027-.982.134-1.56 1.318-1.48 2.326.081 1.049.78 1.708 1.83 1.708.725 0 1.37-.135 1.949-.404l.229-.08v.35h1.102s.014-5.043-.013-5.231zm-1.09 3.415c0 .834-1.156.834-2.178.834-.497 0-.766-.229-.793-.66-.027-.268.04-.537.161-.779.108-.215.242-.35.377-.376.255-.04.51-.054.793-.054.619 0 1.157.08 1.506.161l.135.027zM112.095 18.399h1.116v6.48h-1.116zm0-3.12h1.116v1.331h-1.116zM120.138 18.721c-.592-.537-1.358-.51-1.56-.51-.847 0-1.613.847-2.084 1.358v-1.184h-1.116v6.495h1.116v-3.147c.013-.295.094-.86.484-1.29.35-.377 1.022-1.13 1.64-1.13 0 0 .498-.027.767.229.161.148.255.403.255.74v4.598h1.116V20.28c0-.833-.336-1.304-.618-1.56z" style="-inkscape-font-specification:bosun"/>
  </g>
</svg>
