<svg xmlns="http://www.w3.org/2000/svg" width="705" height="477" viewBox="0 0 186.531 126.206">
  <g transform="translate(-147.246 52.349)">
    <rect width="186.531" height="126.206" x="147.246" y="-52.349" ry="10.958" fill="#ececec"/>
    <path d="M224.592 31.441l12.812 7.398v14.788l-12.812 7.398-12.81-7.398V38.84l12.81-7.398M224.685-39.517l-12.81 7.398v14.792l12.81 7.398 12.802-7.398V-32.12l-12.802-7.398M204.873-3.942l-12.811 7.398v14.792l12.81 7.393 12.81-7.393V3.456l-12.81-7.398" fill="#012c4f" fill-rule="evenodd"/>
    <g fill="#eee">
      <path d="M230.078-17.453a.21.21 0 0 1-.15-.062.213.213 0 0 1-.064-.152V-18.43h-.64v.763a.214.214 0 1 1-.428 0V-18.43h-.64v.763a.214.214 0 0 1-.428 0V-18.43h-.641v.763a.214.214 0 1 1-.427 0V-18.43h-.641v.763a.214.214 0 1 1-.428 0V-18.43h-.64v.763a.214.214 0 0 1-.428 0V-18.429h-.64v.762a.214.214 0 1 1-.428 0V-18.43h-.64v.762a.214.214 0 1 1-.428 0V-18.43h-.64v.763a.214.214 0 0 1-.428 0V-18.429h-.641v.762a.214.214 0 1 1-.427 0V-18.43h-.641v.763a.214.214 0 1 1-.428 0V-18.43h-.101a.639.639 0 0 1-.641-.64V-19.173h-.834a.214.214 0 0 1 0-.427H218.44v-.642h-.834a.213.213 0 0 1-.214-.213c0-.118.096-.214.214-.214H218.44v-.641h-.834a.213.213 0 0 1 0-.427H218.44v-.641h-.834a.213.213 0 0 1 0-.427H218.44v-.642h-.834a.213.213 0 0 1 0-.427H218.44v-.641h-.834a.214.214 0 0 1 0-.427H218.44v-.641h-.834a.214.214 0 0 1 0-.427H218.44v-.641h-.834a.213.213 0 0 1 0-.427H218.44v-.641h-.834a.213.213 0 0 1 0-.428H218.44v-.64h-.834a.213.213 0 1 1 0-.427H218.44v-.641h-.834a.213.213 0 0 1 0-.428h.834v-.101a.64.64 0 0 1 .64-.641h.102v-.755a.214.214 0 1 1 .428 0v.755h.641V-31.78a.214.214 0 1 1 .427 0v.755h.641V-31.78a.214.214 0 1 1 .427 0v.755h.641V-31.78a.214.214 0 1 1 .427 0v.755h.641V-31.78a.214.214 0 1 1 .427 0v.755h.641V-31.78a.214.214 0 1 1 .428 0v.755h.64V-31.78a.214.214 0 1 1 .428 0v.755h.641V-31.78a.214.214 0 1 1 .427 0v.755h.641V-31.78a.214.214 0 1 1 .427 0v.755h.641V-31.78a.214.214 0 1 1 .427 0v.755h.641V-31.78a.214.214 0 1 1 .428 0v.755h.101c.019 0 .037 0 .055.004a.675.675 0 0 1 .313.114.646.646 0 0 1 .273.524v.102h.744c.027.004.052.01.074.02a.214.214 0 0 1-.094.406h-.724v.64h.724a.214.214 0 0 1 0 .428h-.724v.641h.724a.214.214 0 0 1 0 .427h-.724v.641h.724a.212.212 0 0 1 .213.214.214.214 0 0 1-.213.213h-.724v.641h.724a.213.213 0 0 1 .213.214.214.214 0 0 1-.213.214h-.724v.64h.724a.212.212 0 0 1 .213.214.214.214 0 0 1-.213.214h-.724v.64h.724a.212.212 0 0 1 .213.214.214.214 0 0 1-.213.214h-.724v.64h.724a.213.213 0 0 1 .213.214.214.214 0 0 1-.213.214h-.724v.641h.724a.213.213 0 0 1 0 .427h-.724v.641h.724a.213.213 0 0 1 .213.214.214.214 0 0 1-.213.214h-.724v.64h.724a.214.214 0 0 1 0 .428h-.724v.101a.64.64 0 0 1-.64.641h-.103v.763a.214.214 0 0 1-.213.214"/>
      <path d="M230.393-18.43h-11.312a.64.64 0 0 1-.641-.64v-11.313a.64.64 0 0 1 .64-.64h11.313a.64.64 0 0 1 .641.64v11.313a.64.64 0 0 1-.64.64M219.396-31.779v1.78-1.78"/>
      <path d="M219.396-29.785a.214.214 0 0 1-.214-.214v-1.78a.214.214 0 1 1 .428 0v1.78a.214.214 0 0 1-.214.214M220.464-31.779v1.78-1.78M220.464-29.785a.214.214 0 0 1-.213-.214v-1.78a.214.214 0 1 1 .427 0v1.78a.214.214 0 0 1-.214.214M221.532-31.779v1.78-1.78M221.532-29.785a.214.214 0 0 1-.213-.214v-1.78a.214.214 0 1 1 .427 0v1.78a.214.214 0 0 1-.214.214M222.6-31.779v1.78-1.78M222.6-29.785a.214.214 0 0 1-.213-.214v-1.78a.214.214 0 1 1 .427 0v1.78a.214.214 0 0 1-.213.214M223.669-31.779v1.78-1.78M223.669-29.785a.214.214 0 0 1-.214-.214v-1.78a.214.214 0 1 1 .427 0v1.78a.214.214 0 0 1-.213.214M224.737-31.779v1.78-1.78M224.737-29.785a.214.214 0 0 1-.214-.214v-1.78a.214.214 0 1 1 .428 0v1.78a.214.214 0 0 1-.214.214M225.805-31.779v1.78-1.78M225.805-29.785a.214.214 0 0 1-.214-.214v-1.78a.214.214 0 1 1 .428 0v1.78a.214.214 0 0 1-.214.214M226.873-31.779v1.78-1.78M226.873-29.785a.214.214 0 0 1-.213-.214v-1.78a.214.214 0 1 1 .427 0v1.78a.214.214 0 0 1-.214.214M227.941-31.779v1.78-1.78M227.941-29.785a.214.214 0 0 1-.213-.214v-1.78a.214.214 0 1 1 .427 0v1.78a.214.214 0 0 1-.214.214M229.01-31.779v1.78-1.78M229.01-29.785a.214.214 0 0 1-.214-.214v-1.78a.214.214 0 1 1 .427 0v1.78a.214.214 0 0 1-.213.214M230.078-31.779v1.78-1.78M230.078-29.785a.214.214 0 0 1-.214-.214v-1.78a.214.214 0 1 1 .428 0v1.78a.214.214 0 0 1-.214.214M219.396-19.447v1.78-1.78M219.396-17.453a.214.214 0 0 1-.214-.214v-1.78a.214.214 0 0 1 .428 0v1.78a.214.214 0 0 1-.214.214M220.464-19.447v1.78-1.78M220.464-17.453a.214.214 0 0 1-.213-.214v-1.78a.214.214 0 0 1 .427 0v1.78a.214.214 0 0 1-.214.214M221.532-19.447v1.78-1.78M221.532-17.453a.214.214 0 0 1-.213-.214v-1.78a.214.214 0 0 1 .427 0v1.78a.214.214 0 0 1-.214.214M222.6-19.447v1.78-1.78M222.6-17.453a.214.214 0 0 1-.213-.214v-1.78a.214.214 0 0 1 .427 0v1.78a.214.214 0 0 1-.213.214M223.669-19.447v1.78-1.78M223.669-17.453a.214.214 0 0 1-.214-.214v-1.78a.214.214 0 0 1 .427 0v1.78a.214.214 0 0 1-.213.214M224.737-19.447v1.78-1.78M224.737-17.453a.214.214 0 0 1-.214-.214v-1.78a.214.214 0 0 1 .428 0v1.78a.214.214 0 0 1-.214.214M225.805-19.447v1.78-1.78M225.805-17.453a.214.214 0 0 1-.214-.214v-1.78a.214.214 0 0 1 .428 0v1.78a.214.214 0 0 1-.214.214M226.873-19.447v1.78-1.78M226.873-17.453a.214.214 0 0 1-.213-.214v-1.78a.214.214 0 0 1 .427 0v1.78a.214.214 0 0 1-.214.214M227.941-19.447v1.78-1.78M227.941-17.453a.214.214 0 0 1-.213-.214v-1.78a.214.214 0 0 1 .427 0v1.78a.214.214 0 0 1-.214.214M229.01-19.447v1.78-1.78M229.01-17.453a.214.214 0 0 1-.214-.214v-1.78a.214.214 0 0 1 .427 0v1.78a.214.214 0 0 1-.213.214M230.078-19.447v1.78-1.78M230.078-17.453a.214.214 0 0 1-.214-.214v-1.78a.214.214 0 0 1 .428 0v1.78a.214.214 0 0 1-.214.214M231.758-30.068h-1.78 1.78"/>
      <path d="M231.758-29.854h-1.78a.214.214 0 0 1 0-.427h1.78a.214.214 0 0 1 0 .427M231.758-29h-1.78 1.78M231.758-28.786h-1.78a.214.214 0 1 1 0-.427h1.78a.214.214 0 0 1 0 .427M231.758-27.931h-1.78 1.78M231.758-27.718h-1.78a.214.214 0 1 1 0-.427h1.78a.214.214 0 0 1 0 .427M231.758-26.863h-1.78 1.78M231.758-26.65h-1.78a.214.214 0 1 1 0-.427h1.78a.214.214 0 1 1 0 .428M231.758-25.795h-1.78 1.78M231.758-25.581h-1.78a.214.214 0 1 1 0-.428h1.78a.214.214 0 0 1 0 .428M231.758-24.727h-1.78 1.78M231.758-24.513h-1.78a.214.214 0 1 1 0-.427h1.78a.214.214 0 0 1 0 .427M231.758-23.659h-1.78 1.78M231.758-23.445h-1.78a.214.214 0 0 1 0-.427h1.78a.214.214 0 1 1 0 .427M231.758-22.59h-1.78 1.78M231.758-22.377h-1.78a.214.214 0 0 1 0-.427h1.78a.214.214 0 0 1 0 .427M231.758-21.522h-1.78 1.78M231.758-21.309h-1.78a.214.214 0 1 1 0-.427h1.78a.214.214 0 0 1 0 .427M231.758-20.454h-1.78 1.78M231.758-20.24h-1.78a.214.214 0 0 1 0-.428h1.78a.214.214 0 1 1 0 .428M231.758-19.386h-1.78 1.78M231.758-19.172h-1.78a.214.214 0 1 1 0-.428h1.78a.214.214 0 0 1 0 .428M219.386-30.068h-1.78 1.78M219.386-29.854h-1.78a.214.214 0 0 1 0-.427h1.78a.214.214 0 0 1 0 .427M219.386-29h-1.78 1.78M219.386-28.786h-1.78a.214.214 0 0 1 0-.427h1.78a.214.214 0 0 1 0 .427M219.386-27.931h-1.78 1.78M219.386-27.718h-1.78a.214.214 0 1 1 0-.427h1.78a.214.214 0 0 1 0 .427M219.386-26.863h-1.78 1.78M219.386-26.65h-1.78a.214.214 0 0 1 0-.427h1.78a.214.214 0 1 1 0 .428M219.386-25.795h-1.78 1.78M219.386-25.581h-1.78a.214.214 0 0 1 0-.428h1.78a.214.214 0 0 1 0 .428M219.386-24.727h-1.78 1.78M219.386-24.513h-1.78a.214.214 0 0 1 0-.427h1.78a.214.214 0 0 1 0 .427M219.386-23.659h-1.78 1.78M219.386-23.445h-1.78a.214.214 0 0 1 0-.427h1.78a.214.214 0 1 1 0 .427M219.386-22.59h-1.78 1.78M219.386-22.377h-1.78a.214.214 0 0 1 0-.427h1.78a.214.214 0 1 1 0 .427M219.386-21.522h-1.78 1.78M219.386-21.309h-1.78a.214.214 0 1 1 0-.427h1.78a.214.214 0 0 1 0 .427M219.386-20.454h-1.78 1.78M219.386-20.24h-1.78a.214.214 0 0 1 0-.428h1.78a.214.214 0 1 1 0 .428M219.386-19.386h-1.78 1.78M219.386-19.172h-1.78a.214.214 0 0 1 0-.428h1.78a.214.214 0 0 1 0 .428"/>
    </g>
    <path d="M221.768-21.155a.603.603 0 0 1-.603-.603v-5.938c0-.332.27-.602.603-.602h5.938c.332 0 .603.27.603.602v5.938c0 .333-.27.603-.603.603h-5.938" fill="#424242"/>
    <path d="M227.706-21.421h-5.938a.336.336 0 0 1-.337-.337v-5.938c0-.186.151-.336.337-.336h5.938c.186 0 .336.15.336.336v5.938c0 .186-.15.337-.336.337" fill="#e7e8ed"/>
    <path d="M223.724-24.455l.003.008c.003.198-.057.353-.181.465-.124.112-.296.168-.514.168a.711.711 0 0 1-.54-.214.77.77 0 0 1-.205-.556v-.368c0-.226.067-.411.2-.556a.683.683 0 0 1 .526-.216c.226 0 .403.056.53.166.128.11.19.266.186.467l-.002.007h-.362c0-.119-.03-.207-.086-.265-.058-.059-.146-.088-.266-.088a.3.3 0 0 0-.261.135.595.595 0 0 0-.094.347v.371c0 .143.033.26.099.35.066.09.157.135.275.135.111 0 .194-.03.25-.088.054-.058.081-.147.081-.268h.361M224.363-24.8h.338c.104 0 .182-.029.236-.085a.301.301 0 0 0 .08-.216.316.316 0 0 0-.08-.222c-.053-.058-.132-.087-.236-.087h-.338zm0 .286v.674h-.372v-1.857h.71c.213 0 .381.055.504.164.123.11.184.252.184.429 0 .178-.061.32-.184.429-.123.108-.29.161-.504.161h-.338M227.126-25.697v1.215a.61.61 0 0 1-.208.491.803.803 0 0 1-.54.177.793.793 0 0 1-.535-.177.613.613 0 0 1-.206-.49v-1.216h.373v1.215c0 .125.033.22.1.285a.366.366 0 0 0 .269.098.374.374 0 0 0 .273-.098c.067-.066.1-.16.1-.285v-1.215h.374" fill="#424242"/>
    <g fill="#eee">
      <path d="M210.268 18.12a.21.21 0 0 1-.15-.063.213.213 0 0 1-.064-.152V17.143h-.64v.762a.214.214 0 1 1-.428 0V17.143h-.64v.762a.214.214 0 0 1-.428 0V17.143h-.641v.762a.214.214 0 1 1-.427 0V17.143h-.641v.762a.214.214 0 1 1-.428 0V17.143h-.64v.762a.214.214 0 0 1-.428 0V17.144h-.64v.763a.214.214 0 1 1-.428 0V17.143h-.64v.763a.214.214 0 1 1-.428 0V17.142h-.64v.762a.214.214 0 0 1-.428 0V17.144h-.641v.763a.214.214 0 1 1-.427 0V17.142h-.641v.762a.214.214 0 1 1-.428 0v-.762h-.101a.639.639 0 0 1-.641-.641V16.4h-.834a.214.214 0 0 1 0-.427H198.63v-.641h-.834a.213.213 0 0 1-.214-.214c0-.118.096-.213.214-.213H198.63v-.641h-.834a.213.213 0 0 1 0-.428H198.63v-.641h-.834a.213.213 0 0 1 0-.427H198.63v-.641h-.834a.213.213 0 0 1 0-.427H198.63v-.641h-.834a.214.214 0 0 1 0-.427H198.63V9.99h-.834a.214.214 0 0 1 0-.427H198.63v-.641h-.834a.213.213 0 0 1 0-.428H198.63v-.64h-.834a.213.213 0 0 1 0-.428H198.63v-.641h-.834a.213.213 0 1 1 0-.427H198.63v-.641h-.834a.213.213 0 0 1 0-.427h.834v-.102a.64.64 0 0 1 .64-.64h.103v-.756a.214.214 0 1 1 .427 0v.755h.641V3.793a.214.214 0 1 1 .427 0v.755h.641V3.793a.214.214 0 1 1 .427 0v.755h.641V3.793a.214.214 0 1 1 .427 0v.755h.641V3.793a.214.214 0 1 1 .427 0v.755h.641V3.793a.214.214 0 1 1 .428 0v.755h.641V3.793a.214.214 0 1 1 .427 0v.755h.641V3.793a.214.214 0 1 1 .427 0v.755h.641V3.793a.214.214 0 1 1 .427 0v.755h.641V3.793a.214.214 0 1 1 .427 0v.755h.641V3.793a.214.214 0 1 1 .428 0v.755h.101c.019 0 .037 0 .055.004.027.004.053.006.078.012a.675.675 0 0 1 .235.102.646.646 0 0 1 .273.525v.101h.744a.214.214 0 0 1-.02.426h-.724v.641h.724a.214.214 0 0 1 0 .428h-.724v.64h.724a.214.214 0 0 1 0 .428h-.724v.64h.724a.212.212 0 0 1 .213.214.214.214 0 0 1-.213.214h-.724v.641h.724a.213.213 0 0 1 .213.214.214.214 0 0 1-.213.213h-.724v.641h.724a.212.212 0 0 1 .213.214.214.214 0 0 1-.213.213h-.724v.641h.724a.212.212 0 0 1 .213.214.214.214 0 0 1-.213.214h-.724v.64h.724a.213.213 0 0 1 .213.214.214.214 0 0 1-.213.214h-.724v.64h.724a.213.213 0 0 1 0 .428h-.724v.64h.724a.213.213 0 0 1 .213.214.214.214 0 0 1-.213.214h-.724v.641h.724a.214.214 0 0 1 0 .427h-.724v.102a.64.64 0 0 1-.64.641h-.103v.762a.214.214 0 0 1-.213.214"/>
      <path d="M210.583 17.143h-11.312a.64.64 0 0 1-.641-.64V5.19a.64.64 0 0 1 .64-.641h11.313a.64.64 0 0 1 .641.64v11.313a.64.64 0 0 1-.64.641M199.586 3.794v1.78-1.78"/>
      <path d="M199.586 5.788a.214.214 0 0 1-.214-.214v-1.78a.214.214 0 1 1 .428 0v1.78a.214.214 0 0 1-.214.214M200.654 3.794v1.78-1.78M200.654 5.788a.214.214 0 0 1-.213-.214v-1.78a.214.214 0 1 1 .427 0v1.78a.214.214 0 0 1-.214.214M201.722 3.794v1.78-1.78M201.722 5.788a.214.214 0 0 1-.213-.214v-1.78a.214.214 0 1 1 .427 0v1.78a.214.214 0 0 1-.214.214M202.79 3.794v1.78-1.78M202.79 5.788a.214.214 0 0 1-.213-.214v-1.78a.214.214 0 1 1 .427 0v1.78a.214.214 0 0 1-.213.214M203.859 3.794v1.78-1.78M203.859 5.788a.214.214 0 0 1-.214-.214v-1.78a.214.214 0 1 1 .427 0v1.78a.214.214 0 0 1-.213.214M204.927 3.794v1.78-1.78M204.927 5.788a.214.214 0 0 1-.214-.214v-1.78a.214.214 0 1 1 .428 0v1.78a.214.214 0 0 1-.214.214M205.995 3.794v1.78-1.78M205.995 5.788a.214.214 0 0 1-.214-.214v-1.78a.214.214 0 1 1 .428 0v1.78a.214.214 0 0 1-.214.214M207.063 3.794v1.78-1.78M207.063 5.788a.214.214 0 0 1-.213-.214v-1.78a.214.214 0 1 1 .427 0v1.78a.214.214 0 0 1-.214.214M208.131 3.794v1.78-1.78M208.131 5.788a.214.214 0 0 1-.213-.214v-1.78a.214.214 0 1 1 .427 0v1.78a.214.214 0 0 1-.214.214M209.2 3.794v1.78-1.78M209.2 5.788a.214.214 0 0 1-.214-.214v-1.78a.214.214 0 1 1 .427 0v1.78a.214.214 0 0 1-.213.214M210.268 3.794v1.78-1.78M210.268 5.788a.214.214 0 0 1-.214-.214v-1.78a.214.214 0 1 1 .428 0v1.78a.214.214 0 0 1-.214.214M199.586 16.125v1.78-1.78M199.586 18.12a.214.214 0 0 1-.214-.214v-1.78a.214.214 0 0 1 .428 0v1.78a.214.214 0 0 1-.214.213M200.654 16.125v1.78-1.78M200.654 18.12a.214.214 0 0 1-.213-.214v-1.78a.214.214 0 0 1 .427 0v1.78a.214.214 0 0 1-.214.213M201.722 16.125v1.78-1.78M201.722 18.12a.214.214 0 0 1-.213-.214v-1.78a.214.214 0 0 1 .427 0v1.78a.214.214 0 0 1-.214.213M202.79 16.125v1.78-1.78M202.79 18.12a.214.214 0 0 1-.213-.214v-1.78a.214.214 0 0 1 .427 0v1.78a.214.214 0 0 1-.213.213M203.859 16.125v1.78-1.78M203.859 18.12a.214.214 0 0 1-.214-.214v-1.78a.214.214 0 0 1 .427 0v1.78a.214.214 0 0 1-.213.213M204.927 16.125v1.78-1.78M204.927 18.12a.214.214 0 0 1-.214-.214v-1.78a.214.214 0 0 1 .428 0v1.78a.214.214 0 0 1-.214.213M205.995 16.125v1.78-1.78M205.995 18.12a.214.214 0 0 1-.214-.214v-1.78a.214.214 0 0 1 .428 0v1.78a.214.214 0 0 1-.214.213M207.063 16.125v1.78-1.78M207.063 18.12a.214.214 0 0 1-.213-.214v-1.78a.214.214 0 0 1 .427 0v1.78a.214.214 0 0 1-.214.213M208.131 16.125v1.78-1.78M208.131 18.12a.214.214 0 0 1-.213-.214v-1.78a.214.214 0 0 1 .427 0v1.78a.214.214 0 0 1-.214.213M209.2 16.125v1.78-1.78M209.2 18.12a.214.214 0 0 1-.214-.214v-1.78a.214.214 0 0 1 .427 0v1.78a.214.214 0 0 1-.213.213M210.268 16.125v1.78-1.78M210.268 18.12a.214.214 0 0 1-.214-.214v-1.78a.214.214 0 0 1 .428 0v1.78a.214.214 0 0 1-.214.213M211.948 5.505h-1.78 1.78"/>
      <path d="M211.948 5.719h-1.78a.214.214 0 0 1 0-.428h1.78a.214.214 0 0 1 0 .428M211.948 6.573h-1.78 1.78M211.948 6.787h-1.78a.214.214 0 1 1 0-.428h1.78a.214.214 0 0 1 0 .428M211.948 7.641h-1.78 1.78M211.948 7.855h-1.78a.214.214 0 1 1 0-.427h1.78a.214.214 0 0 1 0 .427M211.948 8.71h-1.78 1.78M211.948 8.923h-1.78a.214.214 0 1 1 0-.427h1.78a.214.214 0 1 1 0 .427M211.948 9.778h-1.78 1.78M211.948 9.991h-1.78a.214.214 0 1 1 0-.427h1.78a.214.214 0 0 1 0 .427M211.948 10.846h-1.78 1.78M211.948 11.06h-1.78a.214.214 0 1 1 0-.428h1.78a.214.214 0 0 1 0 .427M211.948 11.914h-1.78 1.78M211.948 12.128h-1.78a.214.214 0 0 1 0-.428h1.78a.214.214 0 1 1 0 .428M211.948 12.982h-1.78 1.78M211.948 13.196h-1.78a.214.214 0 0 1 0-.427h1.78a.214.214 0 0 1 0 .427M211.948 14.05h-1.78 1.78M211.948 14.264h-1.78a.214.214 0 1 1 0-.427h1.78a.214.214 0 0 1 0 .427M211.948 15.119h-1.78 1.78M211.948 15.332h-1.78a.214.214 0 0 1 0-.427h1.78a.214.214 0 1 1 0 .427M211.948 16.187h-1.78 1.78M211.948 16.4h-1.78a.214.214 0 1 1 0-.427h1.78a.214.214 0 0 1 0 .427M199.576 5.505h-1.78 1.78M199.576 5.719h-1.78a.214.214 0 0 1 0-.428h1.78a.214.214 0 0 1 0 .428M199.576 6.573h-1.78 1.78M199.576 6.787h-1.78a.214.214 0 0 1 0-.428h1.78a.214.214 0 0 1 0 .428M199.576 7.641h-1.78 1.78M199.576 7.855h-1.78a.214.214 0 1 1 0-.427h1.78a.214.214 0 0 1 0 .427M199.576 8.71h-1.78 1.78M199.576 8.923h-1.78a.214.214 0 0 1 0-.427h1.78a.214.214 0 1 1 0 .427M199.576 9.778h-1.78 1.78M199.576 9.991h-1.78a.214.214 0 0 1 0-.427h1.78a.214.214 0 0 1 0 .427M199.576 10.846h-1.78 1.78M199.576 11.06h-1.78a.214.214 0 0 1 0-.428h1.78a.214.214 0 0 1 0 .427M199.576 11.914h-1.78 1.78M199.576 12.128h-1.78a.214.214 0 0 1 0-.428h1.78a.214.214 0 1 1 0 .428M199.576 12.982h-1.78 1.78M199.576 13.196h-1.78a.214.214 0 0 1 0-.427h1.78a.214.214 0 1 1 0 .427M199.576 14.05h-1.78 1.78M199.576 14.264h-1.78a.214.214 0 1 1 0-.427h1.78a.214.214 0 0 1 0 .427M199.576 15.119h-1.78 1.78M199.576 15.332h-1.78a.214.214 0 0 1 0-.427h1.78a.214.214 0 1 1 0 .427M199.576 16.187h-1.78 1.78M199.576 16.4h-1.78a.214.214 0 0 1 0-.427h1.78a.214.214 0 0 1 0 .427"/>
    </g>
    <path d="M201.958 14.417a.603.603 0 0 1-.603-.602V7.877c0-.332.27-.603.603-.603h5.938c.332 0 .603.27.603.603v5.938c0 .332-.27.602-.603.602h-5.938" fill="#424242"/>
    <path d="M207.896 14.151h-5.938a.336.336 0 0 1-.337-.336V7.877c0-.186.151-.336.337-.336h5.938c.186 0 .336.15.336.336v5.938c0 .186-.15.336-.336.336" fill="#e7e8ed"/>
    <path d="M203.914 11.118l.003.007c.003.198-.057.354-.181.466-.124.112-.296.168-.514.168a.711.711 0 0 1-.54-.215.77.77 0 0 1-.205-.555v-.369c0-.226.067-.41.2-.555a.683.683 0 0 1 .526-.216c.226 0 .403.055.53.166.128.11.19.266.186.466l-.002.008h-.362c0-.119-.03-.208-.086-.266-.058-.058-.146-.087-.266-.087a.3.3 0 0 0-.261.134.595.595 0 0 0-.094.348v.37c0 .143.033.26.099.35.066.09.158.135.275.135.111 0 .194-.029.25-.087.054-.058.081-.148.081-.268h.361M204.553 10.772h.338c.104 0 .182-.028.236-.085a.301.301 0 0 0 .08-.216.316.316 0 0 0-.08-.221c-.053-.058-.132-.087-.236-.087h-.338zm0 .287v.673h-.372V9.876h.71c.213 0 .381.054.504.164.123.109.184.252.184.429s-.061.32-.184.428c-.123.108-.29.162-.504.162h-.338M207.316 9.876v1.215a.61.61 0 0 1-.208.49.803.803 0 0 1-.54.178.793.793 0 0 1-.535-.177.613.613 0 0 1-.206-.491V9.876h.373v1.215c0 .124.033.219.1.284a.366.366 0 0 0 .269.099.374.374 0 0 0 .273-.099c.067-.065.1-.16.1-.284V9.876h.374" fill="#424242"/>
    <g fill="#eee">
      <path d="M229.99 53.503a.21.21 0 0 1-.15-.062.213.213 0 0 1-.064-.152V52.526h-.64v.763a.214.214 0 1 1-.428 0V52.526h-.641v.763a.214.214 0 0 1-.427 0V52.527h-.641v.762a.214.214 0 1 1-.428 0V52.526h-.64v.763a.214.214 0 1 1-.428 0V52.527h-.64v.762a.214.214 0 0 1-.428 0V52.527h-.64v.762a.214.214 0 1 1-.428 0V52.527h-.641v.762a.214.214 0 1 1-.427 0V52.526h-.641v.763a.214.214 0 0 1-.427 0V52.527h-.641v.762a.214.214 0 1 1-.428 0V52.527h-.64v.762a.214.214 0 1 1-.428 0V52.526h-.101a.639.639 0 0 1-.641-.64V51.783h-.835a.214.214 0 0 1 0-.427h.835v-.641h-.835a.213.213 0 0 1-.213-.214c0-.118.095-.214.213-.214h.835v-.641h-.835a.213.213 0 0 1 0-.427h.835v-.641h-.835a.213.213 0 0 1 0-.427h.835v-.641h-.835a.213.213 0 0 1 0-.428h.835v-.641h-.835a.214.214 0 0 1 0-.427h.835v-.641h-.835a.214.214 0 0 1 0-.427h.835v-.641h-.835a.213.213 0 0 1 0-.427h.835v-.641h-.835a.213.213 0 0 1 0-.427h.835v-.641h-.835a.213.213 0 1 1 0-.427h.835v-.641h-.835a.213.213 0 0 1 0-.428h.835v-.101a.64.64 0 0 1 .64-.641h.102v-.755a.214.214 0 1 1 .427 0v.755h.641V39.177a.214.214 0 1 1 .428 0v.755h.641V39.177a.214.214 0 1 1 .427 0v.755h.641V39.177a.214.214 0 1 1 .427 0v.755h.641V39.177a.214.214 0 1 1 .427 0v.755h.641V39.177a.214.214 0 1 1 .427 0v.755h.641V39.177a.214.214 0 1 1 .428 0v.755h.64V39.177a.214.214 0 1 1 .428 0v.755h.641V39.177a.214.214 0 1 1 .427 0v.755h.641V39.177a.214.214 0 1 1 .427 0v.755h.641V39.177a.214.214 0 1 1 .427 0v.755H230.305c.019 0 .037 0 .055.004.027.004.053.006.078.011a.675.675 0 0 1 .235.102.646.646 0 0 1 .273.525v.102h.744c.027.004.051.01.074.02a.214.214 0 0 1-.094.406h-.724v.64h.724a.214.214 0 0 1 0 .428h-.724v.641h.724a.214.214 0 0 1 0 .427h-.724v.641h.724a.212.212 0 0 1 .213.214.214.214 0 0 1-.213.214h-.724v.64h.724a.213.213 0 0 1 .213.214.214.214 0 0 1-.213.214h-.724v.64h.724a.212.212 0 0 1 .213.214.214.214 0 0 1-.213.214h-.724v.64h.724a.212.212 0 0 1 .213.214.214.214 0 0 1-.213.214h-.724v.641h.724a.213.213 0 0 1 .213.214.214.214 0 0 1-.214.213h-.723v.641h.723a.213.213 0 0 1 0 .427h-.723v.641h.723a.213.213 0 0 1 .214.214.214.214 0 0 1-.214.214h-.723v.64h.723a.214.214 0 0 1 0 .428h-.723v.102a.64.64 0 0 1-.641.64h-.102v.763a.214.214 0 0 1-.213.214"/>
      <path d="M230.305 52.527h-11.312a.64.64 0 0 1-.641-.641V40.573a.64.64 0 0 1 .64-.64h11.313a.64.64 0 0 1 .64.64v11.313a.64.64 0 0 1-.64.64M219.308 39.177v1.78-1.78"/>
      <path d="M219.308 41.171a.214.214 0 0 1-.214-.214v-1.78a.214.214 0 1 1 .427 0v1.78a.214.214 0 0 1-.213.214M220.376 39.177v1.78-1.78M220.376 41.171a.214.214 0 0 1-.214-.214v-1.78a.214.214 0 1 1 .428 0v1.78a.214.214 0 0 1-.214.214M221.444 39.177v1.78-1.78M221.444 41.171a.214.214 0 0 1-.213-.214v-1.78a.214.214 0 1 1 .427 0v1.78a.214.214 0 0 1-.214.214M222.512 39.177v1.78-1.78M222.512 41.171a.214.214 0 0 1-.213-.214v-1.78a.214.214 0 1 1 .427 0v1.78a.214.214 0 0 1-.214.214M223.58 39.177v1.78-1.78M223.58 41.171a.214.214 0 0 1-.213-.214v-1.78a.214.214 0 1 1 .427 0v1.78a.214.214 0 0 1-.213.214M224.649 39.177v1.78-1.78M224.649 41.171a.214.214 0 0 1-.214-.214v-1.78a.214.214 0 1 1 .427 0v1.78a.214.214 0 0 1-.213.214M225.717 39.177v1.78-1.78M225.717 41.171a.214.214 0 0 1-.214-.214v-1.78a.214.214 0 1 1 .427 0v1.78a.214.214 0 0 1-.213.214M226.785 39.177v1.78-1.78M226.785 41.171a.214.214 0 0 1-.214-.214v-1.78a.214.214 0 1 1 .428 0v1.78a.214.214 0 0 1-.214.214M227.853 39.177v1.78-1.78M227.853 41.171a.214.214 0 0 1-.213-.214v-1.78a.214.214 0 1 1 .427 0v1.78a.214.214 0 0 1-.214.214M228.921 39.177v1.78-1.78M228.921 41.171a.214.214 0 0 1-.213-.214v-1.78a.214.214 0 1 1 .427 0v1.78a.214.214 0 0 1-.214.214M229.99 39.177v1.78-1.78M229.99 41.171a.214.214 0 0 1-.214-.214v-1.78a.214.214 0 1 1 .427 0v1.78a.214.214 0 0 1-.213.214M219.308 51.509v1.78-1.78M219.308 53.503a.214.214 0 0 1-.214-.214v-1.78a.214.214 0 0 1 .427 0v1.78a.214.214 0 0 1-.213.214M220.376 51.509v1.78-1.78M220.376 53.503a.214.214 0 0 1-.214-.214v-1.78a.214.214 0 0 1 .428 0v1.78a.214.214 0 0 1-.214.214M221.444 51.509v1.78-1.78M221.444 53.503a.214.214 0 0 1-.213-.214v-1.78a.214.214 0 0 1 .427 0v1.78a.214.214 0 0 1-.214.214M222.512 51.509v1.78-1.78M222.512 53.503a.214.214 0 0 1-.213-.214v-1.78a.214.214 0 0 1 .427 0v1.78a.214.214 0 0 1-.214.214M223.58 51.509v1.78-1.78M223.58 53.503a.214.214 0 0 1-.213-.214v-1.78a.214.214 0 0 1 .427 0v1.78a.214.214 0 0 1-.213.214M224.649 51.509v1.78-1.78M224.649 53.503a.214.214 0 0 1-.214-.214v-1.78a.214.214 0 0 1 .427 0v1.78a.214.214 0 0 1-.213.214M225.717 51.509v1.78-1.78M225.717 53.503a.214.214 0 0 1-.214-.214v-1.78a.214.214 0 0 1 .427 0v1.78a.214.214 0 0 1-.213.214M226.785 51.509v1.78-1.78M226.785 53.503a.214.214 0 0 1-.214-.214v-1.78a.214.214 0 0 1 .428 0v1.78a.214.214 0 0 1-.214.214M227.853 51.509v1.78-1.78M227.853 53.503a.214.214 0 0 1-.213-.214v-1.78a.214.214 0 0 1 .427 0v1.78a.214.214 0 0 1-.214.214M228.921 51.509v1.78-1.78M228.921 53.503a.214.214 0 0 1-.213-.214v-1.78a.214.214 0 0 1 .427 0v1.78a.214.214 0 0 1-.214.214M229.99 51.509v1.78-1.78M229.99 53.503a.214.214 0 0 1-.214-.214v-1.78a.214.214 0 0 1 .427 0v1.78a.214.214 0 0 1-.213.214M231.67 40.888h-1.78 1.78"/>
      <path d="M231.67 41.102h-1.78a.214.214 0 0 1 0-.427h1.78a.214.214 0 0 1 0 .427M231.67 41.956h-1.78 1.78M231.67 42.17h-1.78a.214.214 0 1 1 0-.427h1.78a.214.214 0 0 1 0 .427M231.67 43.025h-1.78 1.78M231.67 43.238h-1.78a.214.214 0 1 1 0-.427h1.78a.214.214 0 0 1 0 .427M231.67 44.093h-1.78 1.78M231.67 44.307h-1.78a.214.214 0 1 1 0-.428h1.78a.214.214 0 1 1 0 .428M231.67 45.161h-1.78 1.78M231.67 45.375h-1.78a.214.214 0 1 1 0-.427h1.78a.214.214 0 0 1 0 .427M231.67 46.23h-1.78 1.78M231.67 46.443h-1.78a.214.214 0 1 1 0-.427h1.78a.214.214 0 0 1 0 .427M231.67 47.297h-1.78 1.78M231.67 47.511h-1.78a.214.214 0 0 1 0-.427h1.78a.214.214 0 1 1 0 .427M231.67 48.366h-1.78 1.78M231.67 48.58h-1.78a.214.214 0 0 1 0-.428h1.78a.214.214 0 0 1 0 .427M231.67 49.434h-1.78 1.78M231.67 49.647h-1.78a.214.214 0 1 1 0-.427h1.78a.214.214 0 0 1 0 .427M231.67 50.502h-1.78 1.78M231.67 50.716h-1.78a.214.214 0 0 1 0-.427h1.78a.214.214 0 1 1 0 .427M231.67 51.57h-1.78 1.78M231.67 51.784h-1.78a.214.214 0 1 1 0-.427h1.78a.214.214 0 0 1 0 .427M219.297 40.888h-1.78 1.78M219.297 41.102h-1.78a.214.214 0 0 1 0-.427h1.78a.214.214 0 0 1 0 .427M219.297 41.956h-1.78 1.78M219.297 42.17h-1.78a.214.214 0 0 1 0-.427h1.78a.214.214 0 0 1 0 .427M219.297 43.025h-1.78 1.78M219.297 43.238h-1.78a.214.214 0 1 1 0-.427h1.78a.214.214 0 0 1 0 .427M219.297 44.093h-1.78 1.78M219.297 44.307h-1.78a.214.214 0 0 1 0-.428h1.78a.214.214 0 1 1 0 .428M219.297 45.161h-1.78 1.78M219.297 45.375h-1.78a.214.214 0 0 1 0-.427h1.78a.214.214 0 0 1 0 .427M219.297 46.23h-1.78 1.78M219.297 46.443h-1.78a.214.214 0 0 1 0-.427h1.78a.214.214 0 0 1 0 .427M219.297 47.297h-1.78 1.78M219.297 47.511h-1.78a.214.214 0 0 1 0-.427h1.78a.214.214 0 1 1 0 .427M219.297 48.366h-1.78 1.78M219.297 48.58h-1.78a.214.214 0 0 1 0-.428h1.78a.214.214 0 1 1 0 .427M219.297 49.434h-1.78 1.78M219.297 49.647h-1.78a.214.214 0 1 1 0-.427h1.78a.214.214 0 0 1 0 .427M219.297 50.502h-1.78 1.78M219.297 50.716h-1.78a.214.214 0 0 1 0-.427h1.78a.214.214 0 1 1 0 .427M219.297 51.57h-1.78 1.78M219.297 51.784h-1.78a.214.214 0 0 1 0-.427h1.78a.214.214 0 0 1 0 .427"/>
    </g>
    <path d="M221.68 49.801a.603.603 0 0 1-.603-.603V43.26c0-.332.27-.602.603-.602h5.938c.332 0 .602.27.602.602v5.938c0 .333-.27.603-.602.603h-5.938" fill="#424242"/>
    <path d="M227.618 49.535h-5.938a.336.336 0 0 1-.337-.337V43.26c0-.186.151-.336.337-.336h5.938c.186 0 .336.15.336.336v5.938c0 .186-.15.337-.336.337" fill="#e7e8ed"/>
    <path d="M223.636 46.501l.003.008c.003.198-.057.353-.182.465-.124.112-.295.169-.513.169a.711.711 0 0 1-.54-.215.77.77 0 0 1-.205-.556v-.368c0-.226.067-.411.2-.555a.683.683 0 0 1 .526-.217c.226 0 .402.056.53.166.127.11.19.266.186.467l-.003.007h-.362c0-.119-.028-.207-.086-.265-.057-.059-.146-.088-.266-.088a.3.3 0 0 0-.26.135.595.595 0 0 0-.094.347v.371c0 .143.033.26.099.35.066.09.157.135.275.135.11 0 .194-.03.249-.088.055-.058.082-.147.082-.268h.36M224.275 46.156h.338c.103 0 .182-.029.235-.085a.301.301 0 0 0 .08-.216.316.316 0 0 0-.079-.221c-.053-.059-.132-.088-.236-.088h-.338zm0 .287v.673h-.373v-1.857h.71c.214 0 .382.055.505.164.123.11.184.252.184.43 0 .177-.061.32-.184.428-.123.108-.291.162-.504.162h-.338M227.038 45.26v1.214a.61.61 0 0 1-.208.491.803.803 0 0 1-.54.178.793.793 0 0 1-.536-.178.613.613 0 0 1-.206-.49v-1.216h.374v1.215c0 .125.033.22.1.285a.366.366 0 0 0 .269.098.374.374 0 0 0 .272-.098c.068-.066.101-.16.101-.285V45.26h.374" fill="#424242"/>
    <path d="M248.062-6.056l-.04-.04a.699.699 0 1 0-.697 1.213c.334.194.782.091.973-.242a.687.687 0 0 0-.236-.95zm-2.707-1.561l-.036-.04a.703.703 0 0 0-.954.258.699.699 0 0 0 .254.955c.334.194.782.087.973-.245a.679.679 0 0 0-.237-.946zm-2.704-1.557l-.04-.04a.692.692 0 0 0-.952.253.69.69 0 0 0 .254.953c.333.198.782.091.973-.241a.677.677 0 0 0-.236-.942zm-2.707-1.562l-.036-.04a.699.699 0 1 0-.699 1.21c.333.19.781.088.976-.245.191-.336.094-.753-.24-.943zm-2.704-1.565h-.02a.7.7 0 1 0-.7 1.212.72.72 0 0 0 .97-.25.69.69 0 0 0-.249-.948zM248.062 28.139l-.04.04a.699.699 0 1 1-.697-1.213c.334-.195.782-.092.973.24a.687.687 0 0 1-.236.95zm-2.707 1.56l-.036.04a.703.703 0 0 1-.954-.258.699.699 0 0 1 .254-.955c.334-.194.782-.087.973.245.197.333.1.752-.237.946zm-2.704 1.558l-.04.04a.692.692 0 0 1-.952-.254.69.69 0 0 1 .254-.953c.333-.198.782-.091.973.242a.677.677 0 0 1-.236.941zm-2.707 1.561l-.036.04a.699.699 0 1 1-.699-1.21c.333-.19.781-.088.976.245.191.337.094.753-.24.943zm-2.704 1.565h-.02a.7.7 0 1 1-.7-1.212.72.72 0 0 1 .97.25.69.69 0 0 1-.249.949z" fill="#012c4f" fill-rule="evenodd"/>
    <path d="M285.237 57.651h-37.823a3.723 3.723 0 0 1-3.724-3.724v-86.346a3.724 3.724 0 0 1 3.724-3.724h37.823a3.724 3.724 0 0 1 3.724 3.724v86.346a3.723 3.723 0 0 1-3.724 3.724" fill="#616161"/>
    <path d="M288.961 53.927V20.42c-3.648-7.586-12.403-12.935-22.636-12.935-10.233 0-18.987 5.35-22.635 12.935v33.507a3.723 3.723 0 0 0 3.724 3.724h37.823a3.723 3.723 0 0 0 3.724-3.724" fill="#424242"/>
    <path d="M267.282 57.651h-1.912V28.606h1.912v29.045" fill="#616161"/>
    <path d="M266.325 29.336c-1.742 0-3.34-1.036-4.383-2.844l-2.363-4.096c-1.044-1.807-1.142-3.709-.272-5.217.87-1.51 2.567-2.375 4.654-2.375h4.728c2.088 0 3.784.866 4.655 2.375.873 1.508.774 3.41-.27 5.217l-2.366 4.096c-1.042 1.808-2.64 2.844-4.383 2.844" fill="#212121"/>
    <path d="M261.728 21.155l2.364 4.096c1.235 2.136 3.235 2.136 4.467 0l2.365-4.096c1.234-2.138.233-3.868-2.234-3.868h-4.728c-2.467 0-3.467 1.73-2.234 3.868" fill="#b3b3b3"/>
    <path d="M286.207-19.545h-39.761v-10.337h39.76v10.337M286.207-7.617h-39.761v-10.338h39.76v10.338" fill="#424242"/>
    <path d="M256.794-1.83h-6.044v-2.856h6.044v2.856" fill="#757575"/>
    <path d="M256.794-3.637h-6.044v-1.05h6.044v1.05" fill="#424242"/>
    <path d="M266.104-1.83h-6.044v-2.856h6.044v2.856" fill="#757575"/>
    <path d="M266.104-3.637h-6.044v-1.05h6.044v1.05" fill="#424242"/>
    <path d="M272.545-3.023a1.138 1.138 0 1 1-2.276 0 1.138 1.138 0 0 1 2.276 0" fill="#302f30"/>
    <path d="M271.407-2.134a.89.89 0 1 1-.001-1.78.89.89 0 0 1 0 1.78" fill="#757575"/>
    <path d="M276.966-3.023a1.138 1.138 0 1 1-2.276 0 1.138 1.138 0 0 1 2.276 0" fill="#302f30"/>
    <path d="M275.828-2.134a.89.89 0 1 1 .001-1.779.89.89 0 0 1 0 1.779" fill="#757575"/>
    <path d="M281.9-3.023a.89.89 0 1 1-1.779-.002.89.89 0 0 1 1.78.002" fill="#9ccc65"/>
    <path d="M284.687-14.48h-3.676v-1.707h3.676v1.707M284.687-26.505h-3.676v-1.706h3.676v1.706" fill="#616161"/>
    <path d="M243.69 52.764v1.163a3.723 3.723 0 0 0 3.724 3.724h37.823a3.723 3.723 0 0 0 3.724-3.724v-1.163H243.69" fill="#141417"/>
    <path d="M237.384 10.292l-.054-.016a.699.699 0 1 0-.027 1.399c.386.01.729-.296.736-.68a.687.687 0 0 0-.664-.719zm-3.124-.066l-.05-.017a.704.704 0 0 0-.714.685.699.699 0 0 0 .683.715c.386.01.728-.3.735-.684a.679.679 0 0 0-.662-.715zm-3.12-.064l-.054-.016a.692.692 0 0 0-.713.68.69.69 0 0 0 .681.713c.388.013.73-.296.738-.68a.677.677 0 0 0-.661-.711zm-3.124-.068l-.05-.017a.699.699 0 1 0-.031 1.398c.383.006.727-.3.737-.685.005-.387-.28-.706-.663-.712zm-3.124-.07l-.017.01a.7.7 0 1 0-.032 1.399.72.72 0 0 0 .731-.686.69.69 0 0 0-.674-.712z" fill="#012c4f" fill-rule="evenodd"/>
  </g>
</svg>
