<svg xmlns="http://www.w3.org/2000/svg" width="366.235" height="380" viewBox="0 0 96.9 100.542">
  <path d="M32.53 70.958l12.813 7.398v14.788l-12.813 7.398-12.81-7.398V78.356l12.81-7.398M32.624 0l-12.81 7.398V22.19l12.81 7.397 12.802-7.397V7.398L32.624 0M12.811 35.575L0 42.973v14.792l12.811 7.392 12.81-7.392V42.973l-12.81-7.398" fill="#012c4f" fill-rule="evenodd"/>
  <g fill="#eee">
    <path d="M38.016 22.063a.21.21 0 0 1-.15-.061.213.213 0 0 1-.063-.152V21.087h-.641v.763a.214.214 0 1 1-.427 0V21.086h-.641v.762a.214.214 0 0 1-.428 0V21.088h-.64v.763a.214.214 0 1 1-.428 0V21.087h-.64v.763a.214.214 0 1 1-.428 0V21.087h-.64v.763a.214.214 0 0 1-.428 0V21.087h-.641v.763a.214.214 0 1 1-.427 0V21.087h-.641v.763a.214.214 0 1 1-.427 0V21.087h-.641v.763a.214.214 0 0 1-.428 0V21.087h-.64v.763a.214.214 0 1 1-.428 0V21.087h-.64v.763a.214.214 0 1 1-.428 0V21.087h-.102a.639.639 0 0 1-.64-.641V20.344h-.835a.214.214 0 0 1 0-.427H26.378v-.641h-.834a.213.213 0 0 1-.214-.214c0-.118.096-.213.214-.213H26.378v-.641h-.834a.213.213 0 0 1 0-.427H26.378v-.641h-.834a.213.213 0 0 1 0-.428H26.378v-.641h-.834a.213.213 0 0 1 0-.427H26.378v-.641h-.834a.214.214 0 0 1 0-.427H26.378v-.641h-.834a.214.214 0 0 1 0-.427H26.378v-.641h-.834a.213.213 0 0 1 0-.427H26.378v-.641h-.834a.213.213 0 0 1 0-.428H26.378v-.641h-.834a.213.213 0 1 1 0-.427H26.378v-.641h-.834a.213.213 0 0 1 0-.427h.834v-.102a.64.64 0 0 1 .641-.64h.102v-.755a.214.214 0 1 1 .427 0v.755h.641V7.738a.214.214 0 1 1 .427 0v.755h.641V7.738a.214.214 0 1 1 .428 0v.755h.641V7.738a.214.214 0 1 1 .427 0v.755h.641V7.738a.214.214 0 1 1 .427 0v.755h.641V7.738a.214.214 0 1 1 .427 0v.755h.641V7.738a.214.214 0 1 1 .427 0v.755h.641V7.738a.214.214 0 1 1 .428 0v.755h.64V7.738a.214.214 0 1 1 .428 0v.755h.641V7.738a.214.214 0 1 1 .427 0v.755h.641V7.738a.214.214 0 1 1 .427 0v.755H38.332c.018 0 .037 0 .055.003.026.004.052.006.078.012a.675.675 0 0 1 .235.102.646.646 0 0 1 .273.525v.102h.744c.026.003.051.01.074.02a.214.214 0 0 1-.095.406h-.723v.64h.723a.214.214 0 0 1 0 .428h-.723v.64h.723a.214.214 0 0 1 0 .428h-.723v.641h.723a.212.212 0 0 1 .214.214.214.214 0 0 1-.214.213h-.723v.641h.723a.213.213 0 0 1 .214.214.214.214 0 0 1-.214.213h-.723v.641h.723a.212.212 0 0 1 .214.214.214.214 0 0 1-.214.214h-.723v.64h.723a.212.212 0 0 1 .214.214.214.214 0 0 1-.214.214h-.723v.64h.723a.213.213 0 0 1 .214.214.214.214 0 0 1-.214.214h-.723v.64h.723a.213.213 0 0 1 0 .428h-.723v.641h.723a.213.213 0 0 1 .214.214.214.214 0 0 1-.214.213h-.723v.641h.723a.214.214 0 0 1 0 .427h-.723v.102a.64.64 0 0 1-.641.641h-.102v.763a.214.214 0 0 1-.214.213"/>
    <path d="M38.332 21.087H27.019a.64.64 0 0 1-.64-.64V9.133a.64.64 0 0 1 .64-.64h11.313a.64.64 0 0 1 .64.64v11.312a.64.64 0 0 1-.64.641M27.335 7.738v1.78-1.78"/>
    <path d="M27.335 9.732a.214.214 0 0 1-.214-.214v-1.78a.214.214 0 1 1 .427 0v1.78a.214.214 0 0 1-.213.214M28.403 7.738v1.78-1.78M28.403 9.732a.214.214 0 0 1-.214-.214v-1.78a.214.214 0 1 1 .427 0v1.78a.214.214 0 0 1-.213.214M29.47 7.738v1.78-1.78M29.47 9.732a.214.214 0 0 1-.213-.214v-1.78a.214.214 0 1 1 .428 0v1.78a.214.214 0 0 1-.214.214M30.54 7.738v1.78-1.78M30.54 9.732a.214.214 0 0 1-.214-.214v-1.78a.214.214 0 1 1 .427 0v1.78a.214.214 0 0 1-.214.214M31.607 7.738v1.78-1.78M31.607 9.732a.214.214 0 0 1-.213-.214v-1.78a.214.214 0 1 1 .427 0v1.78a.214.214 0 0 1-.214.214M32.675 7.738v1.78-1.78M32.675 9.732a.214.214 0 0 1-.213-.214v-1.78a.214.214 0 1 1 .427 0v1.78a.214.214 0 0 1-.214.214M33.744 7.738v1.78-1.78M33.744 9.732a.214.214 0 0 1-.214-.214v-1.78a.214.214 0 1 1 .427 0v1.78a.214.214 0 0 1-.213.214M34.812 7.738v1.78-1.78M34.812 9.732a.214.214 0 0 1-.214-.214v-1.78a.214.214 0 1 1 .427 0v1.78a.214.214 0 0 1-.213.214M35.88 7.738v1.78-1.78M35.88 9.732a.214.214 0 0 1-.214-.214v-1.78a.214.214 0 1 1 .428 0v1.78a.214.214 0 0 1-.214.214M36.948 7.738v1.78-1.78M36.948 9.732a.214.214 0 0 1-.213-.214v-1.78a.214.214 0 1 1 .427 0v1.78a.214.214 0 0 1-.214.214M38.016 7.738v1.78-1.78M38.016 9.732a.214.214 0 0 1-.213-.214v-1.78a.214.214 0 1 1 .427 0v1.78a.214.214 0 0 1-.214.214M27.335 20.07v1.78-1.78M27.335 22.063a.214.214 0 0 1-.214-.213v-1.78a.214.214 0 0 1 .427 0v1.78a.214.214 0 0 1-.213.213M28.403 20.07v1.78-1.78M28.403 22.063a.214.214 0 0 1-.214-.213v-1.78a.214.214 0 0 1 .427 0v1.78a.214.214 0 0 1-.213.213M29.47 20.07v1.78-1.78M29.47 22.063a.214.214 0 0 1-.213-.213v-1.78a.214.214 0 0 1 .428 0v1.78a.214.214 0 0 1-.214.213M30.54 20.07v1.78-1.78M30.54 22.063a.214.214 0 0 1-.214-.213v-1.78a.214.214 0 0 1 .427 0v1.78a.214.214 0 0 1-.214.213M31.607 20.07v1.78-1.78M31.607 22.063a.214.214 0 0 1-.213-.213v-1.78a.214.214 0 0 1 .427 0v1.78a.214.214 0 0 1-.214.213M32.675 20.07v1.78-1.78M32.675 22.063a.214.214 0 0 1-.213-.213v-1.78a.214.214 0 0 1 .427 0v1.78a.214.214 0 0 1-.214.213M33.744 20.07v1.78-1.78M33.744 22.063a.214.214 0 0 1-.214-.213v-1.78a.214.214 0 0 1 .427 0v1.78a.214.214 0 0 1-.213.213M34.812 20.07v1.78-1.78M34.812 22.063a.214.214 0 0 1-.214-.213v-1.78a.214.214 0 0 1 .427 0v1.78a.214.214 0 0 1-.213.213M35.88 20.07v1.78-1.78M35.88 22.063a.214.214 0 0 1-.214-.213v-1.78a.214.214 0 0 1 .428 0v1.78a.214.214 0 0 1-.214.213M36.948 20.07v1.78-1.78M36.948 22.063a.214.214 0 0 1-.213-.213v-1.78a.214.214 0 0 1 .427 0v1.78a.214.214 0 0 1-.214.213M38.016 20.07v1.78-1.78M38.016 22.063a.214.214 0 0 1-.213-.213v-1.78a.214.214 0 0 1 .427 0v1.78a.214.214 0 0 1-.214.213M39.696 9.45h-1.78 1.78"/>
    <path d="M39.696 9.663h-1.78a.214.214 0 0 1 0-.428h1.78a.214.214 0 0 1 0 .428M39.696 10.517h-1.78 1.78M39.696 10.73h-1.78a.214.214 0 1 1 0-.426h1.78a.214.214 0 0 1 0 .427M39.696 11.586h-1.78 1.78M39.696 11.8h-1.78a.214.214 0 1 1 0-.428h1.78a.214.214 0 0 1 0 .427M39.696 12.654h-1.78 1.78M39.696 12.867h-1.78a.214.214 0 1 1 0-.427h1.78a.214.214 0 1 1 0 .427M39.696 13.722h-1.78 1.78M39.696 13.936h-1.78a.214.214 0 1 1 0-.428h1.78a.214.214 0 0 1 0 .428M39.696 14.79h-1.78 1.78M39.696 15.004h-1.78a.214.214 0 1 1 0-.428h1.78a.214.214 0 0 1 0 .428M39.696 15.858h-1.78 1.78M39.696 16.072h-1.78a.214.214 0 0 1 0-.427h1.78a.214.214 0 1 1 0 .427M39.696 16.926h-1.78 1.78M39.696 17.14h-1.78a.214.214 0 0 1 0-.427h1.78a.214.214 0 0 1 0 .427M39.696 17.995h-1.78 1.78M39.696 18.208h-1.78a.214.214 0 1 1 0-.427h1.78a.214.214 0 0 1 0 .427M39.696 19.063h-1.78 1.78M39.696 19.276h-1.78a.214.214 0 0 1 0-.427h1.78a.214.214 0 1 1 0 .427M39.696 20.13h-1.78 1.78M39.696 20.345h-1.78a.214.214 0 1 1 0-.428h1.78a.214.214 0 0 1 0 .428M27.324 9.45h-1.78 1.78M27.324 9.663h-1.78a.214.214 0 0 1 0-.428h1.78a.214.214 0 0 1 0 .428M27.324 10.517h-1.78 1.78M27.324 10.73h-1.78a.214.214 0 0 1 0-.426h1.78a.214.214 0 0 1 0 .427M27.324 11.586h-1.78 1.78M27.324 11.8h-1.78a.214.214 0 1 1 0-.428h1.78a.214.214 0 0 1 0 .427M27.324 12.654h-1.78 1.78M27.324 12.867h-1.78a.214.214 0 0 1 0-.427h1.78a.214.214 0 1 1 0 .427M27.324 13.722h-1.78 1.78M27.324 13.936h-1.78a.214.214 0 0 1 0-.428h1.78a.214.214 0 0 1 0 .428M27.324 14.79h-1.78 1.78M27.324 15.004h-1.78a.214.214 0 0 1 0-.428h1.78a.214.214 0 0 1 0 .428M27.324 15.858h-1.78 1.78M27.324 16.072h-1.78a.214.214 0 0 1 0-.427h1.78a.214.214 0 1 1 0 .427M27.324 16.926h-1.78 1.78M27.324 17.14h-1.78a.214.214 0 0 1 0-.427h1.78a.214.214 0 1 1 0 .427M27.324 17.995h-1.78 1.78M27.324 18.208h-1.78a.214.214 0 1 1 0-.427h1.78a.214.214 0 0 1 0 .427M27.324 19.063h-1.78 1.78M27.324 19.276h-1.78a.214.214 0 0 1 0-.427h1.78a.214.214 0 1 1 0 .427M27.324 20.13h-1.78 1.78M27.324 20.345h-1.78a.214.214 0 0 1 0-.428h1.78a.214.214 0 0 1 0 .428"/>
  </g>
  <path d="M29.706 18.362a.603.603 0 0 1-.602-.603v-5.938c0-.332.27-.602.602-.602h5.938c.333 0 .603.27.603.602v5.938c0 .332-.27.603-.603.603h-5.938" fill="#424242"/>
  <path d="M35.644 18.096h-5.938a.336.336 0 0 1-.336-.337v-5.938c0-.186.15-.336.336-.336h5.938c.186 0 .337.15.337.336v5.938c0 .186-.15.337-.337.337" fill="#e7e8ed"/>
  <path d="M31.663 15.062l.002.007c.004.199-.057.354-.18.466-.125.112-.296.168-.515.168a.711.711 0 0 1-.539-.215.77.77 0 0 1-.205-.555v-.368c0-.226.066-.412.2-.556a.683.683 0 0 1 .525-.216c.226 0 .403.055.53.166.128.11.19.266.187.467l-.003.007h-.362c0-.119-.029-.207-.086-.266-.057-.058-.146-.087-.266-.087a.3.3 0 0 0-.26.134.595.595 0 0 0-.094.348v.37c0 .144.033.26.098.35.066.09.158.136.275.136.112 0 .195-.03.25-.088.054-.058.082-.147.082-.268h.36M32.301 14.716h.338c.104 0 .183-.028.236-.084a.301.301 0 0 0 .08-.217.316.316 0 0 0-.08-.22c-.052-.06-.131-.088-.236-.088h-.338zm0 .287v.674h-.372V13.82h.71c.214 0 .382.055.505.164.122.11.184.252.184.429 0 .178-.062.32-.184.428-.123.108-.291.162-.505.162h-.338M35.065 13.82v1.215a.61.61 0 0 1-.208.491.803.803 0 0 1-.54.177.793.793 0 0 1-.536-.177.613.613 0 0 1-.206-.49V13.82h.374v1.215c0 .124.033.219.1.284a.366.366 0 0 0 .268.099.374.374 0 0 0 .273-.099c.067-.065.1-.16.1-.284V13.82h.375" fill="#424242"/>
  <g fill="#eee">
    <path d="M18.206 57.636a.21.21 0 0 1-.15-.062.213.213 0 0 1-.063-.152V56.66h-.641v.762a.214.214 0 1 1-.427 0V56.66h-.641v.762a.214.214 0 0 1-.428 0V56.66h-.64v.762a.214.214 0 1 1-.428 0V56.66h-.64v.762a.214.214 0 1 1-.428 0V56.66h-.64v.762a.214.214 0 0 1-.428 0V56.66h-.641v.762a.214.214 0 1 1-.427 0V56.66h-.641v.762a.214.214 0 1 1-.427 0V56.66h-.641v.762a.214.214 0 0 1-.428 0V56.66h-.64v.762a.214.214 0 1 1-.428 0V56.66h-.64v.762a.214.214 0 1 1-.428 0v-.763h-.102a.639.639 0 0 1-.64-.64V55.917h-.835a.214.214 0 0 1 0-.427h.835v-.641h-.835a.213.213 0 0 1-.214-.214c0-.118.096-.214.214-.214h.835v-.64h-.835a.213.213 0 0 1 0-.428h.835v-.641h-.835a.213.213 0 0 1 0-.427h.835v-.641h-.835a.213.213 0 0 1 0-.427h.835v-.641h-.835a.214.214 0 0 1 0-.427h.835v-.641h-.835a.214.214 0 0 1 0-.427h.835v-.641h-.835a.213.213 0 0 1 0-.428h.835v-.641h-.835a.213.213 0 0 1 0-.427h.835v-.641h-.835a.213.213 0 1 1 0-.427h.835v-.641h-.835a.213.213 0 0 1 0-.427h.835v-.102a.64.64 0 0 1 .64-.64h.102v-.756a.214.214 0 1 1 .427 0v.755h.641V43.31a.214.214 0 1 1 .427 0v.755h.641V43.31a.214.214 0 1 1 .428 0v.755h.641V43.31a.214.214 0 1 1 .427 0v.755h.641V43.31a.214.214 0 1 1 .427 0v.755h.641V43.31a.214.214 0 1 1 .427 0v.755h.641V43.31a.214.214 0 1 1 .427 0v.755h.641V43.31a.214.214 0 1 1 .428 0v.755h.641V43.31a.214.214 0 1 1 .427 0v.755h.641V43.31a.214.214 0 1 1 .427 0v.755h.641V43.31a.214.214 0 1 1 .427 0v.755H18.522c.018 0 .037 0 .055.004.026.004.052.006.078.011a.675.675 0 0 1 .235.103.646.646 0 0 1 .273.525v.101h.744c.026.004.051.01.074.02a.214.214 0 0 1-.095.406h-.723v.641h.723a.214.214 0 0 1 0 .427h-.723v.641h.723a.214.214 0 0 1 0 .428h-.723v.64h.723a.212.212 0 0 1 .214.214.214.214 0 0 1-.214.214h-.723v.64h.723a.213.213 0 0 1 .214.214.214.214 0 0 1-.214.214h-.723v.64h.723a.212.212 0 0 1 .214.215.214.214 0 0 1-.214.213h-.723v.641h.723a.212.212 0 0 1 .214.214.214.214 0 0 1-.214.213h-.723v.641h.723a.213.213 0 0 1 .214.214.214.214 0 0 1-.214.214h-.723v.64h.723a.213.213 0 0 1 0 .428h-.723v.64h.723a.213.213 0 0 1 .214.214.214.214 0 0 1-.214.214h-.723v.64h.723a.214.214 0 0 1 0 .428h-.723v.102a.64.64 0 0 1-.641.64h-.102v.763a.214.214 0 0 1-.214.214"/>
    <path d="M18.522 56.66H7.209a.64.64 0 0 1-.64-.641V44.707a.64.64 0 0 1 .64-.641h11.313a.64.64 0 0 1 .64.64V56.02a.64.64 0 0 1-.64.64M7.525 43.31v1.78-1.78"/>
    <path d="M7.525 45.304a.214.214 0 0 1-.214-.213v-1.78a.214.214 0 1 1 .427 0v1.78a.214.214 0 0 1-.213.213M8.593 43.31v1.78-1.78M8.593 45.304a.214.214 0 0 1-.214-.213v-1.78a.214.214 0 1 1 .427 0v1.78a.214.214 0 0 1-.213.213M9.66 43.31v1.78-1.78M9.66 45.304a.214.214 0 0 1-.213-.213v-1.78a.214.214 0 1 1 .428 0v1.78a.214.214 0 0 1-.214.213M10.73 43.31v1.78-1.78M10.73 45.304a.214.214 0 0 1-.214-.213v-1.78a.214.214 0 1 1 .427 0v1.78a.214.214 0 0 1-.214.213M11.797 43.31v1.78-1.78M11.797 45.304a.214.214 0 0 1-.213-.213v-1.78a.214.214 0 1 1 .427 0v1.78a.214.214 0 0 1-.214.213M12.865 43.31v1.78-1.78M12.865 45.304a.214.214 0 0 1-.213-.213v-1.78a.214.214 0 1 1 .427 0v1.78a.214.214 0 0 1-.214.213M13.934 43.31v1.78-1.78M13.934 45.304a.214.214 0 0 1-.214-.213v-1.78a.214.214 0 1 1 .427 0v1.78a.214.214 0 0 1-.213.213M15.002 43.31v1.78-1.78M15.002 45.304a.214.214 0 0 1-.214-.213v-1.78a.214.214 0 1 1 .427 0v1.78a.214.214 0 0 1-.213.213M16.07 43.31v1.78-1.78M16.07 45.304a.214.214 0 0 1-.214-.213v-1.78a.214.214 0 1 1 .428 0v1.78a.214.214 0 0 1-.214.213M17.138 43.31v1.78-1.78M17.138 45.304a.214.214 0 0 1-.213-.213v-1.78a.214.214 0 1 1 .427 0v1.78a.214.214 0 0 1-.214.213M18.206 43.31v1.78-1.78M18.206 45.304a.214.214 0 0 1-.213-.213v-1.78a.214.214 0 1 1 .427 0v1.78a.214.214 0 0 1-.214.213M7.525 55.642v1.78-1.78M7.525 57.636a.214.214 0 0 1-.214-.214v-1.78a.214.214 0 0 1 .427 0v1.78a.214.214 0 0 1-.213.214M8.593 55.642v1.78-1.78M8.593 57.636a.214.214 0 0 1-.214-.214v-1.78a.214.214 0 0 1 .427 0v1.78a.214.214 0 0 1-.213.214M9.66 55.642v1.78-1.78M9.66 57.636a.214.214 0 0 1-.213-.214v-1.78a.214.214 0 0 1 .428 0v1.78a.214.214 0 0 1-.214.214M10.73 55.642v1.78-1.78M10.73 57.636a.214.214 0 0 1-.214-.214v-1.78a.214.214 0 0 1 .427 0v1.78a.214.214 0 0 1-.214.214M11.797 55.642v1.78-1.78M11.797 57.636a.214.214 0 0 1-.213-.214v-1.78a.214.214 0 0 1 .427 0v1.78a.214.214 0 0 1-.214.214M12.865 55.642v1.78-1.78M12.865 57.636a.214.214 0 0 1-.213-.214v-1.78a.214.214 0 0 1 .427 0v1.78a.214.214 0 0 1-.214.214M13.934 55.642v1.78-1.78M13.934 57.636a.214.214 0 0 1-.214-.214v-1.78a.214.214 0 0 1 .427 0v1.78a.214.214 0 0 1-.213.214M15.002 55.642v1.78-1.78M15.002 57.636a.214.214 0 0 1-.214-.214v-1.78a.214.214 0 0 1 .427 0v1.78a.214.214 0 0 1-.213.214M16.07 55.642v1.78-1.78M16.07 57.636a.214.214 0 0 1-.214-.214v-1.78a.214.214 0 0 1 .428 0v1.78a.214.214 0 0 1-.214.214M17.138 55.642v1.78-1.78M17.138 57.636a.214.214 0 0 1-.213-.214v-1.78a.214.214 0 0 1 .427 0v1.78a.214.214 0 0 1-.214.214M18.206 55.642v1.78-1.78M18.206 57.636a.214.214 0 0 1-.213-.214v-1.78a.214.214 0 0 1 .427 0v1.78a.214.214 0 0 1-.214.214M19.886 45.022h-1.78 1.78"/>
    <path d="M19.886 45.235h-1.78a.214.214 0 0 1 0-.427h1.78a.214.214 0 0 1 0 .427M19.886 46.09h-1.78 1.78M19.886 46.303h-1.78a.214.214 0 1 1 0-.427h1.78a.214.214 0 0 1 0 .427M19.886 47.158h-1.78 1.78M19.886 47.372h-1.78a.214.214 0 1 1 0-.428h1.78a.214.214 0 0 1 0 .428M19.886 48.226h-1.78 1.78M19.886 48.44h-1.78a.214.214 0 1 1 0-.427h1.78a.214.214 0 1 1 0 .427M19.886 49.294h-1.78 1.78M19.886 49.508h-1.78a.214.214 0 1 1 0-.427h1.78a.214.214 0 0 1 0 .427M19.886 50.363h-1.78 1.78M19.886 50.576h-1.78a.214.214 0 1 1 0-.427h1.78a.214.214 0 0 1 0 .427M19.886 51.43h-1.78 1.78M19.886 51.644h-1.78a.214.214 0 0 1 0-.427h1.78a.214.214 0 1 1 0 .427M19.886 52.499h-1.78 1.78M19.886 52.713h-1.78a.214.214 0 0 1 0-.428h1.78a.214.214 0 0 1 0 .428M19.886 53.567h-1.78 1.78M19.886 53.78h-1.78a.214.214 0 1 1 0-.427h1.78a.214.214 0 0 1 0 .428M19.886 54.635h-1.78 1.78M19.886 54.85h-1.78a.214.214 0 0 1 0-.428h1.78a.214.214 0 1 1 0 .427M19.886 55.703h-1.78 1.78M19.886 55.917h-1.78a.214.214 0 1 1 0-.427h1.78a.214.214 0 0 1 0 .427M7.514 45.022h-1.78 1.78M7.514 45.235h-1.78a.214.214 0 0 1 0-.427h1.78a.214.214 0 0 1 0 .427M7.514 46.09h-1.78 1.78M7.514 46.303h-1.78a.214.214 0 0 1 0-.427h1.78a.214.214 0 0 1 0 .427M7.514 47.158h-1.78 1.78M7.514 47.372h-1.78a.214.214 0 1 1 0-.428h1.78a.214.214 0 0 1 0 .428M7.514 48.226h-1.78 1.78M7.514 48.44h-1.78a.214.214 0 0 1 0-.427h1.78a.214.214 0 1 1 0 .427M7.514 49.294h-1.78 1.78M7.514 49.508h-1.78a.214.214 0 0 1 0-.427h1.78a.214.214 0 0 1 0 .427M7.514 50.363h-1.78 1.78M7.514 50.576h-1.78a.214.214 0 0 1 0-.427h1.78a.214.214 0 0 1 0 .427M7.514 51.43h-1.78 1.78M7.514 51.644h-1.78a.214.214 0 0 1 0-.427h1.78a.214.214 0 1 1 0 .427M7.514 52.499h-1.78 1.78M7.514 52.713h-1.78a.214.214 0 0 1 0-.428h1.78a.214.214 0 1 1 0 .428M7.514 53.567h-1.78 1.78M7.514 53.78h-1.78a.214.214 0 1 1 0-.427h1.78a.214.214 0 0 1 0 .428M7.514 54.635h-1.78 1.78M7.514 54.85h-1.78a.214.214 0 0 1 0-.428h1.78a.214.214 0 1 1 0 .427M7.514 55.703h-1.78 1.78M7.514 55.917h-1.78a.214.214 0 0 1 0-.427h1.78a.214.214 0 0 1 0 .427"/>
  </g>
  <path d="M9.896 53.934a.603.603 0 0 1-.602-.602v-5.938c0-.333.27-.603.602-.603h5.938c.333 0 .603.27.603.603v5.938c0 .332-.27.602-.603.602H9.896" fill="#424242"/>
  <path d="M15.834 53.668H9.896a.336.336 0 0 1-.336-.336v-5.938c0-.186.15-.337.336-.337h5.938c.186 0 .337.15.337.337v5.938c0 .186-.15.336-.337.336" fill="#e7e8ed"/>
  <path d="M11.853 50.634l.002.008c.004.198-.057.353-.18.465-.125.113-.296.169-.515.169a.711.711 0 0 1-.539-.215.77.77 0 0 1-.205-.555v-.369c0-.226.066-.411.2-.555a.683.683 0 0 1 .525-.216c.226 0 .403.055.53.166.128.11.19.266.187.466l-.003.008h-.362c0-.12-.029-.208-.086-.266-.057-.058-.146-.088-.266-.088a.3.3 0 0 0-.26.135.595.595 0 0 0-.094.347v.371c0 .143.033.26.099.35.065.09.157.135.274.135.112 0 .195-.029.25-.087.054-.058.082-.148.082-.269h.36M12.491 50.289h.338c.104 0 .183-.028.236-.085a.301.301 0 0 0 .08-.216.316.316 0 0 0-.08-.221c-.052-.058-.131-.087-.236-.087h-.338zm0 .287v.673h-.372v-1.857h.71c.214 0 .382.055.505.164.122.11.184.253.184.43s-.062.32-.184.428c-.123.108-.291.162-.505.162h-.338M15.255 49.392v1.216a.61.61 0 0 1-.208.49.803.803 0 0 1-.54.178.793.793 0 0 1-.536-.177.613.613 0 0 1-.206-.491v-1.216h.374v1.216c0 .124.033.219.1.284a.366.366 0 0 0 .268.098.374.374 0 0 0 .273-.098c.067-.065.1-.16.1-.284v-1.216h.375" fill="#424242"/>
  <g fill="#eee">
    <path d="M37.928 93.02a.21.21 0 0 1-.15-.062.213.213 0 0 1-.063-.152V92.043h-.641v.763a.214.214 0 1 1-.428 0V92.043h-.64v.763a.214.214 0 0 1-.428 0V92.043h-.64v.763a.214.214 0 1 1-.428 0V92.043h-.641v.763a.214.214 0 1 1-.427 0V92.043H32.8v.763a.214.214 0 0 1-.427 0V92.043h-.641v.763a.214.214 0 1 1-.428 0V92.043h-.64v.763a.214.214 0 1 1-.428 0V92.043h-.64v.763a.214.214 0 0 1-.428 0V92.043h-.64v.763a.214.214 0 1 1-.428 0V92.043h-.641v.763a.214.214 0 1 1-.427 0V92.043h-.102a.639.639 0 0 1-.64-.641V91.3h-.835a.214.214 0 0 1 0-.427H26.29v-.641h-.834a.213.213 0 0 1-.214-.213c0-.118.096-.214.214-.214H26.29v-.641h-.834a.213.213 0 0 1 0-.427H26.29v-.641h-.834a.213.213 0 0 1 0-.428H26.29v-.641h-.834a.213.213 0 0 1 0-.427H26.29v-.641h-.834a.214.214 0 0 1 0-.427H26.29v-.641h-.834a.214.214 0 0 1 0-.427H26.29v-.641h-.834a.213.213 0 0 1 0-.427H26.29v-.641h-.834a.213.213 0 0 1 0-.428H26.29v-.641h-.834a.213.213 0 1 1 0-.427H26.29v-.64h-.834a.213.213 0 0 1 0-.428h.834v-.101a.64.64 0 0 1 .641-.641h.102v-.755a.214.214 0 1 1 .427 0v.755h.641V78.694a.214.214 0 1 1 .427 0v.755h.641V78.694a.214.214 0 1 1 .427 0v.755h.641V78.694a.214.214 0 1 1 .428 0v.755h.64V78.694a.214.214 0 1 1 .428 0v.755h.641V78.694a.214.214 0 1 1 .427 0v.755h.641V78.694a.214.214 0 1 1 .427 0v.755h.641V78.694a.214.214 0 1 1 .427 0v.755h.641V78.694a.214.214 0 1 1 .427 0v.755h.641V78.694a.214.214 0 1 1 .428 0v.755h.641V78.694a.214.214 0 1 1 .427 0v.755H38.244c.018 0 .036 0 .054.004l.079.01a.675.675 0 0 1 .234.103.646.646 0 0 1 .274.525v.102h.744a.214.214 0 0 1-.02.426h-.724v.64h.723a.214.214 0 0 1 0 .428h-.723v.64h.723a.214.214 0 0 1 0 .428h-.724v.641h.724a.212.212 0 0 1 .214.214.214.214 0 0 1-.214.213h-.724v.641h.724a.213.213 0 0 1 .214.214.214.214 0 0 1-.214.214h-.724v.64h.724a.212.212 0 0 1 .214.214.214.214 0 0 1-.214.214h-.724v.64h.724a.212.212 0 0 1 .214.214.214.214 0 0 1-.214.214h-.724v.64h.724a.213.213 0 0 1 .214.214.214.214 0 0 1-.214.214h-.724v.64h.724a.213.213 0 0 1 0 .428h-.724v.641h.724a.213.213 0 0 1 .213.214.214.214 0 0 1-.213.213h-.724v.641h.724a.214.214 0 0 1 0 .428h-.724v.101a.64.64 0 0 1-.64.641h-.102v.763a.214.214 0 0 1-.214.213"/>
    <path d="M38.244 92.043H26.93a.64.64 0 0 1-.64-.64V80.09a.64.64 0 0 1 .64-.64h11.313a.64.64 0 0 1 .64.64v11.312a.64.64 0 0 1-.64.641M27.246 78.694v1.78-1.78"/>
    <path d="M27.246 80.688a.214.214 0 0 1-.213-.214v-1.78a.214.214 0 1 1 .427 0v1.78a.214.214 0 0 1-.214.214M28.314 78.694v1.78-1.78M28.314 80.688a.214.214 0 0 1-.213-.214v-1.78a.214.214 0 1 1 .427 0v1.78a.214.214 0 0 1-.214.214M29.383 78.694v1.78-1.78M29.383 80.688a.214.214 0 0 1-.214-.214v-1.78a.214.214 0 1 1 .427 0v1.78a.214.214 0 0 1-.213.214M30.45 78.694v1.78-1.78M30.45 80.688a.214.214 0 0 1-.213-.214v-1.78a.214.214 0 1 1 .428 0v1.78a.214.214 0 0 1-.214.214M31.52 78.694v1.78-1.78M31.52 80.688a.214.214 0 0 1-.215-.214v-1.78a.214.214 0 1 1 .428 0v1.78a.214.214 0 0 1-.214.214M32.587 78.694v1.78-1.78M32.587 80.688a.214.214 0 0 1-.213-.214v-1.78a.214.214 0 1 1 .427 0v1.78a.214.214 0 0 1-.214.214M33.655 78.694v1.78-1.78M33.655 80.688a.214.214 0 0 1-.213-.214v-1.78a.214.214 0 1 1 .427 0v1.78a.214.214 0 0 1-.214.214M34.724 78.694v1.78-1.78M34.724 80.688a.214.214 0 0 1-.214-.214v-1.78a.214.214 0 1 1 .427 0v1.78a.214.214 0 0 1-.213.214M35.792 78.694v1.78-1.78M35.792 80.688a.214.214 0 0 1-.214-.214v-1.78a.214.214 0 1 1 .427 0v1.78a.214.214 0 0 1-.213.214M36.86 78.694v1.78-1.78M36.86 80.688a.214.214 0 0 1-.214-.214v-1.78a.214.214 0 1 1 .428 0v1.78a.214.214 0 0 1-.214.214M37.928 78.694v1.78-1.78M37.928 80.688a.214.214 0 0 1-.213-.214v-1.78a.214.214 0 1 1 .427 0v1.78a.214.214 0 0 1-.214.214M27.246 91.026v1.78-1.78M27.246 93.02a.214.214 0 0 1-.213-.214v-1.78a.214.214 0 0 1 .427 0v1.78a.214.214 0 0 1-.214.214M28.314 91.026v1.78-1.78M28.314 93.02a.214.214 0 0 1-.213-.214v-1.78a.214.214 0 0 1 .427 0v1.78a.214.214 0 0 1-.214.214M29.383 91.026v1.78-1.78M29.383 93.02a.214.214 0 0 1-.214-.214v-1.78a.214.214 0 0 1 .427 0v1.78a.214.214 0 0 1-.213.214M30.45 91.026v1.78-1.78M30.45 93.02a.214.214 0 0 1-.213-.214v-1.78a.214.214 0 0 1 .428 0v1.78a.214.214 0 0 1-.214.214M31.52 91.026v1.78-1.78M31.52 93.02a.214.214 0 0 1-.215-.214v-1.78a.214.214 0 0 1 .428 0v1.78a.214.214 0 0 1-.214.214M32.587 91.026v1.78-1.78M32.587 93.02a.214.214 0 0 1-.213-.214v-1.78a.214.214 0 0 1 .427 0v1.78a.214.214 0 0 1-.214.214M33.655 91.026v1.78-1.78M33.655 93.02a.214.214 0 0 1-.213-.214v-1.78a.214.214 0 0 1 .427 0v1.78a.214.214 0 0 1-.214.214M34.724 91.026v1.78-1.78M34.724 93.02a.214.214 0 0 1-.214-.214v-1.78a.214.214 0 0 1 .427 0v1.78a.214.214 0 0 1-.213.214M35.792 91.026v1.78-1.78M35.792 93.02a.214.214 0 0 1-.214-.214v-1.78a.214.214 0 0 1 .427 0v1.78a.214.214 0 0 1-.213.214M36.86 91.026v1.78-1.78M36.86 93.02a.214.214 0 0 1-.214-.214v-1.78a.214.214 0 0 1 .428 0v1.78a.214.214 0 0 1-.214.214M37.928 91.026v1.78-1.78M37.928 93.02a.214.214 0 0 1-.213-.214v-1.78a.214.214 0 0 1 .427 0v1.78a.214.214 0 0 1-.214.214M39.608 80.405h-1.78 1.78"/>
    <path d="M39.608 80.619h-1.78a.214.214 0 0 1 0-.428h1.78a.214.214 0 0 1 0 .428M39.608 81.473h-1.78 1.78M39.608 81.687h-1.78a.214.214 0 1 1 0-.427h1.78a.214.214 0 0 1 0 .427M39.608 82.542h-1.78 1.78M39.608 82.755h-1.78a.214.214 0 1 1 0-.427h1.78a.214.214 0 0 1 0 .427M39.608 83.61h-1.78 1.78M39.608 83.823h-1.78a.214.214 0 1 1 0-.427h1.78a.214.214 0 1 1 0 .427M39.608 84.678h-1.78 1.78M39.608 84.892h-1.78a.214.214 0 1 1 0-.428h1.78a.214.214 0 0 1 0 .428M39.608 85.746h-1.78 1.78M39.608 85.96h-1.78a.214.214 0 1 1 0-.428h1.78a.214.214 0 0 1 0 .428M39.608 86.814h-1.78 1.78M39.608 87.028h-1.78a.214.214 0 0 1 0-.427h1.78a.214.214 0 1 1 0 .427M39.608 87.882h-1.78 1.78M39.608 88.096h-1.78a.214.214 0 0 1 0-.427h1.78a.214.214 0 0 1 0 .427M39.608 88.95h-1.78 1.78M39.608 89.164h-1.78a.214.214 0 1 1 0-.427h1.78a.214.214 0 0 1 0 .427M39.608 90.019h-1.78 1.78M39.608 90.233h-1.78a.214.214 0 0 1 0-.428h1.78a.214.214 0 1 1 0 .428M39.608 91.087h-1.78 1.78M39.608 91.3h-1.78a.214.214 0 1 1 0-.427h1.78a.214.214 0 0 1 0 .428M27.236 80.405h-1.78 1.78M27.236 80.619h-1.78a.214.214 0 0 1 0-.428h1.78a.214.214 0 0 1 0 .428M27.236 81.473h-1.78 1.78M27.236 81.687h-1.78a.214.214 0 0 1 0-.427h1.78a.214.214 0 0 1 0 .427M27.236 82.542h-1.78 1.78M27.236 82.755h-1.78a.214.214 0 1 1 0-.427h1.78a.214.214 0 0 1 0 .427M27.236 83.61h-1.78 1.78M27.236 83.823h-1.78a.214.214 0 0 1 0-.427h1.78a.214.214 0 1 1 0 .427M27.236 84.678h-1.78 1.78M27.236 84.892h-1.78a.214.214 0 0 1 0-.428h1.78a.214.214 0 0 1 0 .428M27.236 85.746h-1.78 1.78M27.236 85.96h-1.78a.214.214 0 0 1 0-.428h1.78a.214.214 0 0 1 0 .428M27.236 86.814h-1.78 1.78M27.236 87.028h-1.78a.214.214 0 0 1 0-.427h1.78a.214.214 0 1 1 0 .427M27.236 87.882h-1.78 1.78M27.236 88.096h-1.78a.214.214 0 0 1 0-.427h1.78a.214.214 0 1 1 0 .427M27.236 88.95h-1.78 1.78M27.236 89.164h-1.78a.214.214 0 1 1 0-.427h1.78a.214.214 0 0 1 0 .427M27.236 90.019h-1.78 1.78M27.236 90.233h-1.78a.214.214 0 0 1 0-.428h1.78a.214.214 0 1 1 0 .428M27.236 91.087h-1.78 1.78M27.236 91.3h-1.78a.214.214 0 0 1 0-.427h1.78a.214.214 0 0 1 0 .428"/>
  </g>
  <path d="M29.618 89.318a.603.603 0 0 1-.602-.603v-5.938c0-.332.27-.602.602-.602h5.938c.333 0 .603.27.603.602v5.938c0 .333-.27.603-.603.603h-5.938" fill="#424242"/>
  <path d="M35.556 89.052h-5.938a.336.336 0 0 1-.336-.337v-5.938c0-.186.15-.336.336-.336h5.938c.186 0 .337.15.337.336v5.938c0 .186-.15.337-.337.337" fill="#e7e8ed"/>
  <path d="M31.574 86.018l.003.008c.003.198-.057.353-.181.465-.124.112-.295.168-.514.168a.711.711 0 0 1-.54-.215.77.77 0 0 1-.205-.555v-.368c0-.226.067-.412.2-.556a.683.683 0 0 1 .526-.216c.226 0 .403.055.53.166.128.11.19.266.187.467l-.003.007h-.362c0-.119-.029-.207-.086-.266-.058-.058-.146-.087-.266-.087a.3.3 0 0 0-.26.134.595.595 0 0 0-.095.348v.371c0 .143.033.26.1.35.065.09.157.135.274.135.111 0 .195-.03.25-.088.054-.058.082-.147.082-.268h.36M32.213 85.672h.338c.104 0 .182-.028.236-.084a.301.301 0 0 0 .08-.217.316.316 0 0 0-.08-.22c-.053-.059-.131-.088-.236-.088h-.338zm0 .287v.674h-.372v-1.857h.71c.213 0 .381.055.504.164.123.11.185.252.185.429 0 .178-.062.32-.185.428-.123.108-.29.162-.504.162h-.338M34.976 84.776v1.215a.61.61 0 0 1-.208.491.803.803 0 0 1-.539.177.793.793 0 0 1-.536-.177.613.613 0 0 1-.206-.49v-1.216h.374v1.215c0 .124.033.22.099.285a.366.366 0 0 0 .269.098.374.374 0 0 0 .273-.098c.067-.066.1-.16.1-.285v-1.215h.374" fill="#424242"/>
  <path d="M56 33.46l-.039-.04a.699.699 0 1 0-.697 1.213c.334.195.782.092.973-.24a.687.687 0 0 0-.237-.95zm-2.706-1.56l-.036-.04a.703.703 0 0 0-.955.258.699.699 0 0 0 .254.955c.334.194.783.087.974-.245a.679.679 0 0 0-.237-.946zm-2.705-1.558l-.04-.04a.692.692 0 0 0-.952.254.69.69 0 0 0 .254.953c.334.198.783.091.974-.242a.677.677 0 0 0-.237-.941zm-2.706-1.562l-.036-.04a.699.699 0 1 0-.7 1.211c.333.19.782.088.977-.245.19-.337.093-.753-.24-.943zm-2.705-1.564h-.02a.7.7 0 1 0-.7 1.212.72.72 0 0 0 .97-.25.69.69 0 0 0-.248-.949zM56 67.655l-.039.04a.699.699 0 1 1-.697-1.213c.334-.194.782-.091.973.242a.687.687 0 0 1-.237.95zm-2.706 1.56l-.036.04a.703.703 0 0 1-.955-.257.699.699 0 0 1 .254-.955c.334-.194.783-.087.974.245.196.333.1.752-.237.946zm-2.705 1.558l-.04.04a.692.692 0 0 1-.952-.253.69.69 0 0 1 .254-.953c.334-.198.783-.091.974.241a.677.677 0 0 1-.237.942zm-2.706 1.562l-.036.04a.699.699 0 1 1-.7-1.21c.333-.19.782-.088.977.245.19.336.093.753-.24.943zM45.178 73.9h-.02a.7.7 0 1 1-.7-1.212.72.72 0 0 1 .97.25.69.69 0 0 1-.248.948z" fill="#012c4f" fill-rule="evenodd"/>
  <path d="M93.176 97.168H55.352a3.723 3.723 0 0 1-3.723-3.724V7.097a3.724 3.724 0 0 1 3.723-3.723h37.824A3.724 3.724 0 0 1 96.9 7.097v86.347a3.723 3.723 0 0 1-3.724 3.724" fill="#616161"/>
  <path d="M96.9 93.444V59.937C93.25 52.35 84.497 47 74.263 47c-10.233 0-18.986 5.35-22.634 12.936v33.507a3.723 3.723 0 0 0 3.723 3.724h37.824a3.723 3.723 0 0 0 3.724-3.724" fill="#424242"/>
  <path d="M75.22 97.168H73.31V68.123h1.911v29.045" fill="#616161"/>
  <path d="M74.263 68.853c-1.741 0-3.339-1.037-4.383-2.844l-2.363-4.096c-1.044-1.808-1.142-3.71-.272-5.217.87-1.51 2.567-2.375 4.655-2.375h4.728c2.088 0 3.783.865 4.655 2.375.872 1.508.773 3.41-.27 5.217l-2.367 4.096c-1.041 1.807-2.639 2.844-4.383 2.844" fill="#212121"/>
  <path d="M69.667 60.671l2.363 4.097c1.235 2.136 3.235 2.136 4.468 0l2.364-4.097c1.234-2.137.234-3.867-2.234-3.867H71.9c-2.466 0-3.467 1.73-2.233 3.867" fill="#b3b3b3"/>
  <path d="M94.145 19.972h-39.76V9.635h39.76v10.337M94.145 31.9h-39.76V21.562h39.76V31.9" fill="#424242"/>
  <path d="M64.733 37.687h-6.044V34.83h6.044v2.857" fill="#757575"/>
  <path d="M64.733 35.88h-6.044v-1.05h6.044v1.05" fill="#424242"/>
  <path d="M74.042 37.687H68V34.83h6.043v2.857" fill="#757575"/>
  <path d="M74.042 35.88H68v-1.05h6.043v1.05" fill="#424242"/>
  <path d="M80.484 36.494a1.138 1.138 0 1 1-2.277 0 1.138 1.138 0 0 1 2.277 0" fill="#302f30"/>
  <path d="M79.345 37.382a.89.89 0 1 1 0-1.779.89.89 0 0 1 0 1.78" fill="#757575"/>
  <path d="M84.905 36.494a1.138 1.138 0 1 1-2.276 0 1.138 1.138 0 0 1 2.276 0" fill="#302f30"/>
  <path d="M83.767 37.382a.89.89 0 1 1 0-1.778.89.89 0 0 1 0 1.778" fill="#757575"/>
  <path d="M89.84 36.494a.89.89 0 1 1-1.78-.002.89.89 0 0 1 1.78.002" fill="#9ccc65"/>
  <path d="M92.626 25.037h-3.677V23.33h3.677v1.707M92.626 13.012h-3.677v-1.707h3.677v1.707" fill="#616161"/>
  <path d="M51.629 92.28v1.164a3.723 3.723 0 0 0 3.723 3.724h37.824a3.723 3.723 0 0 0 3.724-3.724V92.28H51.629" fill="#141417"/>
  <path d="M45.323 49.809l-.054-.016a.699.699 0 1 0-.027 1.399c.385.01.728-.296.736-.68a.687.687 0 0 0-.664-.719zm-3.124-.066l-.05-.018a.704.704 0 0 0-.714.685.699.699 0 0 0 .682.716c.386.01.728-.3.736-.684a.679.679 0 0 0-.663-.715zm-3.12-.064l-.054-.016a.692.692 0 0 0-.713.68.69.69 0 0 0 .68.713c.388.013.73-.296.738-.68a.677.677 0 0 0-.66-.712zm-3.125-.068l-.05-.018a.699.699 0 1 0-.03 1.398c.382.007.726-.3.737-.685.005-.386-.28-.705-.664-.711zm-3.123-.07l-.018.009a.7.7 0 1 0-.031 1.4.72.72 0 0 0 .731-.686.69.69 0 0 0-.674-.712z" fill="#012c4f" fill-rule="evenodd"/>
</svg>
