<svg xmlns="http://www.w3.org/2000/svg" width="131.253" height="128" viewBox="0 0 34.727 33.867">
  <path d="M17.363 0C7.77 0 0 7.774 0 17.363c0 7.673 4.975 14.18 11.872 16.474.868.163 1.187-.374 1.187-.835 0-.413-.016-1.505-.022-2.952-4.83 1.048-5.848-2.33-5.848-2.33-.79-2.003-1.932-2.539-1.932-2.539-1.573-1.076.122-1.055.122-1.055 1.743.122 2.66 1.789 2.66 1.789 1.547 2.655 4.064 1.888 5.056 1.444.157-1.123.604-1.889 1.1-2.323-3.856-.434-7.91-1.927-7.91-8.58 0-1.895.674-3.444 1.788-4.66-.196-.438-.782-2.203.152-4.595 0 0 1.454-.466 4.775 1.78a16.646 16.646 0 0 1 4.34-.586c1.476.01 2.952.2 4.341.586 3.3-2.246 4.753-1.78 4.753-1.78.934 2.392.348 4.157.174 4.596 1.107 1.215 1.78 2.763 1.78 4.66 0 6.67-4.059 8.138-7.922 8.565.608.52 1.172 1.586 1.172 3.212 0 2.324-.021 4.19-.021 4.755 0 .456.303.998 1.193.825 6.947-2.278 11.917-8.789 11.917-16.45C34.727 7.773 26.953 0 17.364 0z" fill="#fafafa"/>
</svg>
