<svg xmlns="http://www.w3.org/2000/svg" xmlns:xlink="http://www.w3.org/1999/xlink" width="1920" height="560" viewBox="0 0 508 148.167">
  <defs>
    <linearGradient id="b">
      <stop offset="0" stop-color="#141417"/>
      <stop offset="1" stop-color="#141417" stop-opacity="0"/>
    </linearGradient>
    <linearGradient id="a">
      <stop offset="0" stop-color="#141417"/>
      <stop offset="1" stop-color="#01579b"/>
    </linearGradient>
    <linearGradient xlink:href="#a" id="c" x1="248.649" y1="-163.344" x2="248.649" y2="-94.332" gradientUnits="userSpaceOnUse"/>
    <linearGradient xlink:href="#b" id="d" x1="251.694" y1="-287.12" x2="251.694" y2="-251.091" gradientUnits="userSpaceOnUse" gradientTransform="matrix(1 0 0 2.05485 0 377.754)"/>
  </defs>
  <path fill="#141417" d="M0-999.975h508v31.75H0z"/>
  <text style="line-height:1.25;-inkscape-font-specification:bosun" x="15.54" y="-93.172" font-weight="400" font-size="11.542" font-family="bosun" letter-spacing="0" word-spacing="0" fill="#fafafa" stroke-width=".12" transform="translate(0 -886.87)">
    <tspan x="15.54" y="-93.172" style="-inkscape-font-specification:bosun"><tspan fill="#558b2f">webchain.</tspan>network</tspan>
  </text>
  <text style="line-height:1.25;-inkscape-font-specification:Raleway" x="393.545" y="-94.232" font-weight="400" font-size="7.056" font-family="Raleway" letter-spacing="0" word-spacing="0" fill="#fafafa" stroke-width=".265" transform="translate(0 -886.87)">
    <tspan x="393.545" y="-94.232" style="-inkscape-font-specification:Raleway">link 1 link 2 link 3 link 4</tspan>
  </text>
  <path opacity=".3" fill="#ffcdd2" d="M-840.273 0h508v285.75h-508z"/>
  <g fill="#1a1a1a">
    <text style="line-height:1.25;-inkscape-font-specification:Raleway" x="303.587" y="32.768" font-weight="400" font-size="7.056" font-family="Raleway" letter-spacing="0" word-spacing="0" stroke-width=".265" transform="translate(62.011 -939.788)">
      <tspan x="303.587" y="32.768" style="-inkscape-font-specification:Raleway">link 1 link 2 link 3 link 4</tspan>
    </text>
    <path d="M483.443-917.543a8.68 8.68 0 0 0-8.682 8.681 8.68 8.68 0 0 0 5.936 8.237c.434.082.594-.187.594-.417 0-.207-.008-.753-.011-1.476-2.415.524-2.924-1.165-2.924-1.165-.395-1.002-.966-1.27-.966-1.27-.787-.538.06-.527.06-.527.872.06 1.33.894 1.33.894.774 1.328 2.033.944 2.529.722.078-.561.302-.944.55-1.161-1.928-.217-3.955-.964-3.955-4.29 0-.948.337-1.722.894-2.33-.098-.22-.39-1.102.076-2.298 0 0 .727-.233 2.387.89a8.323 8.323 0 0 1 2.17-.293 8.35 8.35 0 0 1 2.17.293c1.65-1.123 2.378-.89 2.378-.89.466 1.196.173 2.079.086 2.298.554.608.89 1.382.89 2.33 0 3.335-2.029 4.07-3.96 4.283.303.26.585.793.585 1.606 0 1.162-.01 2.095-.01 2.377 0 .228.152.5.596.413a8.652 8.652 0 0 0 5.959-8.226 8.682 8.682 0 0 0-8.682-8.681z"/>
  </g>
  <path fill="url(#c)" d="M0-245.547h508V-97.38H0z" transform="translate(0 245.547)"/>
  <path d="M300.828 129.006h-16.763a3.874 3.874 0 0 1-3.874-3.873V89.542a3.874 3.874 0 0 1 3.874-3.874h16.763a3.874 3.874 0 0 1 3.874 3.874v35.59a3.874 3.874 0 0 1-3.874 3.874zM280.191 90.966h24.51M280.191 121.24h24.51" fill="none" stroke="#00bcf2" stroke-width="1.26926" stroke-miterlimit="10"/>
  <path d="M295.025 126.337h-5.157a.82.82 0 0 1 0-1.638h5.157a.82.82 0 1 1 0 1.638z" fill="none" stroke="#00bcf2" stroke-width="1.26926" stroke-miterlimit="10"/>
  <path d="M293.144 88.358a.698.698 0 1 1-1.395 0 .698.698 0 0 1 1.395 0" fill="#feffea"/>
  <path d="M293.144 88.358a.698.698 0 1 1-1.395 0 .698.698 0 0 1 1.395 0z" fill="none" stroke="#00bcf2" stroke-width="1.26926" stroke-miterlimit="10"/>
  <path d="M300.425 115.902h-15.957v-4.005h15.957z" fill="none" stroke="#00bcf2" stroke-width="1.269" stroke-miterlimit="10"/>
  <path d="M284.468 107.833h15.957M284.468 105.228h15.957M284.468 102.624h15.957M284.468 100.02h15.957M284.468 97.415h15.957" fill="none" stroke="#00bcf2" stroke-width="1.26926" stroke-miterlimit="10"/>
  <path d="M508 116.115h-47.338V82.282c0-.905.733-1.638 1.637-1.638h45.7" fill="none" stroke="#00bcf2" stroke-width="1.2691902599999998" stroke-miterlimit="10"/>
  <path d="M508 112.295h-43.518v-27.83H508M508 116.115h-49.905a.616.616 0 0 0-.616.616v3.315c0 .34.276.617.616.617H508" fill="none" stroke="#00bcf2" stroke-width="1.2691902599999998" stroke-miterlimit="10"/>
  <path d="M508 106.884h-18.916V89.285H508" fill="none" stroke="#00bcf2" stroke-width="1.2691902599999998" stroke-miterlimit="10"/>
  <path d="M489.084 92.74H508" fill="none" stroke="#00bcf2" stroke-width="1.269" stroke-miterlimit="10"/>
  <path d="M484.482 93.61H468.18v-4.325h16.302zM484.482 106.884H468.18V95.22h16.302z" fill="none" stroke="#00bcf2" stroke-width="1.269" stroke-linecap="round" stroke-linejoin="round" stroke-miterlimit="10"/>
  <path d="M194.176 93.767a3.339 3.339 0 0 1 3.346-3.346 3.345 3.345 0 0 1 3.346 3.346" fill="none" stroke="#00bcf2" stroke-width="1.26926" stroke-linecap="round" stroke-linejoin="round" stroke-miterlimit="10"/>
  <path d="M200.868 93.767a3.345 3.345 0 0 0-3.346-3.346 3.339 3.339 0 0 0-3.345 3.346M191.108 90.38v-.011a7.276 7.276 0 0 1 6.415-3.85 7.223 7.223 0 0 1 6.393 3.85M189.008 86.395a11.205 11.205 0 0 1 8.514-3.902 11.19 11.19 0 0 1 8.504 3.892" fill="none" stroke="#00bcf2" stroke-width="1.26926" stroke-linecap="round" stroke-linejoin="round" stroke-miterlimit="10"/>
  <path d="M203.916 90.369a7.224 7.224 0 0 0-6.394-3.85 7.277 7.277 0 0 0-6.414 3.85v.01" fill="none" stroke="#00bcf2" stroke-width="1.26926" stroke-linecap="round" stroke-linejoin="round" stroke-miterlimit="10"/>
  <path d="M214.347 118.106h-33.66a2.643 2.643 0 0 1-2.642-2.643V71.6a2.643 2.643 0 0 1 2.642-2.642h33.66a2.643 2.643 0 0 1 2.643 2.642v43.864a2.643 2.643 0 0 1-2.643 2.643z" fill="none" stroke="#00bcf2" stroke-width="1.26926" stroke-linecap="round" stroke-linejoin="round" stroke-miterlimit="10"/>
  <path d="M213.79 111.376h-32.546v-39.37h32.546z" fill="none" stroke="#00bcf2" stroke-width="1.269" stroke-linecap="round" stroke-linejoin="round" stroke-miterlimit="10"/>
  <path d="M199.117 115.033a1.6 1.6 0 1 1-3.2-.001 1.6 1.6 0 0 1 3.2 0z" fill="none" stroke="#00bcf2" stroke-width="1.26926" stroke-linecap="round" stroke-linejoin="round" stroke-miterlimit="10"/>
  <path d="M392.209 103.266h-26.532V65.664h26.532z" fill="none" stroke="#00bcf2" stroke-width="1.269" stroke-miterlimit="10"/>
  <path d="M389 85.403h-20.115V68.502H389z" fill="none" stroke="#00bcf2" stroke-width="1.269" stroke-miterlimit="10"/>
  <path d="M384.884 94.01a5.94 5.94 0 1 1-11.882 0 5.94 5.94 0 0 1 11.882 0z" fill="none" stroke="#00bcf2" stroke-width="1.26926" stroke-miterlimit="10"/>
  <path d="M381.835 94.01a2.891 2.891 0 1 1-5.783 0 2.891 2.891 0 0 1 5.783 0z" fill="none" stroke="#00bcf2" stroke-width="1.26926" stroke-miterlimit="10"/>
  <path d="M382.301 82.705h3.755M382.301 80.802h3.755M382.301 78.898h3.755M382.301 76.994h3.755M382.301 75.09h3.755M382.301 73.186h3.755M377.066 82.705h3.754M377.066 80.802h3.754M377.066 78.898h3.754M377.066 76.994h3.754M371.83 82.705h3.754M371.83 80.802h3.754" fill="#fffbe0" stroke="#00bcf2" stroke-width="1.26926" stroke-linecap="round" stroke-linejoin="round" stroke-miterlimit="10"/>
  <path d="M237.744 19.491v21.396" fill="none" stroke="#00bcf2" stroke-width="1.269" stroke-miterlimit="10"/>
  <path d="M234.88 40.744a2.864 2.864 0 1 0 5.729-.001 2.864 2.864 0 0 0-5.728.001" fill="#00bcf2"/>
  <path d="M247.8 19.491v46.117l-6.68 6.68v54.062" fill="none" stroke="#00bcf2" stroke-width="1.269" stroke-miterlimit="10"/>
  <path d="M238.257 126.207a2.864 2.864 0 1 0 5.727 0 2.864 2.864 0 0 0-5.727 0" fill="#00bcf2"/>
  <path d="M216.99 57.886v-9.519l-5.09-5.09V17.293" fill="none" stroke="#00bcf2" stroke-width="1.269" stroke-linecap="round" stroke-linejoin="round"/>
  <path d="M203.916 23.087v29.84" fill="none" stroke="#005695" stroke-width="1.269" stroke-linecap="round" stroke-linejoin="round"/>
  <path d="M201.052 52.784a2.864 2.864 0 1 0 5.728 0 2.864 2.864 0 0 0-5.728 0" fill="#005695"/>
  <path d="M194.176 25.626v43.331" fill="none" stroke="#00bcf2" stroke-width="1.269" stroke-linecap="round" stroke-linejoin="round" stroke-miterlimit="10"/>
  <path d="M184.338 28.059v28.8" fill="none" stroke="#00bcf2" stroke-width="1.269" stroke-linecap="round" stroke-linejoin="round"/>
  <path d="M181.475 56.715a2.863 2.863 0 1 0 5.726 0 2.863 2.863 0 0 0-5.726 0" fill="#00bcf2"/>
  <path d="M377.066 65.664V9.972M490.767 80.644V17.588" fill="none" stroke="#00bcf2" stroke-width="1.269" stroke-linecap="round" stroke-linejoin="round" stroke-miterlimit="10"/>
  <path d="M302.865 25.626v37.317" fill="none" stroke="#00bcf2" stroke-width="1.269" stroke-linecap="round" stroke-linejoin="round"/>
  <path d="M300.002 62.8a2.864 2.864 0 1 0 5.729-.001 2.864 2.864 0 0 0-5.729.001" fill="#00bcf2"/>
  <path d="M310.761 23.087v48.92l5.738 12.719v48.605" fill="none" stroke="#005695" stroke-width="1.269" stroke-linecap="round" stroke-linejoin="round"/>
  <path d="M313.636 133.188a2.864 2.864 0 1 0 5.728 0 2.864 2.864 0 0 0-5.728 0" fill="#005695"/>
  <path d="M323.004 23.087v39.874l8.516 8.516v37.7" fill="none" stroke="#00bcf2" stroke-width="1.269" stroke-linecap="round" stroke-linejoin="round"/>
  <path d="M328.657 109.034a2.864 2.864 0 1 0 5.728 0 2.864 2.864 0 0 0-5.728 0" fill="#00bcf2"/>
  <path d="M336.966 19.491v18.327l-4.958 4.957v12.391" fill="none" stroke="#005695" stroke-width="1.269" stroke-linecap="round" stroke-linejoin="round"/>
  <path d="M329.146 55.023a2.864 2.864 0 1 0 5.728-.001 2.864 2.864 0 0 0-5.728.001" fill="#005695"/>
  <path d="M348.072 23.087v26.549l-7.985 7.986v65.579" fill="none" stroke="#00bcf2" stroke-width="1.269" stroke-linecap="round" stroke-linejoin="round"/>
  <path d="M337.223 123.058a2.863 2.863 0 1 0 5.727 0 2.863 2.863 0 0 0-5.727 0" fill="#00bcf2"/>
  <path d="M363.938 23.087v19.25l-9.52 20.624v46.216" fill="none" stroke="#00bcf2" stroke-width="1.269" stroke-linecap="round" stroke-linejoin="round"/>
  <path d="M351.555 109.034a2.864 2.864 0 1 0 5.729-.001 2.864 2.864 0 0 0-5.729.001" fill="#00bcf2"/>
  <path d="M387.208 27.53V51.01l11.635 11.635v50.535" fill="none" stroke="#00bcf2" stroke-width="1.269" stroke-linecap="round" stroke-linejoin="round"/>
  <path d="M395.98 113.038a2.864 2.864 0 1 0 5.728-.001 2.864 2.864 0 0 0-5.729.001" fill="#00bcf2"/>
  <path d="M403.21 25.626v17.98l7.868 7.87v87.144" fill="none" stroke="#005695" stroke-width="1.269" stroke-linecap="round" stroke-linejoin="round"/>
  <path d="M408.215 138.477a2.864 2.864 0 1 0 5.729-.001 2.864 2.864 0 0 0-5.729.001" fill="#005695"/>
  <path d="M476.33 19.491v46.29" fill="none" stroke="#005695" stroke-width="1.269" stroke-linecap="round" stroke-linejoin="round"/>
  <path d="M473.467 65.639a2.864 2.864 0 1 0 5.727-.001 2.864 2.864 0 0 0-5.727 0" fill="#005695"/>
  <path d="M460.662 23.087v31.309l-15.137 15.136v42.78" fill="none" stroke="#00bcf2" stroke-width="1.269" stroke-linecap="round" stroke-linejoin="round"/>
  <path d="M442.662 112.17a2.864 2.864 0 1 0 5.729-.002 2.864 2.864 0 0 0-5.729.001" fill="#00bcf2"/>
  <path d="M445.526 24.092v21.553L432.23 58.94v67.41" fill="none" stroke="#005695" stroke-width="1.269" stroke-linecap="round" stroke-linejoin="round"/>
  <path d="M429.367 126.207a2.864 2.864 0 1 0 5.727 0 2.864 2.864 0 0 0-5.727 0" fill="#005695"/>
  <path d="M420.42 28.059v79.252" fill="none" stroke="#00bcf2" stroke-width="1.269" stroke-linecap="round" stroke-linejoin="round"/>
  <path d="M417.557 107.168a2.864 2.864 0 1 0 5.727 0 2.864 2.864 0 0 0-5.727 0" fill="#00bcf2"/>
  <path d="M222.204 0v37.496l7.192 7.193V123.2" fill="none" stroke="#00bcf2" stroke-width="1.269" stroke-miterlimit="10"/>
  <path d="M226.533 123.058a2.863 2.863 0 1 0 5.727 0 2.863 2.863 0 0 0-5.727 0" fill="#00bcf2"/>
  <path d="M254.782 24.092v115.48" fill="none" stroke="#005695" stroke-width="1.269" stroke-miterlimit="10"/>
  <path d="M251.918 139.429a2.864 2.864 0 1 0 5.728 0 2.864 2.864 0 0 0-5.728 0" fill="#005695"/>
  <path d="M261.974 23.087v22.424l5.288 5.289v56.512" fill="none" stroke="#00bcf2" stroke-width="1.269" stroke-miterlimit="10"/>
  <path d="M264.4 107.168a2.864 2.864 0 1 0 5.727 0 2.864 2.864 0 0 0-5.728 0" fill="#00bcf2"/>
  <path d="M261.34 54.396v68.805" fill="none" stroke="#00bcf2" stroke-width="1.269" stroke-miterlimit="10"/>
  <path d="M258.476 123.058a2.864 2.864 0 1 0 5.728 0 2.864 2.864 0 0 0-5.728 0" fill="#00bcf2"/>
  <path d="M277.205 25.626v27.289l-2.962 5.077v32.82" fill="none" stroke="#005695" stroke-width="1.269" stroke-miterlimit="10"/>
  <path d="M271.38 90.668a2.864 2.864 0 1 0 5.728 0 2.864 2.864 0 0 0-5.728 0" fill="#005695"/>
  <path d="M284.61 25.626V66.56l7.139 7.14v11.968" fill="none" stroke="#00bcf2" stroke-width="1.269" stroke-miterlimit="10"/>
  <path style="line-height:1.25;-inkscape-font-specification:'Futura Std Medium Condensed'" d="M7.806 49.944v29.922l2.67 33.594-.222.222L0 80.3v25.176l8.585 28.34H18.93V49.944H7.806zm38.005 26.808c-15.462 0-16.797 17.909-16.797 29.366 0 11.902 1.446 28.588 17.13 28.588 11.792 0 16.352-9.455 16.352-19.8h-9.678c0 4.338-1 10.456-6.562 10.456-6.786 0-6.563-12.903-6.563-17.575H62.83v-1.669c0-11.568-1.78-29.366-17.02-29.366zm90.842 0c-8.9 0-15.018 6.451-15.018 15.35 0 15.573 17.576 16.24 17.576 26.14 0 4.34-2.447 7.12-7.008 7.12-3.56 0-6.007-1.446-8.676-3.56v10.234c3.114 1.891 5.45 2.67 9.121 2.67 10.011 0 16.13-6.785 16.13-16.685 0-16.018-17.354-16.464-17.576-25.919 0-3.782 3.226-6.006 7.12-6.006 2.558 0 5.784 1.223 7.786 3.003v-9.9c-3.003-1.78-5.896-2.447-9.455-2.447zm-71.006.89l13.683 56.174h7.23l4.116-21.135 2.446-20.134h.223l1.113 12.459 5.673 28.81h7.119l13.237-56.174h-10.234l-3.67 19.355-2.893 20.912h-.222v-1.112l-6.34-39.155h-7.453l-4.339 22.803-2.447 17.464h-.223v-1.112L76.66 77.642H65.647zm-19.836 8.454c6.34 0 6.34 9.9 6.34 14.238H39.693c0-4.338-.445-14.238 6.118-14.238z" font-weight="500" font-stretch="condensed" font-size="112" font-family="Futura Std" letter-spacing="0" word-spacing="0" opacity=".1" fill="#2196f3"/>
  <path fill="#141417" d="M0 0h508v37.042H0z"/>
  <g aria-label="News" style="line-height:1.25;-inkscape-font-specification:'Futura Std Medium Condensed'" font-weight="500" font-stretch="condensed" font-size="112" font-family="Futura Std" letter-spacing="0" word-spacing="0" fill="#fff">
    <path d="M36.1 104.918l.083-.083 7.325 24.181h3.87V97.634h-4.161v11.196l.999 12.57-.083.083-7.326-23.849h-3.995v31.382h4.162v-11.529l-.624-10.53zM55.148 116.488c0-1.623-.167-5.327 2.289-5.327 2.372 0 2.372 3.704 2.372 5.327zm8.657 2.789v-.624c0-4.329-.666-10.988-6.368-10.988-5.786 0-6.285 6.7-6.285 10.988 0 4.453.541 10.696 6.41 10.696 4.411 0 6.118-3.538 6.118-7.408h-3.621c0 1.623-.375 3.912-2.456 3.912-2.539 0-2.455-4.828-2.455-6.576zM64.859 107.998l5.12 21.018h2.704l1.54-7.908.916-7.533h.083l.416 4.661 2.123 10.78h2.664l4.953-21.018h-3.83l-1.373 7.242-1.082 7.824h-.083v-.416l-2.373-14.65H73.85l-1.623 8.532-.916 6.534h-.083v-.416l-2.248-14.65zM94.964 108.58c-1.124-.665-2.206-.915-3.538-.915-3.33 0-5.619 2.414-5.619 5.743 0 5.827 6.576 6.077 6.576 9.781 0 1.623-.915 2.664-2.622 2.664-1.332 0-2.247-.541-3.246-1.332v3.83c1.165.707 2.04.998 3.413.998 3.746 0 6.035-2.539 6.035-6.243 0-5.993-6.493-6.16-6.576-9.698 0-1.415 1.207-2.247 2.663-2.247.958 0 2.165.458 2.914 1.124z" style="line-height:1.25;-inkscape-font-specification:'Futura Std Medium Condensed'"/>
  </g>
  <path fill="#fff" d="M-23.994 119.005H28.78v.794h-52.774z"/>
  <path fill="url(#d)" d="M0-213.797h508v76.115H0z" transform="translate(0 245.547)"/>
</svg>
