<svg xmlns="http://www.w3.org/2000/svg" width="406.591" height="380" viewBox="0 0 107.577 100.542">
  <defs>
    <clipPath id="a">
      <path d="M0 0h800v800H0z"/>
    </clipPath>
    <clipPath id="b">
      <path d="M0 0h800v800H0z"/>
    </clipPath>
    <clipPath id="c">
      <path d="M0 0h800v800H0z"/>
    </clipPath>
    <clipPath id="d">
      <path d="M0 0h800v800H0z"/>
    </clipPath>
    <clipPath id="e">
      <path d="M0 0h800v800H0z"/>
    </clipPath>
    <clipPath id="f">
      <path d="M0 0h800v800H0z"/>
    </clipPath>
    <clipPath id="g">
      <path d="M0 0h800v800H0z"/>
    </clipPath>
    <clipPath id="h">
      <path d="M0 0h800v800H0z"/>
    </clipPath>
    <clipPath id="i">
      <path d="M0 0h800v800H0z"/>
    </clipPath>
    <clipPath id="j">
      <path d="M0 0h800v800H0z"/>
    </clipPath>
    <clipPath id="k">
      <path d="M343.566 575.699h111.153v-62.525H343.566z"/>
    </clipPath>
    <clipPath id="l">
      <path d="M367.503 475.359h63.28v-68.967h-63.28z"/>
    </clipPath>
  </defs>
  <g stroke="#012c4f">
    <g clip-path="url(#a)" transform="matrix(.12568 0 0 -.12568 1.169 100.542)">
      <path d="M237.167 539v140H55v78h-255M516.18 571v174H699v55M502.68 263V101H829V0M569 303h130v129.514h232V609h69M203 400H97v111H-91V253h-109M302.417 241.25H177.92V117H83v146H-30.931V85h-169.07M380.25 621.212V757h-80.655v43M1000 710.606H829v-89.394H653V511H542.59" fill="none" stroke-width="4" stroke-miterlimit="10"/>
    </g>
    <path d="M46.161 74.527v7.289H32.106v9.426" fill="none" stroke-width=".50272" stroke-miterlimit="10"/>
    <g clip-path="url(#b)" transform="matrix(.12568 0 0 -.12568 1.169 100.542)">
      <path d="M553.833 278v-89H755v89h245M-200 511h33.119v121.398H0V587.4h193.101V469.499" fill="none" stroke-width="4" stroke-miterlimit="10"/>
    </g>
    <path d="M66.041 21.064h6.638V6.912" fill="none" stroke-width=".50272" stroke-miterlimit="10"/>
    <g clip-path="url(#c)" transform="matrix(.12568 0 0 -.12568 1.169 100.542)">
      <path d="M167.602 679v121M381.035 679h56.667v121M-78.386 0v41.398h211.49M423.688 177.92V0M423.688 103.5h-84.813V0M601.08 101V60.926H699V0" fill="none" stroke-width="4" stroke-miterlimit="10"/>
    </g>
    <path d="M13.36 43.847H4.824V67.49M11.6 74.527h7.051V62.462l11.861-.187M17.897 85.837v9.243M20.725 26.719v12.524H13.36" fill="none" stroke-width=".50272" stroke-miterlimit="10"/>
    <g clip-path="url(#d)" transform="matrix(.12568 0 0 -.12568 1.169 100.542)">
      <path d="M63.042 587.4v-34.899h-229.923" fill="none" stroke-width="4" stroke-miterlimit="10"/>
    </g>
    <path d="M15.126 15.207v5.857h15.85M22.233 9.188h19.28v17.531" fill="none" stroke-width=".50272" stroke-miterlimit="10"/>
    <g clip-path="url(#e)" transform="matrix(.12568 0 0 -.12568 1.169 100.542)">
      <path d="M472.793 596.4v178.49H569V800M637.079 745v55M218.6 726.893V800M546.833 560.166h69.246V685.5h131.994v77.947h132.953V800M931 511H734.574v110.212" fill="none" stroke-width="4" stroke-miterlimit="10"/>
    </g>
    <path d="M82.487 50.466v7.01" fill="none" stroke-width=".50272" stroke-miterlimit="10"/>
    <g clip-path="url(#f)" transform="matrix(.12568 0 0 -.12568 1.169 100.542)">
      <path d="M595.08 469.542h237.707v-37.028M734.574 566.106H931" fill="none" stroke-width="4" stroke-miterlimit="10"/>
    </g>
    <path d="M70.773 72.526h25.282" fill="none" stroke-width=".50272" stroke-miterlimit="10"/>
    <g clip-path="url(#g)" transform="matrix(.12568 0 0 -.12568 1.169 100.542)">
      <path d="M699 340.5h152.568v-62.75" fill="none" stroke-width="4" stroke-miterlimit="10"/>
    </g>
    <path d="M96.055 46.185v11.564" fill="none" stroke-width=".50272" stroke-miterlimit="10"/>
    <g clip-path="url(#h)" transform="matrix(.12568 0 0 -.12568 1.169 100.542)">
      <path d="M755 407.25h153V278M501.893 148h-32.649V0M553.833 101V0M654.417 101v57H908v79.918h92M763 100.5V0M39 43.458V189h-69.388" fill="none" stroke-width="4" stroke-miterlimit="10"/>
    </g>
    <path d="M11.6 57.19h8.805" fill="none" stroke-width=".50272" stroke-miterlimit="10"/>
    <g clip-path="url(#i)" transform="matrix(.12568 0 0 -.12568 1.169 100.542)">
      <path d="M-81 667H39v-79.6M90 680.083V745h36.301v55M304.828 149V74H193.1V0" fill="none" stroke-width="4" stroke-miterlimit="10"/>
    </g>
    <path d="M49.087 91.779v5.37M70.291 83.048h6.42M92.788 84.731h6.975M65.179 93.99v3.95M88.389 27.598v6.99" fill="none" stroke-width=".50272" stroke-miterlimit="10"/>
    <g clip-path="url(#j)" transform="matrix(.12568 0 0 -.12568 1.169 100.542)">
      <path d="M793 240.98h58.568" fill="none" stroke-width="4" stroke-miterlimit="10"/>
    </g>
    <path d="M78.837 67.426h9.552M99.763 11.235v6.9M36.065 15.07v7.29M27.561 76.728h7.398M29.82 96.445h7.399" fill="none" stroke-width=".50272" stroke-miterlimit="10"/>
    <path d="M12.723 67.464a1.106 1.106 0 1 1-2.212 0 1.106 1.106 0 0 1 2.212 0M19.757 74.527a1.106 1.106 0 1 1-2.212 0 1.106 1.106 0 0 1 2.212 0M12.723 85.837a1.106 1.106 0 1 1-2.212 0 1.106 1.106 0 0 1 2.212 0M7.036 76.789a1.106 1.106 0 1 1-2.212 0 1.106 1.106 0 0 1 2.212 0M7.036 16.79a1.106 1.106 0 1 1-2.212 0 1.106 1.106 0 0 1 2.212 0M2.275 26.719a1.106 1.106 0 1 1-2.212 0 1.106 1.106 0 0 1 2.212 0M9.248 5.404a1.106 1.106 0 1 1-2.212 0 1.106 1.106 0 0 1 2.212 0M18.148 6.85a1.106 1.106 0 1 1-2.212 0 1.106 1.106 0 0 1 2.212 0M32.081 15.07a1.106 1.106 0 1 1-2.212.001 1.106 1.106 0 0 1 2.212 0M29.748 9.188a1.106 1.106 0 1 1-2.212 0 1.106 1.106 0 0 1 2.212 0M42.62 9.2a1.106 1.106 0 1 1-2.213 0 1.106 1.106 0 0 1 2.212 0M37.171 14.39a1.106 1.106 0 1 1-2.212 0 1.106 1.106 0 0 1 2.212 0M37.171 22.47a1.106 1.106 0 1 1-2.212 0 1.106 1.106 0 0 1 2.212 0M57.284 15.219a1.106 1.106 0 1 1-2.212 0 1.106 1.106 0 0 1 2.212 0M61.694 3.192a1.106 1.106 0 1 1-2.212 0 1.106 1.106 0 0 1 2.212 0M73.785 2.752a1.106 1.106 0 1 1-2.212 0 1.106 1.106 0 0 1 2.212 0M73.785 21.064a1.106 1.106 0 1 1-2.212 0 1.106 1.106 0 0 1 2.212 0M67.147 6.912a1.106 1.106 0 1 1-2.212 0 1.106 1.106 0 0 1 2.212 0M90.123 6.912a1.106 1.106 0 1 1-2.212 0 1.106 1.106 0 0 1 2.212 0M79.702 14.39a1.106 1.106 0 1 1-2.212 0 1.106 1.106 0 0 1 2.212 0M96.166 14.39a1.106 1.106 0 1 1-2.212 0 1.106 1.106 0 0 1 2.212 0M96.166 4.594a1.106 1.106 0 1 1-2.212 0 1.106 1.106 0 0 1 2.212 0M100.869 10.544a1.106 1.106 0 1 1-2.213 0 1.106 1.106 0 0 1 2.213 0M100.869 18.827a1.106 1.106 0 1 1-2.212 0 1.106 1.106 0 0 1 2.212 0M84.28 22.47a1.106 1.106 0 1 1-2.212 0 1.106 1.106 0 0 1 2.212 0M94.594 36.32a1.106 1.106 0 1 1-2.212 0 1.106 1.106 0 0 1 2.212 0M89.495 26.694a1.106 1.106 0 1 1-2.212 0 1.106 1.106 0 0 1 2.212 0M89.495 34.588a1.106 1.106 0 1 1-2.212 0 1.106 1.106 0 0 1 2.212 0M84.28 36.006a1.106 1.106 0 1 1-2.212 0 1.106 1.106 0 0 1 2.212 0M90.123 46.185a1.106 1.106 0 1 1-2.212 0 1.106 1.106 0 0 1 2.212 0M83.593 50.27a1.106 1.106 0 1 1-2.212.001 1.106 1.106 0 0 1 2.212 0M83.593 57.754a1.106 1.106 0 1 1-2.212 0 1.106 1.106 0 0 1 2.212 0M71.88 76.789a1.106 1.106 0 1 1-2.213 0 1.106 1.106 0 0 1 2.212 0M71.397 83.048a1.106 1.106 0 1 1-2.212 0 1.106 1.106 0 0 1 2.212 0M97.161 76.789a1.106 1.106 0 1 1-2.212 0 1.106 1.106 0 0 1 2.212 0M84.52 80.835a1.106 1.106 0 1 1-2.212 0 1.106 1.106 0 0 1 2.212 0M77.545 83.048a1.106 1.106 0 1 1-2.212 0 1.106 1.106 0 0 1 2.212 0M61.248 81.941a1.106 1.106 0 1 1-2.212 0 1.106 1.106 0 0 1 2.212 0M44.864 87.534a1.106 1.106 0 1 1-2.212 0 1.106 1.106 0 0 1 2.212 0M50.193 91.242a1.106 1.106 0 1 1-2.212 0 1.106 1.106 0 0 1 2.212 0M50.193 97.94a1.106 1.106 0 1 1-2.212 0 1.106 1.106 0 0 1 2.212 0M65.45 87.848a1.106 1.106 0 1 1-2.212 0 1.106 1.106 0 0 1 2.212 0M66.285 93.454a1.106 1.106 0 1 1-2.212 0 1.106 1.106 0 0 1 2.212 0M66.285 98.606a1.106 1.106 0 1 1-2.212 0 1.106 1.106 0 0 1 2.212 0M77.817 92.885a1.106 1.106 0 1 1-2.212 0 1.106 1.106 0 0 1 2.212 0M90.123 92.885a1.106 1.106 0 1 1-2.212 0 1.106 1.106 0 0 1 2.212 0M101.309 70.256a1.106 1.106 0 1 1-2.213 0 1.106 1.106 0 0 1 2.213 0M93.642 84.731a1.106 1.106 0 1 1-2.212 0 1.106 1.106 0 0 1 2.212 0M101.022 84.731a1.106 1.106 0 1 1-2.213 0 1.106 1.106 0 0 1 2.213 0M97.161 65.603a1.106 1.106 0 1 1-2.212 0 1.106 1.106 0 0 1 2.212 0M79.35 67.426a1.106 1.106 0 1 1-2.212 0 1.106 1.106 0 0 1 2.212 0M89.844 67.426a1.106 1.106 0 1 1-2.212 0 1.106 1.106 0 0 1 2.212 0M33.213 81.816a1.106 1.106 0 1 1-2.213 0 1.106 1.106 0 0 1 2.213 0M28.667 76.728a1.106 1.106 0 1 1-2.212 0 1.106 1.106 0 0 1 2.212 0M36.065 76.728a1.106 1.106 0 1 1-2.212 0 1.106 1.106 0 0 1 2.212 0M40.585 91.242a1.106 1.106 0 1 1-2.212 0 1.106 1.106 0 0 1 2.212 0M38.325 96.445a1.106 1.106 0 1 1-2.213 0 1.106 1.106 0 0 1 2.213 0M30.926 96.445a1.106 1.106 0 1 1-2.212 0 1.106 1.106 0 0 1 2.212 0M90.123 62.336a1.106 1.106 0 1 1-2.212 0 1.106 1.106 0 0 1 2.212 0M97.161 57.623a1.106 1.106 0 1 1-2.212 0 1.106 1.106 0 0 1 2.212 0M83.414 72.314a1.106 1.106 0 1 1-2.212 0 1.106 1.106 0 0 1 2.212 0M5.93 58.86a1.106 1.106 0 1 1-2.212 0 1.106 1.106 0 0 1 2.212 0M10.198 26.719a1.106 1.106 0 1 1-2.212 0 1.106 1.106 0 0 1 2.212 0M39.927 5.404a1.106 1.106 0 1 1-2.212 0 1.106 1.106 0 0 1 2.212 0M16.244 21.064a1.106 1.106 0 1 1-2.213 0 1.106 1.106 0 0 1 2.213 0M14.466 36.32a1.106 1.106 0 1 1-2.212 0 1.106 1.106 0 0 1 2.212 0M26.543 26.719a1.106 1.106 0 1 1-2.212 0 1.106 1.106 0 0 1 2.212 0M5.93 43.847a1.106 1.106 0 1 1-2.212 0 1.106 1.106 0 0 1 2.212 0M14.466 50.414a1.106 1.106 0 1 1-2.212 0 1.106 1.106 0 0 1 2.212 0M12.254 57.19a1.106 1.106 0 1 1-2.212 0 1.106 1.106 0 0 1 2.212 0M21.511 57.19a1.106 1.106 0 1 1-2.212 0 1.106 1.106 0 0 1 2.212 0M24.636 85.837a1.106 1.106 0 1 1-2.213 0 1.106 1.106 0 0 1 2.213 0M19.003 95.339a1.106 1.106 0 1 1-2.212 0 1.106 1.106 0 0 1 2.212 0M24.636 70.336a1.106 1.106 0 1 1-2.212 0 1.106 1.106 0 0 1 2.212 0" fill="#93a3a2" stroke-width=".12568"/>
  </g>
  <path d="M79.35 50.27c0 15.415-12.496 27.911-27.91 27.911-15.415 0-27.91-12.496-27.91-27.91 0-15.415 12.495-27.91 27.91-27.91 15.414 0 27.91 12.495 27.91 27.91" fill="#012c4f"/>
  <path d="M63.463 41.45v-7.812c0-3.143-2.571-5.714-5.714-5.714H45.13c-3.142 0-5.714 2.571-5.714 5.714v7.812z" fill="#999"/>
  <g fill="#e6e6e6">
    <g clip-path="url(#k)" opacity=".4" transform="matrix(.18803 0 0 -.18803 -23.61 137.056)">
      <path d="M454.72 513.174v36.112c0 14.527-11.886 26.412-26.413 26.412h-58.329c-14.527 0-26.412-11.885-26.412-26.412v-36.112z"/>
    </g>
  </g>
  <path d="M39.416 42.796v.656a2.965 2.965 0 0 0 2.956 2.956h18.135a2.965 2.965 0 0 0 2.956-2.956v-.656z" fill="#999"/>
  <path d="M45.224 38.972a.992.992 0 1 1-1.983 0 .992.992 0 0 1 1.983 0M59.174 38.972a.992.992 0 1 1-1.983 0 .992.992 0 0 1 1.983 0" fill="#f2f2f2"/>
  <path d="M61.512 42.796H41.045v-1.345h20.467z" fill="#e6e6e6"/>
  <path d="M58.812 50.418a3.596 3.596 0 0 0-3.586-3.585h-7.573a3.596 3.596 0 0 0-3.586 3.585v2.467l.002.053h-.002c0 5.503 3.301 9.964 7.373 9.964 4.071 0 7.372-4.46 7.372-9.964h-.001l.001-.053z" fill="#999"/>
  <g fill="#e6e6e6">
    <g clip-path="url(#l)" opacity=".4" transform="matrix(.18803 0 0 -.18803 -23.61 137.056)">
      <path d="M430.783 459.971c0 8.464-6.925 15.388-15.388 15.388h-32.503c-8.464 0-15.39-6.924-15.39-15.388v-10.585c0-.076.006-.152.007-.228h-.006c0-23.619 14.166-42.766 31.64-42.766s31.64 19.147 31.64 42.766h-.006c0 .076.006.152.006.228z"/>
    </g>
  </g>
  <path d="M39.597 52.625h-.133a.658.658 0 0 1-.655-.656v-1.931c0-.36.295-.656.655-.656h.133c.36 0 .655.295.655.656v1.93c0 .361-.295.657-.655.657M37.684 52.625h-.132a.658.658 0 0 1-.656-.656v-1.931c0-.36.295-.656.656-.656h.132c.361 0 .656.295.656.656v1.93c0 .361-.295.657-.656.657M35.772 52.625h-.132a.658.658 0 0 1-.656-.656v-1.931c0-.36.295-.656.656-.656h.132c.361 0 .656.295.656.656v1.93c0 .361-.295.657-.656.657M31.35 57.748v-.132c0-.361.296-.656.657-.656h1.93c.361 0 .656.295.656.656v.132c0 .36-.295.656-.655.656h-1.931a.658.658 0 0 1-.656-.656M31.35 55.836v-.133c0-.36.296-.655.657-.655h1.93c.361 0 .656.295.656.655v.133c0 .36-.295.655-.655.655h-1.931a.658.658 0 0 1-.656-.655M31.35 53.924v-.133c0-.36.296-.655.657-.655h1.93c.361 0 .656.295.656.655v.133c0 .36-.295.655-.655.655h-1.931a.658.658 0 0 1-.656-.655M34.593 51.003a1.621 1.621 0 1 1-3.242 0 1.621 1.621 0 0 1 3.242 0M44.403 51.003a1.621 1.621 0 1 1-3.242 0 1.621 1.621 0 0 1 3.242 0M31.388 63.192a1.948 1.948 0 1 1 3.466 0h1.623a3.47 3.47 0 1 0-6.711 0z" fill="#999"/>
  <g fill="#999">
    <path d="M63.283 52.625h.132c.361 0 .656-.296.656-.656v-1.931a.658.658 0 0 0-.656-.656h-.132a.658.658 0 0 0-.656.656v1.93c0 .361.295.657.656.657M65.195 52.625h.132c.361 0 .656-.296.656-.656v-1.931a.658.658 0 0 0-.656-.656h-.132a.658.658 0 0 0-.656.656v1.93c0 .361.295.657.656.657M67.107 52.625h.132c.361 0 .656-.296.656-.656v-1.931a.658.658 0 0 0-.656-.656h-.132a.658.658 0 0 0-.656.656v1.93c0 .361.296.657.656.657M71.529 57.748v-.132a.658.658 0 0 0-.656-.656h-1.931a.658.658 0 0 0-.656.656v.132c0 .36.295.656.656.656h1.93c.361 0 .657-.296.657-.656M71.529 55.836v-.133a.658.658 0 0 0-.656-.655h-1.931a.658.658 0 0 0-.656.655v.133c0 .36.295.656.656.656h1.93c.361 0 .657-.296.657-.656M71.529 53.924v-.133a.658.658 0 0 0-.656-.655h-1.931a.658.658 0 0 0-.656.655v.133c0 .36.295.655.656.655h1.93c.361 0 .657-.295.657-.655M68.286 51.003a1.621 1.621 0 1 0 3.242 0 1.621 1.621 0 0 0-3.242 0M58.508 51.003a1.621 1.621 0 1 0 3.242 0 1.621 1.621 0 0 0-3.242 0M71.491 63.192a1.948 1.948 0 1 0-3.466 0h-1.623a3.47 3.47 0 1 1 6.712 0z"/>
  </g>
  <g style="line-height:1.25;-inkscape-font-specification:'Futura Std Medium Condensed'" aria-label="Botnet" font-weight="500" font-stretch="condensed" font-size="96" font-family="Futura Std" letter-spacing="0" word-spacing="0" fill="#fff">
    <path style="line-height:1.25;-inkscape-font-specification:'Futura Std Medium Condensed'" d="M41.79 68.435c1.032-.022 1.223.561 1.223 1.493s-.247 1.437-1.223 1.392zm.28 3.839c1.56 0 2.133-.752 2.133-2.312 0-.943-.225-1.684-1.19-1.987v-.022c.898-.236 1.066-1.044 1.066-1.875 0-1.425-.426-2.267-1.953-2.267h-1.403v8.463zm.91-6.24c0 .897-.147 1.548-1.19 1.503v-2.772h.19c.775-.01 1 .606 1 1.269zM46.84 72.363c1.616 0 1.784-1.717 1.784-2.906 0-1.235-.168-2.94-1.784-2.94s-1.785 1.705-1.785 2.94c0 1.19.169 2.906 1.785 2.906zm0-.965c-.808 0-.707-1.537-.707-1.941 0-.45-.101-1.976.707-1.976.808 0 .707 1.527.707 1.976 0 .404.1 1.941-.707 1.941zM49.646 65.001v1.605h-.573v.83h.573v4.838H50.7v-4.838h.56v-.83h-.56V65zM52.964 66.606H51.91v5.668h1.055v-3.536c0-.482-.056-1.28.64-1.28.561 0 .629.506.629.899v3.917h1.054v-3.895c0-.864-.033-1.863-1.156-1.863-.28 0-.505.067-.695.202-.18.124-.326.303-.45.539h-.022zM57.18 68.895c0-.437-.044-1.436.618-1.436.64 0 .64.999.64 1.436zm2.335.752v-.168c0-1.167-.18-2.963-1.717-2.963-1.56 0-1.695 1.807-1.695 2.963 0 1.201.146 2.884 1.728 2.884 1.19 0 1.65-.954 1.65-1.997h-.976c0 .437-.101 1.055-.662 1.055-.685 0-.662-1.302-.662-1.774zM60.54 65.001v1.605h-.572v.83h.572v4.838h1.055v-4.838h.561v-.83h-.561V65z"/>
  </g>
  <g fill="#d32f2f">
    <path d="M107.282 13.133c.432-.842.359-1.796-.02-2.588.107-.902-.129-1.817-.982-2.52a7549.3 7549.3 0 0 1-2.382-1.96c-1.396-1.149-3.582-1.511-4.94 0C92.79 12.928 86.34 19.494 79.654 25.82c-4.971-4.644-10.002-9.224-14.998-13.81-1.753-1.611-4.29-1.106-5.394.812-1.606.798-2.909 1.837-3.985 3.612-.513.845-.473 1.912 0 2.76C58.5 24.978 64.735 30.06 69.86 34.74c-.686.613-1.367 1.233-2.066 1.834-6.905 5.93-11.563 9.692-2.922 15.772.117.082.236.064.354.112.166.076.324.13.508.16.057.002.11.012.167.007.177.015.352.06.532.025 4.645-.911 8.966-4.552 12.886-8.56 3.818 3.763 7.884 7.359 12.355 9.492 1.064.508 2.334.212 3.153-.498 1.374.103 2.627-.75 3.256-1.978.093-.057.153-.09.254-.153 1.998-1.248 2.18-3.734.702-5.447-3.338-3.868-6.887-7.545-10.504-11.157 6.513-6.364 14.646-13.228 18.747-21.215z"/>
  </g>
</svg>
