<svg xmlns="http://www.w3.org/2000/svg" width="453.164" height="380" viewBox="0 0 119.9 100.542">
  <g transform="translate(-369.744 -222.13) scale(.45413)">
    <path d="M997.288 497.85l73.52 20.97c3.94 1.123 7.397 3.298 7.397 7.397v74.325c0 4.098-3.529 8.749-7.398 7.397l-90.052-31.454c3.568-22.807 4.504-27.517 8.33-50.268 3.793-1.552 4.262-29.491 8.203-28.367z" fill="#424347"/>
    <path d="M995.7 499.437l73.52 20.97c3.94 1.124 7.397 3.299 7.397 7.397v74.325c0 4.098-3.528 8.749-7.397 7.398l-90.053-31.454c3.569-22.808 4.504-27.517 8.33-50.269 3.793-1.551 4.263-29.49 8.204-28.367z" fill="#1a1a1a"/>
    <ellipse cx="1038.742" cy="564.438" rx="36.092" ry="48.189" fill="#424347"/>
    <path d="M1059.761 564.64l16.951-7.864-.22 18.146-16.731 8.267z" fill="#333"/>
    <path d="M1057.19 532.504l14.114-7.46c.829.742 1.764.865 1.815 3.63l-14.316 7.258zm.026 76.316l14.114-7.46c.828.742 1.763.866 1.815 3.63l-14.316 7.258z" fill="#666"/>
  </g>
  <path d="M79.209 5.519L9.154 38.685l1.812 45.436 37.378 13.532 63.363-36.81V17.441z" fill="#dee0df"/>
  <path d="M47.224 59.517L111.71 25.85v1.36L47.16 61.2zm.129 2.403l64.358-33.668v1.36L47.288 63.604zm0 21.147L111.711 49.4v1.36L47.288 84.751zm0 2.403l64.358-33.668v1.36L47.288 87.154z" fill="#b3b3b3"/>
  <path d="M9.154 38.685L79.208 5.519l32.499 11.922-64.645 33.147z" fill="#d0d2d2"/>
  <path d="M9.154 38.685l37.908 11.903 1.282 47.065L10.966 84.12z" fill="#b6b7b9"/>
  <path d="M11.213 40.707l31.533 10.748c1.51.515 2.826 1.285 2.88 2.88l1.295 38.008c.055 1.595-.648 3.993-2.135 3.414L13.155 83.44c-1.487-.58-2.243-.9-2.362-2.492L7.943 42.81c-.118-1.59 1.76-2.618 3.27-2.103z" fill="#333"/>
  <path d="M9.77 41.668l31.534 10.748c1.51.515 2.826 1.286 2.88 2.88l1.295 38.008c.055 1.595-.079 2.89-1.585 2.363L11.714 84.4c-1.507-.527-2.293-.898-2.363-2.492L7.667 43.513c-.07-1.595.593-2.36 2.104-1.845z" fill="#1a1a1a"/>
  <path d="M36.944 95.459l6.41-3.388c.375.337.8.393.823 1.648l-6.5 3.296z" fill="#666"/>
  <path d="M19.706 46.438A25.316 26.74 0 0 0 3.973 52.23v33.833H33.24v9.68a25.316 26.74 0 0 0 11.783-22.564 25.316 26.74 0 0 0-25.316-26.74z" fill="#424347"/>
  <path d="M35.982 57.73l6.41-3.388c.376.337.8.393.824 1.648l-6.501 3.297z" fill="#666"/>
  <path d="M37.188 74.15l7.834-3.755.195 9.517-7.77 4.015z" fill="#333"/>
  <path d="M4.147 46.246l6.41-3.388c.376.337.8.393.824 1.648l-6.5 3.297z" fill="#666"/>
  <path d="M2.321 45.273L33.855 56.02c1.51.515 3.495 1.414 3.527 3.01l.777 38.396c.033 1.595-1.008 3.597-2.492 3.01L4.264 88.006c-1.484-.588-2.293-.898-2.363-2.492L.218 47.117c-.07-1.594.593-2.359 2.103-1.844z" fill="#333"/>
  <path d="M1.36 45.994l31.533 10.748c1.51.515 2.843 1.285 2.88 2.88l.907 38.267c.038 1.595-.887 2.842-2.362 2.233L4.208 87.69c-1.474-.61-2.021-.122-2.103-1.715L.163 47.968c-.081-1.594-.313-2.489 1.197-1.974z" fill="#1a1a1a"/>
  <g fill="none" stroke="#b3b3b3" stroke-width=".601">
    <path d="M4.62 55.373c6.378-4.21 13.47-5.402 23.957 8.029 8.876 14.496 7.378 23.303 1.165 29.524-8.861 5.754-16.403-.178-23.568-9.453C-.517 72.647-2.1 63.03 4.621 55.373z"/>
    <path d="M6.375 57.878c5.513-3.639 11.643-4.67 20.708 6.94 7.673 12.531 6.378 20.144 1.007 25.522-7.66 4.974-14.179-.154-20.372-8.171C1.934 72.81.566 64.496 6.375 57.879z"/>
    <path d="M8.062 60.287c4.681-3.09 9.887-3.965 17.585 5.894 6.516 10.64 5.415 17.105.855 21.672-6.504 4.224-12.04-.13-17.3-6.939-4.912-7.947-6.073-15.007-1.14-20.627z"/>
    <path d="M9.493 62.331c3.976-2.625 8.397-3.368 14.935 5.005 5.534 9.038 4.6 14.528.727 18.407-5.525 3.587-10.227-.111-14.693-5.893-4.172-6.75-5.159-12.746-.97-17.519z"/>
    <path d="M11.115 64.648c3.177-2.097 6.709-2.691 11.932 3.998 4.42 7.22 3.674 11.607.58 14.706-4.413 2.865-8.17-.09-11.738-4.709-3.333-5.392-4.121-10.182-.774-13.995z"/>
    <path d="M12.737 66.964c2.377-1.57 5.02-2.013 8.929 2.992 3.308 5.403 2.75 8.685.434 11.004-3.303 2.144-6.114-.067-8.784-3.523-2.494-4.035-3.084-7.62-.579-10.473z"/>
    <path d="M14.311 69.212c1.601-1.057 3.382-1.356 6.014 2.016 2.228 3.638 1.852 5.85.293 7.41-2.225 1.445-4.118-.044-5.916-2.372-1.68-2.718-2.077-5.132-.39-7.054z"/>
    <path d="M15.743 71.256c.895-.59 1.89-.758 3.363 1.127 1.247 2.036 1.036 3.272.164 4.146-1.244.808-2.303-.025-3.31-1.327-.939-1.52-1.16-2.87-.217-3.946z"/>
  </g>
  <path d="M1.829 50.222l13.183 20.885c1.123 2.054 2.558 2.347 4.37.518l12.594-10.683h-.032M32.54 97.73L19.357 76.845c-1.123-2.054-2.558-2.347-4.37-.518L3.39 86.164" fill="none" stroke="#b3b3b3" stroke-width=".601"/>
  <g transform="rotate(-27.125 -645.29 655.306) scale(.45413)">
    <ellipse cx="506.058" cy="957.423" rx="3.176" ry="3.73" fill="#b3b3b3"/>
    <ellipse ry="2.476" rx="2.108" cy="957.101" cx="505.429" fill="#999"/>
  </g>
  <g transform="rotate(-27.125 -645.29 655.306) scale(.45413)">
    <ellipse ry="3.73" rx="3.176" cy="1031.135" cx="468.892" fill="#b3b3b3"/>
    <ellipse cx="468.264" cy="1030.813" rx="2.108" ry="2.476" fill="#999"/>
  </g>
  <g transform="rotate(-27.125 -645.29 655.306) scale(.45413)">
    <ellipse cx="422.877" cy="978.803" rx="2.421" ry="2.843" fill="#b3b3b3"/>
    <ellipse ry="1.887" rx="1.607" cy="978.558" cx="422.399" fill="#999"/>
  </g>
  <g transform="rotate(-27.125 -645.29 655.306) scale(.45413)">
    <ellipse ry="2.843" rx="2.421" cy="904.573" cx="455.552" fill="#b3b3b3"/>
    <ellipse cx="455.073" cy="904.328" rx="1.607" ry="1.887" fill="#999"/>
  </g>
  <path d="M10.966 30.64l33.668 10.62-.13 8.158-33.336-10.824z" fill="#b6b7b9" stroke="#b3b3b3" stroke-width=".12"/>
  <path d="M44.634 41.259l24.41-12.173-.26 7.446-24.28 12.885z" fill="#d0d2d2" stroke="#b3b3b3" stroke-width=".12"/>
  <path d="M43.4 23.15C51.303 5.249 50.188-1.403 72.795 9.814 53.197-6.755 40.56-2.297 43.4 23.151z" fill="#ffcc80"/>
  <path d="M68.092 7.875L83.842 0l.09 8.332-15.657 8.15z" fill="#012c4f"/>
  <path d="M47.005 23.15c8.291-16.09 17.924-21.316 40.53-10.1C67.939-3.517 43 4.436 47.006 23.15z" fill="#ffcc80"/>
  <path d="M78.906 12.2l15.75-7.874.09 8.332-15.657 8.15z" fill="#012c4f"/>
  <path d="M49.037 26.367C61.343 11.83 76.284 3.884 98.89 15.1 79.292-1.468 49.433 10.5 49.036 26.366z" fill="#ffcc80"/>
  <path d="M89.72 16.526l15.75-7.875.09 8.333-15.657 8.149z" fill="#012c4f"/>
  <path d="M10.966 30.64L36.67 19.18l32.373 9.906-24.41 12.173z" fill="#dee0df" stroke="#b3b3b3" stroke-width=".12"/>
  <path fill="#012c4f" d="M58.469 49.4h56.75v32.41h-56.75z"/>
  <path fill="#ffcc80" d="M61.58 52.585h3.633v4.065H61.58z"/>
  <path fill="#372b20" d="M61.58 52.77h3.633v.242H61.58zm0 .322h3.633v.24H61.58zm0 2.728h3.633v.24H61.58zm0 .321h3.633v.241H61.58z"/>
  <path fill="#ffcc80" d="M65.575 52.585h3.632v4.065h-3.632z"/>
  <path fill="#372b20" d="M65.575 52.77h3.632v.242h-3.632zm0 .322h3.632v.24h-3.632zm0 2.728h3.632v.24h-3.632zm0 .321h3.632v.241h-3.632z"/>
  <path fill="#ffcc80" d="M69.57 52.585h3.632v4.065h-3.633z"/>
  <path fill="#372b20" d="M69.57 52.77h3.632v.242h-3.633zm0 .322h3.632v.24h-3.633zm0 2.728h3.632v.24h-3.633zm0 .321h3.632v.241h-3.633z"/>
  <path fill="#ffcc80" d="M73.564 52.585h3.632v4.065h-3.632z"/>
  <path fill="#372b20" d="M73.564 52.77h3.632v.242h-3.632zm0 .322h3.632v.24h-3.632zm0 2.728h3.632v.24h-3.632zm0 .321h3.632v.241h-3.632z"/>
  <path fill="#ffcc80" d="M77.558 52.585h3.633v4.065h-3.633z"/>
  <path fill="#372b20" d="M77.558 52.77h3.633v.242h-3.633zm0 .322h3.633v.24h-3.633zm0 2.728h3.633v.24h-3.633zm0 .321h3.633v.241h-3.633z"/>
  <path fill="#ffcc80" d="M81.553 52.585h3.632v4.065h-3.632z"/>
  <path fill="#372b20" d="M81.553 52.77h3.632v.242h-3.632zm0 .322h3.632v.24h-3.632zm0 2.728h3.632v.24h-3.632zm0 .321h3.632v.241h-3.632z"/>
  <path fill="#ffcc80" d="M85.547 52.585h3.633v4.065h-3.633z"/>
  <path fill="#372b20" d="M85.547 52.77h3.633v.242h-3.633zm0 .322h3.633v.24h-3.633zm0 2.728h3.633v.24h-3.633zm0 .321h3.633v.241h-3.633z"/>
  <path fill="#ffcc80" d="M89.542 52.585h3.632v4.065h-3.632z"/>
  <path fill="#372b20" d="M89.542 52.77h3.632v.242h-3.632zm0 .322h3.632v.24h-3.632zm0 2.728h3.632v.24h-3.632zm0 .321h3.632v.241h-3.632z"/>
  <path fill="#ffcc80" d="M93.536 52.585h3.633v4.065h-3.633z"/>
  <path fill="#372b20" d="M93.536 52.77h3.633v.242h-3.633zm0 .322h3.633v.24h-3.633zm0 2.728h3.633v.24h-3.633zm0 .321h3.633v.241h-3.633z"/>
  <path fill="#ffcc80" d="M97.53 52.585h3.633v4.065h-3.632z"/>
  <path fill="#372b20" d="M97.53 52.77h3.633v.242h-3.632zm0 .322h3.633v.24h-3.632zm0 2.728h3.633v.24h-3.632zm0 .321h3.633v.241h-3.632z"/>
  <path fill="#ffcc80" d="M69.57 57.014h3.632v4.065h-3.633z"/>
  <path fill="#372b20" d="M69.57 57.2h3.632v.241h-3.633zm0 .321h3.632v.241h-3.633zm0 2.729h3.632v.24h-3.633zm0 .32h3.632v.242h-3.633z"/>
  <path fill="#ffcc80" d="M73.564 57.014h3.632v4.065h-3.632z"/>
  <path fill="#372b20" d="M73.564 57.2h3.632v.241h-3.632zm0 .321h3.632v.241h-3.632zm0 2.729h3.632v.24h-3.632zm0 .32h3.632v.242h-3.632z"/>
  <path fill="#ffcc80" d="M77.558 57.014h3.633v4.065h-3.633z"/>
  <path fill="#372b20" d="M77.558 57.2h3.633v.241h-3.633zm0 .321h3.633v.241h-3.633zm0 2.729h3.633v.24h-3.633zm0 .32h3.633v.242h-3.633z"/>
  <path fill="#ffcc80" d="M81.553 57.014h3.632v4.065h-3.632z"/>
  <path fill="#372b20" d="M81.553 57.2h3.632v.241h-3.632zm0 .321h3.632v.241h-3.632zm0 2.729h3.632v.24h-3.632zm0 .32h3.632v.242h-3.632z"/>
  <path fill="#ffcc80" d="M85.547 57.014h3.633v4.065h-3.633z"/>
  <path fill="#372b20" d="M85.547 57.2h3.633v.241h-3.633zm0 .321h3.633v.241h-3.633zm0 2.729h3.633v.24h-3.633zm0 .32h3.633v.242h-3.633z"/>
  <path fill="#ffcc80" d="M89.542 57.014h3.632v4.065h-3.632z"/>
  <path fill="#372b20" d="M89.542 57.2h3.632v.241h-3.632zm0 .321h3.632v.241h-3.632zm0 2.729h3.632v.24h-3.632zm0 .32h3.632v.242h-3.632z"/>
  <path fill="#ffcc80" d="M93.536 57.014h3.633v4.065h-3.633z"/>
  <path fill="#372b20" d="M93.536 57.2h3.633v.241h-3.633zm0 .321h3.633v.241h-3.633zm0 2.729h3.633v.24h-3.633zm0 .32h3.633v.242h-3.633z"/>
  <path fill="#ffcc80" d="M97.53 57.014h3.633v4.065h-3.632z"/>
  <path fill="#372b20" d="M97.53 57.2h3.633v.241h-3.632zm0 .321h3.633v.241h-3.632zm0 2.729h3.633v.24h-3.632zm0 .32h3.633v.242h-3.632z"/>
  <path fill="#ffcc80" d="M77.558 61.444h3.633v4.065h-3.633z"/>
  <path fill="#372b20" d="M77.558 61.63h3.633v.24h-3.633zm0 .32h3.633v.242h-3.633zm0 2.73h3.633v.24h-3.633zm0 .32h3.633v.241h-3.633z"/>
  <path fill="#ffcc80" d="M81.553 61.444h3.632v4.065h-3.632z"/>
  <path fill="#372b20" d="M81.553 61.63h3.632v.24h-3.632zm0 .32h3.632v.242h-3.632zm0 2.73h3.632v.24h-3.632zm0 .32h3.632v.241h-3.632z"/>
  <path fill="#ffcc80" d="M85.547 61.444h3.633v4.065h-3.633z"/>
  <path fill="#372b20" d="M85.547 61.63h3.633v.24h-3.633zm0 .32h3.633v.242h-3.633zm0 2.73h3.633v.24h-3.633zm0 .32h3.633v.241h-3.633z"/>
  <path fill="#ffcc80" d="M89.542 61.444h3.632v4.065h-3.632z"/>
  <path fill="#372b20" d="M89.542 61.63h3.632v.24h-3.632zm0 .32h3.632v.242h-3.632zm0 2.73h3.632v.24h-3.632zm0 .32h3.632v.241h-3.632z"/>
  <path fill="#ffcc80" d="M93.536 61.444h3.633v4.065h-3.633z"/>
  <path fill="#372b20" d="M93.536 61.63h3.633v.24h-3.633zm0 .32h3.633v.242h-3.633zm0 2.73h3.633v.24h-3.633zm0 .32h3.633v.241h-3.633z"/>
  <path fill="#ffcc80" d="M97.53 61.444h3.633v4.065h-3.632z"/>
  <path fill="#372b20" d="M97.53 61.63h3.633v.24h-3.632zm0 .32h3.633v.242h-3.632zm0 2.73h3.633v.24h-3.632zm0 .32h3.633v.241h-3.632z"/>
  <path fill="#ffcc80" d="M77.558 65.874h3.633v4.064h-3.633z"/>
  <path fill="#372b20" d="M77.558 66.06h3.633v.24h-3.633zm0 .32h3.633v.241h-3.633zm0 2.729h3.633v.24h-3.633zm0 .321h3.633v.24h-3.633z"/>
  <path fill="#ffcc80" d="M81.553 65.874h3.632v4.064h-3.632z"/>
  <path fill="#372b20" d="M81.553 66.06h3.632v.24h-3.632zm0 .32h3.632v.241h-3.632zm0 2.729h3.632v.24h-3.632zm0 .321h3.632v.24h-3.632z"/>
  <path fill="#ffcc80" d="M85.547 65.874h3.633v4.064h-3.633z"/>
  <path fill="#372b20" d="M85.547 66.06h3.633v.24h-3.633zm0 .32h3.633v.241h-3.633zm0 2.729h3.633v.24h-3.633zm0 .321h3.633v.24h-3.633z"/>
  <path fill="#ffcc80" d="M89.542 65.874h3.632v4.064h-3.632z"/>
  <path fill="#372b20" d="M89.542 66.06h3.632v.24h-3.632zm0 .32h3.632v.241h-3.632zm0 2.729h3.632v.24h-3.632zm0 .321h3.632v.24h-3.632z"/>
  <path fill="#ffcc80" d="M93.536 65.874h3.633v4.064h-3.633z"/>
  <path fill="#372b20" d="M93.536 66.06h3.633v.24h-3.633zm0 .32h3.633v.241h-3.633zm0 2.729h3.633v.24h-3.633zm0 .321h3.633v.24h-3.633z"/>
  <path fill="#ffcc80" d="M97.53 65.874h3.633v4.064h-3.632z"/>
  <path fill="#372b20" d="M97.53 66.06h3.633v.24h-3.632zm0 .32h3.633v.241h-3.632zm0 2.729h3.633v.24h-3.632zm0 .321h3.633v.24h-3.632z"/>
  <path fill="#ffcc80" d="M69.57 70.303h3.632v4.065h-3.633z"/>
  <path fill="#372b20" d="M69.57 70.49h3.632v.24h-3.633zm0 .32h3.632v.24h-3.633zm0 2.728h3.632v.241h-3.633zm0 .322h3.632v.24h-3.633z"/>
  <path fill="#ffcc80" d="M73.564 70.303h3.632v4.065h-3.632z"/>
  <path fill="#372b20" d="M73.564 70.49h3.632v.24h-3.632zm0 .32h3.632v.24h-3.632zm0 2.728h3.632v.241h-3.632zm0 .322h3.632v.24h-3.632z"/>
  <path fill="#ffcc80" d="M77.558 70.303h3.633v4.065h-3.633z"/>
  <path fill="#372b20" d="M77.558 70.49h3.633v.24h-3.633zm0 .32h3.633v.24h-3.633zm0 2.728h3.633v.241h-3.633zm0 .322h3.633v.24h-3.633z"/>
  <g>
    <path fill="#ffcc80" d="M81.553 70.303h3.632v4.065h-3.632z"/>
    <path fill="#372b20" d="M81.553 70.49h3.632v.24h-3.632zm0 .32h3.632v.24h-3.632zm0 2.728h3.632v.241h-3.632zm0 .322h3.632v.24h-3.632z"/>
  </g>
  <g>
    <path fill="#ffcc80" d="M85.547 70.303h3.633v4.065h-3.633z"/>
    <path fill="#372b20" d="M85.547 70.49h3.633v.24h-3.633zm0 .32h3.633v.24h-3.633zm0 2.728h3.633v.241h-3.633zm0 .322h3.633v.24h-3.633z"/>
  </g>
  <g>
    <path fill="#ffcc80" d="M89.542 70.303h3.632v4.065h-3.632z"/>
    <path fill="#372b20" d="M89.542 70.49h3.632v.24h-3.632zm0 .32h3.632v.24h-3.632zm0 2.728h3.632v.241h-3.632zm0 .322h3.632v.24h-3.632z"/>
  </g>
  <g>
    <path fill="#ffcc80" d="M93.536 70.303h3.633v4.065h-3.633z"/>
    <path fill="#372b20" d="M93.536 70.49h3.633v.24h-3.633zm0 .32h3.633v.24h-3.633zm0 2.728h3.633v.241h-3.633zm0 .322h3.633v.24h-3.633z"/>
  </g>
  <g>
    <path fill="#ffcc80" d="M97.53 70.303h3.633v4.065h-3.632z"/>
    <path fill="#372b20" d="M97.53 70.49h3.633v.24h-3.632zm0 .32h3.633v.24h-3.632zm0 2.728h3.633v.241h-3.632zm0 .322h3.633v.24h-3.632z"/>
  </g>
  <g>
    <path fill="#ffcc80" d="M61.58 74.733h3.633v4.065H61.58z"/>
    <path fill="#372b20" d="M61.58 74.919h3.633v.24H61.58zm0 .321h3.633v.24H61.58zm0 2.728h3.633v.24H61.58zm0 .322h3.633v.24H61.58z"/>
  </g>
  <g>
    <path fill="#ffcc80" d="M65.575 74.733h3.632v4.065h-3.632z"/>
    <path fill="#372b20" d="M65.575 74.919h3.632v.24h-3.632zm0 .321h3.632v.24h-3.632zm0 2.728h3.632v.24h-3.632zm0 .322h3.632v.24h-3.632z"/>
  </g>
  <g>
    <path fill="#ffcc80" d="M69.57 74.733h3.632v4.065h-3.633z"/>
    <path fill="#372b20" d="M69.57 74.919h3.632v.24h-3.633zm0 .321h3.632v.24h-3.633zm0 2.728h3.632v.24h-3.633zm0 .322h3.632v.24h-3.633z"/>
  </g>
  <g>
    <path fill="#ffcc80" d="M73.564 74.733h3.632v4.065h-3.632z"/>
    <path fill="#372b20" d="M73.564 74.919h3.632v.24h-3.632zm0 .321h3.632v.24h-3.632zm0 2.728h3.632v.24h-3.632zm0 .322h3.632v.24h-3.632z"/>
  </g>
  <g>
    <path fill="#ffcc80" d="M77.558 74.733h3.633v4.065h-3.633z"/>
    <path fill="#372b20" d="M77.558 74.919h3.633v.24h-3.633zm0 .321h3.633v.24h-3.633zm0 2.728h3.633v.24h-3.633zm0 .322h3.633v.24h-3.633z"/>
  </g>
  <g>
    <path fill="#ffcc80" d="M81.553 74.733h3.632v4.065h-3.632z"/>
    <path fill="#372b20" d="M81.553 74.919h3.632v.24h-3.632zm0 .321h3.632v.24h-3.632zm0 2.728h3.632v.24h-3.632zm0 .322h3.632v.24h-3.632z"/>
  </g>
  <g>
    <path fill="#ffcc80" d="M85.547 74.733h3.633v4.065h-3.633z"/>
    <path fill="#372b20" d="M85.547 74.919h3.633v.24h-3.633zm0 .321h3.633v.24h-3.633zm0 2.728h3.633v.24h-3.633zm0 .322h3.633v.24h-3.633z"/>
  </g>
  <g>
    <path fill="#ffcc80" d="M89.542 74.733h3.632v4.065h-3.632z"/>
    <path fill="#372b20" d="M89.542 74.919h3.632v.24h-3.632zm0 .321h3.632v.24h-3.632zm0 2.728h3.632v.24h-3.632zm0 .322h3.632v.24h-3.632z"/>
  </g>
  <g>
    <path fill="#ffcc80" d="M93.536 74.733h3.633v4.065h-3.633z"/>
    <path fill="#372b20" d="M93.536 74.919h3.633v.24h-3.633zm0 .321h3.633v.24h-3.633zm0 2.728h3.633v.24h-3.633zm0 .322h3.633v.24h-3.633z"/>
  </g>
  <g>
    <path fill="#ffcc80" d="M97.53 74.733h3.633v4.065h-3.632z"/>
    <path fill="#372b20" d="M97.53 74.919h3.633v.24h-3.632zm0 .321h3.633v.24h-3.632zm0 2.728h3.633v.24h-3.632zm0 .322h3.633v.24h-3.632z"/>
  </g>
  <path fill="#fce68d" d="M61.776 58.252h3.241v1.59h-3.24zm3.994 0h3.242v1.59H65.77zM61.776 71.54h3.241v1.59h-3.24zm3.994 0h3.242v1.59H65.77z"/>
  <g fill="#fce68d">
    <path d="M61.776 62.681h3.241v1.59h-3.24zm3.994 0h3.242v1.59H65.77zm3.995 0h3.241v1.59h-3.24zm3.995 0H77v1.59h-3.24z"/>
  </g>
  <g fill="#fce68d">
    <path d="M61.776 67.111h3.241v1.59h-3.24zm3.994 0h3.242v1.59H65.77zm3.995 0h3.241v1.59h-3.24zm3.995 0H77v1.59h-3.24z"/>
  </g>
  <path fill="#fadd60" d="M104.703 56.996h5.707v15.393h-5.707z"/>
  <g transform="translate(-357.949 -143.904) scale(.3033)" fill="#4fc3f7">
    <circle r="4.42" cy="651.7" cx="1524.249"/>
    <circle cx="1534.832" cy="651.7" r="4.42"/>
    <circle r="4.42" cy="651.7" cx="1545.416"/>
  </g>
</svg>
