<svg xmlns="http://www.w3.org/2000/svg" width="469.79" height="380" viewBox="0 0 124.299 100.542">
  <path d="M22.296 0c12.31 0 22.293 9.98 22.293 22.293 0 12.314-9.983 22.297-22.293 22.297C9.98 44.59 0 34.607 0 22.293 0 9.98 9.98 0 22.296 0" fill="#d0d2d2" fill-rule="evenodd"/>
  <path d="M61.559 42.363l-.043-.042a.75.75 0 1 0-.747 1.3c.358.208.838.098 1.043-.259a.736.736 0 0 0-.254-1.018zm-2.902-1.672l-.038-.043a.754.754 0 0 0-1.024.276.75.75 0 0 0 .272 1.024c.358.208.84.094 1.044-.263a.728.728 0 0 0-.254-1.014zm-2.9-1.67l-.042-.042a.742.742 0 0 0-1.02.271.74.74 0 0 0 .272 1.021c.357.213.839.098 1.044-.258a.726.726 0 0 0-.254-1.01zm-2.9-1.674l-.039-.043a.749.749 0 1 0-.75 1.298c.357.204.838.093 1.047-.263.205-.361.1-.808-.257-1.011zm-2.9-1.677h-.02a.75.75 0 1 0-.752 1.299c.362.203.83.089 1.04-.268a.74.74 0 0 0-.266-1.017zm-.646-3.388l-4.589 1.23 1.229 4.588 3.36-5.818" fill="#012c4f" fill-rule="evenodd"/>
  <path d="M22.296 55.95c12.31 0 22.293 9.98 22.293 22.293 0 12.314-9.983 22.299-22.293 22.299C9.98 100.542 0 90.557 0 78.242 0 65.932 9.98 55.95 22.296 55.95" fill="#d0d2d2" fill-rule="evenodd"/>
  <path d="M61.559 58.102l-.043.042a.75.75 0 0 1-.747-1.3c.358-.208.838-.093 1.043.263a.728.728 0 0 1-.254 1.012zm-2.902 1.672l-.038.043a.752.752 0 0 1-.751-1.302c.357-.204.838-.093 1.043.263.21.361.107.806-.254 1.01zm-2.9 1.674l-.042.043a.746.746 0 0 1-1.02-.272.747.747 0 0 1 .272-1.027c.357-.204.839-.097 1.044.263.208.361.103.806-.254 1.01zm-2.9 1.678l-.039.042a.749.749 0 1 1-.75-1.298c.357-.203.838-.097 1.047.264.205.356.1.807-.257 1.01zm-2.9 1.675h-.02a.753.753 0 0 1-1.024-.271.755.755 0 0 1 .272-1.03.772.772 0 0 1 1.04.268.745.745 0 0 1-.266 1.022zm-.646 3.385l-4.589-1.229 1.229-4.587 3.36 5.816" fill="#012c4f" fill-rule="evenodd"/>
  <path d="M91.833 17.6c17.936 0 32.466 14.527 32.466 32.455 0 17.927-14.53 32.467-32.466 32.467-17.918 0-32.45-14.54-32.45-32.467 0-17.928 14.532-32.455 32.45-32.455" fill="#012c4f" fill-rule="evenodd"/>
  <g fill="#fafafa" fill-rule="evenodd">
    <path d="M91.848 23.74c-14.51 0-26.324 11.817-26.324 26.325 0 14.515 11.814 26.318 26.324 26.318 14.514 0 26.31-11.803 26.31-26.318 0-14.508-11.796-26.325-26.31-26.325zm0 48.742c-12.36 0-22.432-10.055-22.432-22.417 0-12.363 10.072-22.41 22.432-22.41 12.346 0 22.418 10.047 22.418 22.41 0 12.362-10.072 22.417-22.418 22.417"/>
    <path d="M91.848 34.099c.71 0 1.277-.591 1.277-1.31v-2.562c0-.718-.568-1.309-1.277-1.309-.724 0-1.292.591-1.292 1.31v2.562c0 .718.568 1.309 1.292 1.309M91.848 65.741c-.724 0-1.292.591-1.292 1.288v2.592a1.28 1.28 0 0 0 1.292 1.288c.71 0 1.277-.57 1.277-1.288V67.03a1.29 1.29 0 0 0-1.277-1.288M74.72 48.635h-2.572c-.726 0-1.309.55-1.309 1.288 0 .718.583 1.267 1.309 1.267h2.571c.729 0 1.31-.55 1.31-1.267 0-.739-.584-1.288-1.31-1.288M111.534 48.635h-2.586c-.695 0-1.278.55-1.278 1.288 0 .718.583 1.267 1.278 1.267h2.586c.726 0 1.294-.55 1.294-1.267 0-.739-.568-1.288-1.294-1.288M93.125 47.191v-8.26c0-.718-.568-1.288-1.277-1.288a1.28 1.28 0 0 0-1.292 1.288v8.282c-1.423.717-2.054 2.368-1.406 3.857l-10.88 8.469a1.28 1.28 0 0 0-.238 1.816 1.318 1.318 0 0 0 1.81.232l11.36-8.84c3.409.782 5.105-4.03 1.922-5.547"/>
  </g>
  <path d="M34.497 15.127v-1.545c0-2.08-6.289-3.207-12.213-3.207-5.903 0-12.192 1.128-12.192 3.207v1.545c0 .451.288.855.808 1.22-.51.355-.808.747-.808 1.204v1.553c0 .44.297.855.816 1.22-.518.355-.816.747-.816 1.205v1.545c0 .463.297.855.816 1.208-.518.368-.816.76-.816 1.22v1.545c0 .45.288.854.808 1.218-.51.356-.808.76-.808 1.218v1.536c0 2.078 6.289 3.196 12.192 3.196 5.924 0 12.213-1.116 12.213-3.196v-1.536c0-.45-.302-.866-.829-1.218.527-.356.829-.771.829-1.218V25.5c0-.45-.302-.854-.829-1.219.527-.356.829-.747.829-1.208V21.53c0-.45-.302-.854-.829-1.206.527-.368.829-.771.829-1.219v-1.553c0-.451-.302-.855-.829-1.205.527-.368.829-.771.829-1.219zm-12.213-4.291c6.925 0 11.748 1.448 11.748 2.746 0 1.285-4.823 2.735-11.748 2.735-6.92 0-11.727-1.45-11.727-2.735 0-1.298 4.806-2.746 11.727-2.746zm11.748 18.647c0 1.278-4.823 2.736-11.748 2.736-6.92 0-11.727-1.458-11.727-2.736 0-.32.271-.64.803-.961 2.127 1.14 6.624 1.729 10.924 1.729 4.316 0 8.804-.593 10.94-1.73.518.321.808.642.808.962zm0-3.982c0 1.294-4.823 2.748-11.748 2.748-6.92 0-11.727-1.454-11.727-2.748 0-.32.271-.64.803-.95 2.127 1.128 6.624 1.72 10.924 1.72 4.316 0 8.804-.593 10.94-1.72.518.31.808.63.808.95zm0-3.972c0 1.285-4.823 2.737-11.748 2.737-6.92 0-11.727-1.452-11.727-2.737 0-.32.271-.64.803-.95 2.127 1.116 6.624 1.721 10.924 1.721 4.316 0 8.804-.605 10.94-1.72.518.308.808.629.808.949zm0-3.978c0 1.3-4.823 2.743-11.748 2.743-6.92 0-11.727-1.444-11.727-2.743 0-.309.271-.63.803-.95 2.127 1.128 6.624 1.722 10.924 1.722 4.316 0 8.804-.593 10.94-1.722.518.309.808.63.808.95M34.497 71.078v-1.545c0-2.08-6.289-3.207-12.213-3.207-5.903 0-12.192 1.127-12.192 3.207v1.545c0 .451.288.855.808 1.219-.51.356-.808.748-.808 1.204v1.554c0 .44.297.855.816 1.219-.518.356-.816.748-.816 1.206v1.545c0 .463.297.854.816 1.208-.518.368-.816.76-.816 1.219v1.545c0 .451.288.855.808 1.22-.51.355-.808.759-.808 1.217v1.535c0 2.079 6.289 3.197 12.192 3.197 5.924 0 12.213-1.116 12.213-3.197v-1.535c0-.451-.302-.867-.829-1.218.527-.356.829-.771.829-1.219v-1.545c0-.451-.302-.855-.829-1.219.527-.356.829-.748.829-1.208V77.48c0-.451-.302-.855-.829-1.206.527-.368.829-.772.829-1.219v-1.554c0-.45-.302-.854-.829-1.204.527-.368.829-.772.829-1.219zm-12.213-4.292c6.925 0 11.748 1.448 11.748 2.747 0 1.285-4.823 2.734-11.748 2.734-6.92 0-11.727-1.449-11.727-2.734 0-1.299 4.806-2.747 11.727-2.747zm11.748 18.648c0 1.278-4.823 2.735-11.748 2.735-6.92 0-11.727-1.457-11.727-2.735 0-.32.271-.641.803-.962 2.127 1.14 6.624 1.73 10.924 1.73 4.316 0 8.804-.594 10.94-1.73.518.32.808.641.808.962zm0-3.982c0 1.294-4.823 2.747-11.748 2.747-6.92 0-11.727-1.453-11.727-2.747 0-.32.271-.64.803-.95 2.127 1.128 6.624 1.72 10.924 1.72 4.316 0 8.804-.593 10.94-1.72.518.31.808.63.808.95zm0-3.972c0 1.285-4.823 2.736-11.748 2.736-6.92 0-11.727-1.451-11.727-2.736 0-.32.271-.641.803-.95 2.127 1.116 6.624 1.721 10.924 1.721 4.316 0 8.804-.605 10.94-1.72.518.308.808.628.808.949zm0-3.979c0 1.3-4.823 2.743-11.748 2.743-6.92 0-11.727-1.443-11.727-2.743 0-.308.271-.629.803-.949 2.127 1.127 6.624 1.722 10.924 1.722 4.316 0 8.804-.593 10.94-1.722.518.309.808.629.808.95" fill-rule="evenodd" fill="#012c4f"/>
</svg>
