<svg xmlns="http://www.w3.org/2000/svg" width="705" height="477" viewBox="0 0 186.531 126.206">
  <defs>
    <clipPath id="a">
      <path d="M0 0h800v800H0z"/>
    </clipPath>
    <clipPath id="b">
      <path d="M0 0h800v800H0z"/>
    </clipPath>
    <clipPath id="c">
      <path d="M0 0h800v800H0z"/>
    </clipPath>
    <clipPath id="d">
      <path d="M0 0h800v800H0z"/>
    </clipPath>
    <clipPath id="e">
      <path d="M0 0h800v800H0z"/>
    </clipPath>
    <clipPath id="f">
      <path d="M0 0h800v800H0z"/>
    </clipPath>
    <clipPath id="g">
      <path d="M0 0h800v800H0z"/>
    </clipPath>
    <clipPath id="h">
      <path d="M0 0h800v800H0z"/>
    </clipPath>
    <clipPath id="i">
      <path d="M0 0h800v800H0z"/>
    </clipPath>
    <clipPath id="j">
      <path d="M0 0h800v800H0z"/>
    </clipPath>
    <clipPath id="k">
      <path d="M343.566 575.699h111.153v-62.525H343.566z"/>
    </clipPath>
    <clipPath id="l">
      <path d="M367.503 475.359h63.28v-68.967h-63.28z"/>
    </clipPath>
  </defs>
  <g transform="translate(-105.159 106.783)">
    <rect ry="10.958" y="-106.783" x="105.159" height="126.206" width="186.531" fill="#ececec"/>
    <g stroke="#012c4f">
      <g clip-path="url(#a)" transform="matrix(.12568 0 0 -.12568 145.805 6.59)">
        <path d="M237.167 539v140H55v78h-255M516.18 571v174H699v55M502.68 263V101H829V0M569 303h130v129.514h232V609h69M203 400H97v111H-91V253h-109M302.417 241.25H177.92V117H83v146H-30.931V85h-169.07M380.25 621.212V757h-80.655v43M1000 710.606H829v-89.394H653V511H542.59" fill="none" stroke-width="4" stroke-miterlimit="10"/>
      </g>
      <path d="M190.797-19.424v7.289h-14.054v9.426" fill="none" stroke-width=".50272" stroke-miterlimit="10"/>
      <g clip-path="url(#b)" transform="matrix(.12568 0 0 -.12568 145.805 6.59)">
        <path d="M553.833 278v-89H755v89h245M-200 511h33.119v121.398H0V587.4h193.101V469.499" fill="none" stroke-width="4" stroke-miterlimit="10"/>
      </g>
      <path d="M210.677-72.887h6.638V-87.04" fill="none" stroke-width=".50272" stroke-miterlimit="10"/>
      <g clip-path="url(#c)" transform="matrix(.12568 0 0 -.12568 145.805 6.59)">
        <path d="M167.602 679v121M381.035 679h56.667v121M-78.386 0v41.398h211.49M423.688 177.92V0M423.688 103.5h-84.813V0M601.08 101V60.926H699V0" fill="none" stroke-width="4" stroke-miterlimit="10"/>
      </g>
      <path d="M157.996-50.103h-8.536v23.64M156.236-19.424h7.051V-31.49l11.862-.187M162.533-8.113v9.242M165.36-67.232v12.524h-7.364" fill="none" stroke-width=".50272" stroke-miterlimit="10"/>
      <g clip-path="url(#d)" transform="matrix(.12568 0 0 -.12568 145.805 6.59)">
        <path d="M63.042 587.4v-34.899h-229.923" fill="none" stroke-width="4" stroke-miterlimit="10"/>
      </g>
      <path d="M159.762-78.744v5.857h15.85M166.869-84.763h19.28v17.531" fill="none" stroke-width=".50272" stroke-miterlimit="10"/>
      <g clip-path="url(#e)" transform="matrix(.12568 0 0 -.12568 145.805 6.59)">
        <path d="M472.793 596.4v178.49H569V800M637.079 745v55M218.6 726.893V800M546.833 560.166h69.246V685.5h131.994v77.947h132.953V800M931 511H734.574v110.212" fill="none" stroke-width="4" stroke-miterlimit="10"/>
      </g>
      <path d="M227.123-43.485v7.011" fill="none" stroke-width=".50272" stroke-miterlimit="10"/>
      <g clip-path="url(#f)" transform="matrix(.12568 0 0 -.12568 145.805 6.59)">
        <path d="M595.08 469.542h237.707v-37.028M734.574 566.106H931" fill="none" stroke-width="4" stroke-miterlimit="10"/>
      </g>
      <path d="M215.41-21.425h25.281" fill="none" stroke-width=".50272" stroke-miterlimit="10"/>
      <g clip-path="url(#g)" transform="matrix(.12568 0 0 -.12568 145.805 6.59)">
        <path d="M699 340.5h152.568v-62.75" fill="none" stroke-width="4" stroke-miterlimit="10"/>
      </g>
      <path d="M240.691-47.766v11.564" fill="none" stroke-width=".50272" stroke-miterlimit="10"/>
      <g clip-path="url(#h)" transform="matrix(.12568 0 0 -.12568 145.805 6.59)">
        <path d="M755 407.25h153V278M501.893 148h-32.649V0M553.833 101V0M654.417 101v57H908v79.918h92M763 100.5V0M39 43.458V189h-69.388" fill="none" stroke-width="4" stroke-miterlimit="10"/>
      </g>
      <path d="M156.236-36.761h8.805" fill="none" stroke-width=".50272" stroke-miterlimit="10"/>
      <g clip-path="url(#i)" transform="matrix(.12568 0 0 -.12568 145.805 6.59)">
        <path d="M-81 667H39v-79.6M90 680.083V745h36.301v55M304.828 149V74H193.1V0" fill="none" stroke-width="4" stroke-miterlimit="10"/>
      </g>
      <path d="M193.723-2.172v5.37M214.927-10.903h6.42M237.424-9.22h6.975M209.815.04v3.95M233.025-66.353v6.99" fill="none" stroke-width=".50272" stroke-miterlimit="10"/>
      <g clip-path="url(#j)" transform="matrix(.12568 0 0 -.12568 145.805 6.59)">
        <path d="M793 240.98h58.568" fill="none" stroke-width="4" stroke-miterlimit="10"/>
      </g>
      <path d="M223.473-26.525h9.552M244.399-82.716v6.9M180.701-78.88v7.29M172.197-17.222h7.398M174.457 2.494h7.398" fill="none" stroke-width=".50272" stroke-miterlimit="10"/>
      <path d="M157.36-26.487a1.106 1.106 0 1 1-2.213 0 1.106 1.106 0 0 1 2.212 0M164.393-19.424a1.106 1.106 0 1 1-2.212 0 1.106 1.106 0 0 1 2.212 0M157.36-8.113a1.106 1.106 0 1 1-2.213 0 1.106 1.106 0 0 1 2.212 0M151.672-17.162a1.106 1.106 0 1 1-2.212 0 1.106 1.106 0 0 1 2.212 0M151.672-77.16a1.106 1.106 0 1 1-2.212 0 1.106 1.106 0 0 1 2.212 0M146.911-67.232a1.106 1.106 0 1 1-2.212 0 1.106 1.106 0 0 1 2.212 0M153.884-88.547a1.106 1.106 0 1 1-2.212 0 1.106 1.106 0 0 1 2.212 0M162.784-87.101a1.106 1.106 0 1 1-2.212 0 1.106 1.106 0 0 1 2.212 0M176.718-78.88a1.106 1.106 0 1 1-2.213 0 1.106 1.106 0 0 1 2.213 0M174.384-84.763a1.106 1.106 0 1 1-2.212 0 1.106 1.106 0 0 1 2.212 0M187.255-84.751a1.106 1.106 0 1 1-2.212 0 1.106 1.106 0 0 1 2.212 0M181.807-79.56a1.106 1.106 0 1 1-2.212 0 1.106 1.106 0 0 1 2.212 0M181.807-71.481a1.106 1.106 0 1 1-2.212 0 1.106 1.106 0 0 1 2.212 0M201.92-78.732a1.106 1.106 0 1 1-2.212 0 1.106 1.106 0 0 1 2.212 0M206.33-90.759a1.106 1.106 0 1 1-2.212 0 1.106 1.106 0 0 1 2.212 0M218.421-91.199a1.106 1.106 0 1 1-2.212 0 1.106 1.106 0 0 1 2.212 0M218.421-72.887a1.106 1.106 0 1 1-2.212 0 1.106 1.106 0 0 1 2.212 0M211.783-87.039a1.106 1.106 0 1 1-2.212 0 1.106 1.106 0 0 1 2.212 0M234.76-87.039a1.106 1.106 0 1 1-2.213 0 1.106 1.106 0 0 1 2.212 0M224.338-79.56a1.106 1.106 0 1 1-2.212 0 1.106 1.106 0 0 1 2.212 0M240.802-79.56a1.106 1.106 0 1 1-2.212 0 1.106 1.106 0 0 1 2.212 0M240.802-89.357a1.106 1.106 0 1 1-2.212 0 1.106 1.106 0 0 1 2.212 0M245.505-83.407a1.106 1.106 0 1 1-2.212 0 1.106 1.106 0 0 1 2.212 0M245.505-75.124a1.106 1.106 0 1 1-2.212 0 1.106 1.106 0 0 1 2.212 0M228.916-71.481a1.106 1.106 0 1 1-2.212 0 1.106 1.106 0 0 1 2.212 0M239.23-57.63a1.106 1.106 0 1 1-2.212 0 1.106 1.106 0 0 1 2.212 0M234.131-67.257a1.106 1.106 0 1 1-2.212 0 1.106 1.106 0 0 1 2.212 0M234.131-59.363a1.106 1.106 0 1 1-2.212 0 1.106 1.106 0 0 1 2.212 0M228.916-57.944a1.106 1.106 0 1 1-2.212 0 1.106 1.106 0 0 1 2.212 0M234.76-47.766a1.106 1.106 0 1 1-2.213 0 1.106 1.106 0 0 1 2.212 0M228.23-43.68a1.106 1.106 0 1 1-2.213 0 1.106 1.106 0 0 1 2.212 0M228.23-36.197a1.106 1.106 0 1 1-2.213 0 1.106 1.106 0 0 1 2.212 0M216.515-17.162a1.106 1.106 0 1 1-2.212 0 1.106 1.106 0 0 1 2.212 0M216.034-10.903a1.106 1.106 0 1 1-2.213 0 1.106 1.106 0 0 1 2.213 0M241.797-17.162a1.106 1.106 0 1 1-2.212 0 1.106 1.106 0 0 1 2.212 0M229.156-13.115a1.106 1.106 0 1 1-2.212 0 1.106 1.106 0 0 1 2.212 0M222.181-10.903a1.106 1.106 0 1 1-2.212 0 1.106 1.106 0 0 1 2.212 0M205.884-12.01a1.106 1.106 0 1 1-2.212 0 1.106 1.106 0 0 1 2.212 0M189.5-6.417a1.106 1.106 0 1 1-2.212 0 1.106 1.106 0 0 1 2.212 0M194.83-2.71a1.106 1.106 0 1 1-2.213 0 1.106 1.106 0 0 1 2.212 0M194.83 3.99a1.106 1.106 0 1 1-2.213 0 1.106 1.106 0 0 1 2.212 0M210.087-6.103a1.106 1.106 0 1 1-2.213 0 1.106 1.106 0 0 1 2.213 0M210.92-.497a1.106 1.106 0 1 1-2.211 0 1.106 1.106 0 0 1 2.212 0M210.92 4.656a1.106 1.106 0 1 1-2.211 0 1.106 1.106 0 0 1 2.212 0M222.453-1.066a1.106 1.106 0 1 1-2.212 0 1.106 1.106 0 0 1 2.212 0M234.76-1.066a1.106 1.106 0 1 1-2.213 0 1.106 1.106 0 0 1 2.212 0M245.945-23.695a1.106 1.106 0 1 1-2.213 0 1.106 1.106 0 0 1 2.213 0M238.278-9.22a1.106 1.106 0 1 1-2.212 0 1.106 1.106 0 0 1 2.212 0M245.658-9.22a1.106 1.106 0 1 1-2.212 0 1.106 1.106 0 0 1 2.212 0M241.797-28.347a1.106 1.106 0 1 1-2.212 0 1.106 1.106 0 0 1 2.212 0M223.986-26.525a1.106 1.106 0 1 1-2.212 0 1.106 1.106 0 0 1 2.212 0M234.48-26.525a1.106 1.106 0 1 1-2.212 0 1.106 1.106 0 0 1 2.212 0M177.849-12.135a1.106 1.106 0 1 1-2.212 0 1.106 1.106 0 0 1 2.212 0M173.303-17.222a1.106 1.106 0 1 1-2.212 0 1.106 1.106 0 0 1 2.212 0M180.701-17.222a1.106 1.106 0 1 1-2.212 0 1.106 1.106 0 0 1 2.212 0M185.221-2.71a1.106 1.106 0 1 1-2.212 0 1.106 1.106 0 0 1 2.212 0M182.96 2.494a1.106 1.106 0 1 1-2.212 0 1.106 1.106 0 0 1 2.213 0M175.563 2.494a1.106 1.106 0 1 1-2.212 0 1.106 1.106 0 0 1 2.212 0M234.76-31.615a1.106 1.106 0 1 1-2.213 0 1.106 1.106 0 0 1 2.212 0M241.797-36.328a1.106 1.106 0 1 1-2.212 0 1.106 1.106 0 0 1 2.212 0M228.05-21.636a1.106 1.106 0 1 1-2.212 0 1.106 1.106 0 0 1 2.212 0M150.566-35.09a1.106 1.106 0 1 1-2.212 0 1.106 1.106 0 0 1 2.212 0M154.834-67.232a1.106 1.106 0 1 1-2.212 0 1.106 1.106 0 0 1 2.212 0M184.563-88.547a1.106 1.106 0 1 1-2.212 0 1.106 1.106 0 0 1 2.212 0M160.88-72.887a1.106 1.106 0 1 1-2.212 0 1.106 1.106 0 0 1 2.212 0M159.102-57.63a1.106 1.106 0 1 1-2.212 0 1.106 1.106 0 0 1 2.212 0M171.18-67.232a1.106 1.106 0 1 1-2.213 0 1.106 1.106 0 0 1 2.212 0M150.566-50.103a1.106 1.106 0 1 1-2.212 0 1.106 1.106 0 0 1 2.212 0M159.102-43.537a1.106 1.106 0 1 1-2.212 0 1.106 1.106 0 0 1 2.212 0M156.89-36.761a1.106 1.106 0 1 1-2.212 0 1.106 1.106 0 0 1 2.212 0M166.148-36.761a1.106 1.106 0 1 1-2.213 0 1.106 1.106 0 0 1 2.213 0M169.272-8.113a1.106 1.106 0 1 1-2.213 0 1.106 1.106 0 0 1 2.213 0M163.64 1.388a1.106 1.106 0 1 1-2.213 0 1.106 1.106 0 0 1 2.212 0M169.272-23.615a1.106 1.106 0 1 1-2.212 0 1.106 1.106 0 0 1 2.212 0" fill="#93a3a2" stroke-width=".12568"/>
    </g>
    <path d="M223.986-43.68c0 15.414-12.496 27.91-27.91 27.91s-27.91-12.496-27.91-27.91c0-15.415 12.496-27.91 27.91-27.91s27.91 12.495 27.91 27.91" fill="#012c4f"/>
    <path d="M208.1-52.5v-7.813c0-3.143-2.572-5.714-5.715-5.714h-12.619c-3.142 0-5.713 2.571-5.713 5.714v7.813z" fill="#999"/>
    <g fill="#e6e6e6">
      <g clip-path="url(#k)" opacity=".4" transform="matrix(.18803 0 0 -.18803 121.027 43.105)">
        <path d="M454.72 513.174v36.112c0 14.527-11.886 26.412-26.413 26.412h-58.329c-14.527 0-26.412-11.885-26.412-26.412v-36.112z"/>
      </g>
    </g>
    <path d="M184.053-51.155v.656a2.965 2.965 0 0 0 2.956 2.956h18.134A2.965 2.965 0 0 0 208.1-50.5v-.656z" fill="#999"/>
    <path d="M189.86-54.98a.992.992 0 1 1-1.983 0 .992.992 0 0 1 1.983 0M203.81-54.98a.992.992 0 1 1-1.983 0 .992.992 0 0 1 1.983 0" fill="#f2f2f2"/>
    <path d="M206.148-51.155H185.68V-52.5h20.467z" fill="#e6e6e6"/>
    <path d="M203.448-43.533a3.596 3.596 0 0 0-3.585-3.585h-7.574a3.596 3.596 0 0 0-3.585 3.585v2.52c0 5.503 3.3 9.965 7.372 9.965 4.071 0 7.372-4.462 7.372-9.965h-.001l.001-.053z" fill="#999"/>
    <g fill="#e6e6e6">
      <g clip-path="url(#l)" opacity=".4" transform="matrix(.18803 0 0 -.18803 121.027 43.105)">
        <path d="M430.783 459.971c0 8.464-6.925 15.388-15.388 15.388h-32.503c-8.464 0-15.39-6.924-15.39-15.388v-10.585c0-.076.006-.152.007-.228h-.006c0-23.619 14.166-42.766 31.64-42.766s31.64 19.147 31.64 42.766h-.006c0 .076.006.152.006.228z"/>
      </g>
    </g>
    <path d="M184.233-41.326h-.133a.658.658 0 0 1-.655-.656v-1.931c0-.36.295-.656.655-.656h.133c.36 0 .655.295.655.656v1.93c0 .361-.295.657-.655.657M182.32-41.326h-.132a.658.658 0 0 1-.655-.656v-1.931c0-.36.295-.656.655-.656h.133c.36 0 .655.295.655.656v1.93c0 .361-.295.657-.655.657M180.408-41.326h-.132a.658.658 0 0 1-.656-.656v-1.931c0-.36.295-.656.656-.656h.132c.361 0 .656.295.656.656v1.93c0 .361-.295.657-.656.657M175.987-36.203v-.132c0-.36.295-.656.656-.656h1.93c.361 0 .657.295.657.656v.132c0 .36-.296.656-.656.656h-1.931a.658.658 0 0 1-.656-.656M175.987-38.115v-.132c0-.361.295-.656.656-.656h1.93c.361 0 .657.295.657.656v.132c0 .36-.296.656-.656.656h-1.931a.658.658 0 0 1-.656-.656M175.987-40.027v-.133c0-.36.295-.655.656-.655h1.93c.361 0 .657.295.657.655v.133c0 .36-.296.655-.656.655h-1.931a.658.658 0 0 1-.656-.655M179.23-42.948a1.621 1.621 0 1 1-3.243 0 1.621 1.621 0 0 1 3.242 0M189.04-42.948a1.621 1.621 0 1 1-3.243 0 1.621 1.621 0 0 1 3.243 0M176.024-30.76a1.948 1.948 0 1 1 3.466 0h1.623a3.47 3.47 0 1 0-6.711 0z" fill="#999"/>
    <g fill="#999">
      <path d="M207.92-41.326h.131c.361 0 .656-.296.656-.656v-1.931a.658.658 0 0 0-.656-.656h-.132a.658.658 0 0 0-.656.656v1.93c0 .361.295.657.656.657M209.831-41.326h.132c.361 0 .656-.296.656-.656v-1.931a.658.658 0 0 0-.656-.656h-.132a.658.658 0 0 0-.656.656v1.93c0 .361.296.657.656.657M211.743-41.326h.132c.361 0 .656-.296.656-.656v-1.931a.658.658 0 0 0-.656-.656h-.132a.658.658 0 0 0-.656.656v1.93c0 .361.296.657.656.657M216.165-36.203v-.132a.658.658 0 0 0-.656-.656h-1.93a.658.658 0 0 0-.657.656v.132c0 .36.295.656.656.656h1.93c.362 0 .657-.295.657-.656M216.165-38.115v-.132a.658.658 0 0 0-.656-.656h-1.93a.658.658 0 0 0-.657.656v.132c0 .36.295.656.656.656h1.93c.362 0 .657-.296.657-.656M216.165-40.027v-.132a.658.658 0 0 0-.656-.656h-1.93a.658.658 0 0 0-.657.656v.132c0 .36.295.656.656.656h1.93c.362 0 .657-.296.657-.656M212.922-42.948a1.621 1.621 0 1 0 3.243 0 1.621 1.621 0 0 0-3.243 0M203.144-42.948a1.621 1.621 0 1 0 3.242 0 1.621 1.621 0 0 0-3.242 0M216.127-30.76c.137-.265.215-.565.215-.884a1.948 1.948 0 1 0-3.681.885h-1.622a3.47 3.47 0 1 1 6.71 0z"/>
    </g>
    <g style="line-height:1.25;-inkscape-font-specification:'Futura Std Medium Condensed'" aria-label="Botnet" font-weight="500" font-stretch="condensed" font-size="96" font-family="Futura Std" letter-spacing="0" word-spacing="0" fill="#fff">
      <path style="line-height:1.25;-inkscape-font-specification:'Futura Std Medium Condensed'" d="M186.426-25.516c1.032-.022 1.223.562 1.223 1.493 0 .932-.247 1.437-1.223 1.392zm.28 3.839c1.56 0 2.133-.752 2.133-2.312 0-.943-.225-1.684-1.19-1.987v-.022c.898-.236 1.066-1.044 1.066-1.874 0-1.426-.426-2.268-1.953-2.268h-1.403v8.463zm.91-6.24c0 .898-.147 1.548-1.19 1.504v-2.773h.19c.775-.01 1 .606 1 1.269zM191.476-21.587c1.616 0 1.784-1.718 1.784-2.907 0-1.235-.168-2.94-1.784-2.94s-1.785 1.705-1.785 2.94c0 1.19.169 2.907 1.785 2.907zm0-.966c-.808 0-.707-1.537-.707-1.941 0-.45-.101-1.976.707-1.976.808 0 .707 1.527.707 1.976 0 .404.1 1.941-.707 1.941zM194.282-28.95v1.605h-.573v.83h.573v4.838h1.055v-4.837h.56v-.831h-.56v-1.605zM197.6-27.345h-1.055v5.668h1.055v-3.536c0-.482-.056-1.279.64-1.279.561 0 .629.505.629.898v3.917h1.055v-3.895c0-.864-.034-1.863-1.156-1.863-.281 0-.505.068-.696.202-.18.124-.326.303-.45.539h-.022zM201.817-25.055c0-.438-.045-1.437.617-1.437.64 0 .64.999.64 1.437zm2.334.752v-.169c0-1.167-.18-2.963-1.717-2.963-1.56 0-1.695 1.807-1.695 2.963 0 1.201.146 2.885 1.729 2.885 1.19 0 1.65-.954 1.65-1.998h-.977c0 .438-.101 1.055-.662 1.055-.685 0-.662-1.302-.662-1.773zM205.176-28.95v1.605h-.572v.83h.572v4.838h1.055v-4.837h.561v-.831h-.56v-1.605z"/>
    </g>
    <g fill="#d32f2f">
      <path d="M251.918-80.818c.432-.842.36-1.796-.019-2.588.107-.902-.13-1.817-.983-2.52a7549.3 7549.3 0 0 1-2.382-1.96c-1.396-1.149-3.582-1.511-4.94 0-6.168 6.863-12.618 13.429-19.304 19.755-4.97-4.644-10.002-9.224-14.998-13.81-1.753-1.611-4.29-1.106-5.393.813-1.607.797-2.91 1.837-3.986 3.61-.513.846-.473 1.913 0 2.762 3.225 5.782 9.458 10.865 14.583 15.544-.686.614-1.367 1.233-2.066 1.834-6.905 5.93-11.563 9.692-2.922 15.772.117.082.236.064.354.112.166.076.325.13.508.16.057.002.11.012.167.008.178.014.352.06.532.024 4.646-.91 8.966-4.552 12.886-8.56 3.818 3.763 7.884 7.359 12.355 9.492 1.065.509 2.334.212 3.153-.498 1.374.104 2.627-.75 3.256-1.977.093-.058.153-.09.254-.154 1.998-1.248 2.18-3.734.702-5.447-3.338-3.868-6.886-7.545-10.504-11.157 6.513-6.364 14.646-13.228 18.747-21.215z"/>
    </g>
  </g>
</svg>
