<?xml version="1.0" standalone="no"?>
<!DOCTYPE svg PUBLIC "-//W3C//DTD SVG 20010904//EN"
 "http://www.w3.org/TR/2001/REC-SVG-20010904/DTD/svg10.dtd">
<svg version="1.0" xmlns="http://www.w3.org/2000/svg"
 width="370.000000pt" height="117.000000pt" viewBox="0 0 370.000000 117.000000"
 preserveAspectRatio="xMidYMid meet">
<metadata>
Created by potrace 1.15, written by Peter Selinger 2001-2017
</metadata>
<g transform="translate(0.000000,117.000000) scale(0.100000,-0.100000)"
fill="#000000" stroke="none">
<path d="M2997 1085 c-90 -25 -160 -67 -233 -139 -162 -163 -200 -386 -101
-596 38 -83 148 -195 228 -234 208 -101 448 -64 607 95 102 100 152 223 152
369 0 50 -7 109 -16 141 -52 177 -196 319 -369 364 -71 18 -202 18 -268 0z
m233 -221 c71 -21 159 -107 183 -178 40 -117 14 -231 -73 -318 -45 -45 -69
-60 -115 -74 -147 -42 -293 18 -363 151 -23 43 -27 62 -27 135 0 70 4 93 24
130 73 140 217 200 371 154z"/>
<path d="M95 898 c-11 -6 -23 -16 -27 -22 -4 -6 -8 -156 -8 -333 l0 -322 26
-20 27 -21 1318 0 c726 0 1319 3 1319 6 0 3 -18 26 -39 52 -137 165 -160 404
-57 599 19 34 31 65 28 68 -3 3 -582 5 -1286 5 -936 -1 -1286 -4 -1301 -12z
m642 -252 c22 -20 25 -27 16 -37 -10 -10 -16 -9 -30 3 -26 24 -68 32 -93 18
-34 -18 -53 -74 -40 -116 21 -62 75 -81 124 -43 36 28 34 49 -5 49 -20 0 -29
4 -26 13 2 7 20 12 43 12 l39 0 3 -62 c2 -50 0 -63 -12 -63 -8 0 -16 5 -18 11
-3 9 -9 9 -25 0 -31 -16 -85 -14 -111 5 -33 23 -52 67 -52 120 0 39 5 51 34
80 29 29 41 34 79 34 34 0 53 -6 74 -24z m103 -45 c0 -37 5 -82 11 -100 19
-53 66 -66 106 -29 21 19 23 30 23 110 0 81 2 88 20 88 18 0 20 -7 20 -85 0
-127 -25 -165 -110 -165 -33 0 -48 6 -71 29 -28 28 -29 33 -29 125 0 79 3 96
15 96 12 0 15 -14 15 -69z m449 -28 c20 -51 39 -93 42 -93 3 0 13 18 22 41 15
38 15 43 -4 85 -23 55 -24 64 -3 64 8 0 22 -17 31 -37 l15 -38 15 38 c10 24
22 37 34 37 18 0 17 -2 -3 -55 -20 -54 -20 -56 -3 -102 l18 -47 40 102 c31 78
45 102 59 102 10 0 18 -3 18 -7 0 -5 -22 -60 -49 -123 -30 -73 -54 -116 -65
-118 -12 -3 -24 12 -40 50 l-25 53 -22 -52 c-39 -91 -47 -82 -156 185 -4 10 1
13 17 10 18 -2 29 -20 59 -95z m411 19 c19 -15 24 -31 28 -95 4 -67 2 -77 -12
-77 -9 0 -16 5 -16 10 0 7 -6 7 -19 0 -35 -18 -88 -12 -105 12 -21 30 -20 44
4 68 14 14 33 20 65 20 47 0 59 16 30 40 -14 12 -42 10 -77 -5 -13 -5 -18 -3
-18 8 0 37 82 50 120 19z m409 -8 c22 -18 31 -35 31 -55 l0 -29 -70 0 c-71 0
-86 -10 -58 -38 15 -15 64 -16 73 -2 8 13 45 13 45 1 0 -19 -45 -41 -83 -41
-55 0 -87 35 -87 94 0 37 5 48 31 70 17 15 43 26 59 26 16 0 42 -11 59 -26z"/>
</g>
</svg>
